<svg id="svg" version="1.1" xmlns="http://www.w3.org/2000/svg" xmlns:xlink="http://www.w3.org/1999/xlink" width="400" height="400" viewBox="0, 0, 400,400"><g id="svgg"><path id="path0" d="M288.000 0.385 C 288.000 0.588,287.640 0.685,287.200 0.600 C 286.760 0.515,286.400 0.635,286.400 0.865 C 286.400 1.621,284.478 3.625,284.263 3.094 C 284.105 2.704,284.056 2.705,284.032 3.097 C 284.014 3.370,283.433 4.135,282.741 4.797 C 282.048 5.458,281.622 6.000,281.795 6.000 C 281.967 6.000,281.592 6.405,280.962 6.900 C 280.331 7.395,279.664 7.751,279.478 7.690 C 279.292 7.630,279.246 7.750,279.374 7.958 C 279.503 8.166,279.156 8.691,278.604 9.126 C 278.052 9.560,277.600 10.037,277.600 10.186 C 277.600 10.592,276.513 11.600,276.075 11.600 C 275.865 11.600,275.594 11.978,275.474 12.440 C 275.346 12.930,275.067 13.165,274.806 13.004 C 274.366 12.732,274.010 13.062,272.000 15.604 C 271.450 16.300,270.594 17.029,270.097 17.226 C 269.600 17.422,269.240 17.811,269.297 18.091 C 269.354 18.371,269.175 18.555,268.900 18.500 C 268.625 18.445,268.400 18.642,268.400 18.938 C 268.400 19.234,268.040 19.802,267.600 20.200 C 267.160 20.598,266.800 20.793,266.800 20.633 C 266.800 20.474,266.530 20.613,266.200 20.943 C 265.870 21.273,265.600 21.670,265.600 21.825 C 265.600 21.979,265.212 22.442,264.739 22.853 C 264.265 23.264,264.002 23.600,264.155 23.600 C 264.307 23.600,264.200 23.847,263.918 24.150 C 263.635 24.452,263.195 24.619,262.938 24.521 C 262.682 24.423,262.354 24.715,262.209 25.171 C 262.064 25.627,261.688 26.000,261.373 26.000 C 261.058 26.000,260.800 26.270,260.800 26.600 C 260.800 26.930,260.632 27.200,260.427 27.200 C 260.222 27.200,259.939 27.563,259.798 28.006 C 259.657 28.449,259.375 28.708,259.171 28.582 C 258.967 28.456,258.797 28.678,258.794 29.076 C 258.789 29.690,258.729 29.709,258.400 29.200 C 258.056 28.668,258.012 28.668,258.006 29.204 C 258.003 29.536,257.633 30.037,257.184 30.317 C 256.736 30.597,256.475 30.998,256.605 31.209 C 256.736 31.421,256.565 31.485,256.221 31.353 C 255.787 31.186,255.600 31.356,255.600 31.914 C 255.600 32.354,255.319 32.822,254.975 32.954 C 254.631 33.086,254.456 33.366,254.585 33.576 C 254.716 33.787,254.454 33.887,254.000 33.800 C 253.548 33.713,253.284 33.813,253.413 34.022 C 253.543 34.231,253.186 34.577,252.621 34.792 C 252.056 35.007,251.634 35.321,251.682 35.491 C 251.829 36.010,250.640 37.600,250.104 37.600 C 249.827 37.600,249.600 37.848,249.600 38.151 C 249.600 38.454,249.285 38.949,248.900 39.251 C 248.264 39.750,248.251 39.736,248.757 39.091 C 249.245 38.469,249.232 38.413,248.657 38.634 C 248.295 38.772,248.000 39.038,248.000 39.224 C 248.000 39.700,243.865 43.807,243.500 43.693 C 243.335 43.642,243.245 43.825,243.300 44.100 C 243.355 44.375,243.175 44.555,242.900 44.500 C 242.625 44.445,242.400 44.597,242.400 44.837 C 242.400 45.631,240.890 47.262,240.668 46.708 C 240.510 46.317,240.456 46.325,240.432 46.740 C 240.414 47.036,239.841 47.801,239.158 48.440 C 238.474 49.078,238.031 49.600,238.172 49.600 C 238.313 49.600,237.813 50.140,237.061 50.800 C 236.309 51.460,235.493 52.000,235.247 52.000 C 235.001 52.000,234.800 52.229,234.800 52.508 C 234.800 52.788,233.823 53.906,232.628 54.992 C 231.434 56.079,230.543 57.108,230.649 57.279 C 230.755 57.451,230.585 57.493,230.272 57.372 C 229.805 57.193,229.001 58.216,229.201 58.736 C 229.324 59.058,227.776 59.909,227.443 59.703 C 227.241 59.578,227.205 59.685,227.362 59.939 C 227.536 60.221,227.246 60.554,226.621 60.792 C 226.056 61.007,225.640 61.411,225.697 61.691 C 225.754 61.971,225.575 62.155,225.300 62.100 C 225.025 62.045,224.800 62.276,224.800 62.613 C 224.800 62.949,224.530 63.329,224.200 63.455 C 223.870 63.582,223.600 63.914,223.600 64.194 C 223.600 64.473,223.285 64.949,222.900 65.251 C 222.264 65.750,222.251 65.736,222.757 65.091 C 223.245 64.469,223.232 64.413,222.657 64.634 C 222.295 64.772,222.000 65.038,222.000 65.224 C 222.000 65.690,218.052 69.600,217.581 69.600 C 217.371 69.600,217.200 69.801,217.200 70.047 C 217.200 70.803,214.875 73.215,214.659 72.683 C 214.510 72.315,214.456 72.319,214.432 72.697 C 214.414 72.970,213.833 73.735,213.141 74.397 C 212.448 75.058,212.022 75.600,212.195 75.600 C 212.367 75.600,211.992 76.005,211.362 76.500 C 210.731 76.995,210.064 77.351,209.878 77.290 C 209.692 77.230,209.635 77.333,209.751 77.520 C 209.866 77.708,209.340 78.447,208.581 79.163 C 207.821 79.879,207.200 80.630,207.200 80.832 C 207.200 81.035,207.021 81.200,206.803 81.200 C 206.179 81.200,204.404 82.883,204.634 83.256 C 204.748 83.440,204.562 83.484,204.221 83.353 C 203.879 83.222,203.600 83.281,203.600 83.485 C 203.600 84.042,201.101 86.649,200.296 86.931 C 199.909 87.067,199.639 87.318,199.696 87.489 C 199.753 87.660,199.656 87.800,199.480 87.800 C 199.303 87.800,198.884 88.369,198.547 89.065 C 198.199 89.782,197.515 90.435,196.967 90.573 C 196.435 90.706,196.000 91.042,196.000 91.319 C 196.000 91.597,195.650 92.076,195.221 92.385 C 194.793 92.693,194.534 93.093,194.645 93.273 C 194.756 93.453,194.580 93.600,194.253 93.600 C 193.926 93.600,193.304 94.050,192.871 94.600 C 192.439 95.150,191.886 95.600,191.642 95.600 C 191.399 95.600,191.200 95.867,191.200 96.192 C 191.200 96.518,190.745 96.899,190.189 97.038 C 189.499 97.212,189.296 97.436,189.549 97.746 C 189.785 98.035,189.727 98.377,189.389 98.688 C 188.972 99.073,188.817 99.073,188.661 98.688 C 188.532 98.370,188.452 98.410,188.432 98.804 C 188.414 99.136,188.033 99.637,187.584 99.917 C 187.136 100.197,186.875 100.598,187.005 100.809 C 187.136 101.021,186.965 101.085,186.621 100.953 C 186.238 100.806,186.000 100.934,186.000 101.287 C 186.000 102.057,184.228 103.686,183.806 103.304 C 183.622 103.137,183.601 103.225,183.760 103.501 C 183.944 103.821,183.679 104.142,183.024 104.391 C 182.433 104.616,182.000 105.094,182.000 105.523 C 182.000 105.931,181.565 106.498,181.034 106.782 C 180.502 107.066,179.979 107.638,179.871 108.051 C 179.759 108.478,179.441 108.714,179.136 108.597 C 178.840 108.483,178.238 108.876,177.799 109.470 C 176.603 111.087,174.241 113.404,173.900 113.295 C 173.735 113.243,173.645 113.425,173.700 113.700 C 173.755 113.975,173.575 114.155,173.300 114.100 C 173.025 114.045,172.800 114.242,172.800 114.538 C 172.800 114.834,172.440 115.402,172.000 115.800 C 171.560 116.198,171.200 116.393,171.200 116.233 C 171.200 116.074,170.930 116.213,170.600 116.543 C 170.270 116.873,170.000 117.270,170.000 117.425 C 170.000 117.579,169.612 118.042,169.139 118.453 C 168.665 118.864,168.401 119.200,168.553 119.200 C 168.704 119.200,168.213 119.740,167.461 120.400 C 166.709 121.060,165.893 121.600,165.647 121.600 C 165.401 121.600,165.200 121.829,165.200 122.108 C 165.200 122.388,164.223 123.506,163.028 124.592 C 161.834 125.679,160.943 126.708,161.049 126.879 C 161.155 127.051,160.985 127.093,160.672 126.972 C 160.151 126.772,159.632 127.398,159.751 128.083 C 159.830 128.537,158.244 129.551,157.843 129.303 C 157.641 129.178,157.605 129.285,157.762 129.539 C 157.936 129.821,157.646 130.154,157.021 130.392 C 156.456 130.607,156.040 131.011,156.097 131.291 C 156.154 131.571,155.975 131.755,155.700 131.700 C 155.425 131.645,155.200 131.876,155.200 132.213 C 155.200 132.549,154.930 132.929,154.600 133.055 C 154.270 133.182,154.000 133.514,154.000 133.794 C 154.000 134.073,153.685 134.549,153.300 134.851 C 152.664 135.350,152.651 135.336,153.157 134.691 C 153.645 134.069,153.632 134.013,153.057 134.234 C 152.695 134.372,152.400 134.638,152.400 134.824 C 152.400 135.315,148.439 139.200,147.938 139.200 C 147.705 139.200,147.626 139.490,147.762 139.845 C 147.939 140.306,147.837 140.423,147.405 140.257 C 147.072 140.129,146.800 140.216,146.800 140.449 C 146.800 141.235,145.288 142.857,145.068 142.308 C 144.910 141.916,144.856 141.913,144.832 142.297 C 144.814 142.570,144.233 143.335,143.541 143.997 C 142.848 144.658,142.422 145.200,142.595 145.200 C 142.767 145.200,142.392 145.605,141.762 146.100 C 141.131 146.595,140.483 146.957,140.322 146.905 C 140.161 146.852,140.132 147.079,140.259 147.409 C 140.423 147.837,140.304 147.938,139.845 147.762 C 139.417 147.598,139.200 147.730,139.200 148.157 C 139.200 148.511,139.020 148.800,138.800 148.800 C 138.580 148.800,138.400 149.040,138.400 149.332 C 138.400 149.625,137.950 150.106,137.400 150.400 C 136.850 150.694,136.400 151.185,136.400 151.491 C 136.400 151.797,136.240 151.949,136.045 151.828 C 135.589 151.546,134.715 152.582,135.091 152.958 C 135.248 153.114,135.111 153.144,134.788 153.023 C 134.414 152.884,133.867 153.319,133.286 154.217 C 132.755 155.039,132.185 155.515,131.925 155.353 C 131.651 155.185,131.588 155.257,131.762 155.539 C 131.936 155.821,131.646 156.154,131.021 156.392 C 130.456 156.607,130.040 157.011,130.097 157.291 C 130.154 157.571,129.975 157.755,129.700 157.700 C 129.425 157.645,129.200 157.876,129.200 158.213 C 129.200 158.549,128.930 158.929,128.600 159.055 C 128.270 159.182,128.000 159.536,128.000 159.843 C 128.000 160.149,127.865 160.379,127.700 160.353 C 126.910 160.228,126.400 160.447,126.400 160.912 C 126.400 161.193,126.050 161.676,125.621 161.985 C 125.193 162.293,124.934 162.693,125.045 162.873 C 125.156 163.053,124.980 163.200,124.653 163.200 C 124.326 163.200,123.704 163.650,123.271 164.200 C 122.839 164.750,122.286 165.200,122.042 165.200 C 121.799 165.200,121.600 165.401,121.600 165.647 C 121.600 166.403,119.275 168.815,119.059 168.283 C 118.934 167.975,118.852 168.019,118.832 168.404 C 118.814 168.736,118.433 169.237,117.984 169.517 C 117.536 169.797,117.275 170.198,117.405 170.409 C 117.536 170.621,117.365 170.685,117.021 170.553 C 116.638 170.406,116.400 170.534,116.400 170.887 C 116.400 171.657,114.628 173.286,114.206 172.904 C 114.022 172.737,114.001 172.825,114.160 173.101 C 114.344 173.421,114.079 173.742,113.424 173.991 C 112.861 174.205,112.400 174.668,112.400 175.019 C 112.400 175.721,111.477 176.800,110.875 176.800 C 110.665 176.800,110.394 177.178,110.274 177.640 C 110.152 178.107,109.863 178.362,109.624 178.215 C 109.169 177.934,108.566 178.423,107.549 179.896 C 107.209 180.389,106.316 181.206,105.565 181.712 C 104.814 182.218,104.192 182.895,104.182 183.216 C 104.172 183.537,103.947 183.755,103.682 183.700 C 103.417 183.645,103.200 183.842,103.200 184.138 C 103.200 184.434,102.840 185.002,102.400 185.400 C 101.960 185.798,101.600 185.993,101.600 185.833 C 101.600 185.674,101.330 185.813,101.000 186.143 C 100.670 186.473,100.400 186.870,100.400 187.025 C 100.400 187.179,100.012 187.642,99.539 188.053 C 99.065 188.464,98.802 188.800,98.955 188.800 C 99.107 188.800,99.000 189.047,98.718 189.350 C 98.435 189.652,97.995 189.819,97.738 189.721 C 97.482 189.623,97.154 189.915,97.009 190.371 C 96.864 190.827,96.488 191.200,96.173 191.200 C 95.858 191.200,95.600 191.470,95.600 191.800 C 95.600 192.130,95.330 192.400,95.000 192.400 C 94.667 192.400,94.400 192.756,94.400 193.200 C 94.400 193.640,94.220 194.000,94.000 194.000 C 93.780 194.000,93.600 194.191,93.600 194.424 C 93.600 194.657,93.815 194.714,94.079 194.551 C 94.342 194.389,94.162 194.811,93.679 195.490 C 92.689 196.879,92.561 197.597,93.300 197.606 C 93.689 197.611,93.686 197.685,93.286 197.938 C 92.675 198.326,92.694 203.256,93.308 203.655 C 93.523 203.794,93.700 204.390,93.700 204.978 C 93.700 205.688,93.874 205.981,94.217 205.849 C 94.728 205.653,95.226 206.427,95.172 207.333 C 95.156 207.590,94.989 207.440,94.800 207.000 C 94.534 206.382,94.450 206.348,94.428 206.853 C 94.413 207.212,95.120 208.226,96.000 209.106 C 97.817 210.923,98.158 210.867,96.506 209.022 C 95.905 208.350,96.821 209.186,98.543 210.880 C 100.543 212.848,101.563 214.136,101.370 214.448 C 101.163 214.783,101.273 214.858,101.722 214.685 C 102.081 214.548,102.498 214.635,102.649 214.879 C 102.815 215.148,102.741 215.211,102.462 215.038 C 101.815 214.639,101.885 215.142,102.571 215.829 C 103.276 216.533,103.754 216.577,103.347 215.900 C 103.140 215.556,103.256 215.570,103.719 215.945 C 104.089 216.245,104.309 216.623,104.209 216.785 C 103.967 217.178,106.400 219.600,107.037 219.600 C 107.186 219.600,107.729 220.054,108.244 220.610 C 108.758 221.165,109.274 221.615,109.390 221.610 C 109.505 221.604,109.588 221.704,109.574 221.830 C 109.559 221.957,109.927 222.389,110.390 222.791 C 110.999 223.320,111.090 223.580,110.716 223.730 C 110.377 223.866,110.431 223.948,110.873 223.968 C 111.243 223.986,111.657 224.315,111.793 224.700 C 111.929 225.085,112.617 225.842,113.320 226.382 L 114.600 227.365 113.800 226.382 L 113.000 225.400 113.900 226.162 C 114.395 226.581,114.800 227.154,114.800 227.435 C 114.800 227.716,115.197 228.072,115.681 228.226 C 116.577 228.510,117.600 229.343,117.600 229.788 C 117.600 229.923,117.954 230.413,118.386 230.877 C 118.819 231.341,119.059 231.904,118.921 232.129 C 118.769 232.373,118.930 232.436,119.322 232.285 C 119.681 232.148,120.098 232.235,120.249 232.479 C 120.415 232.748,120.341 232.811,120.062 232.638 C 119.021 231.995,119.716 232.955,121.500 234.624 C 122.662 235.711,123.672 236.339,124.101 236.238 C 124.486 236.148,124.720 236.206,124.621 236.366 C 124.522 236.526,125.239 237.489,126.213 238.506 C 127.188 239.523,128.033 240.586,128.093 240.868 C 128.215 241.454,129.019 242.400,129.395 242.400 C 129.534 242.400,129.536 242.220,129.400 242.000 C 128.998 241.349,129.457 241.544,130.051 242.277 C 130.524 242.860,130.517 242.907,130.000 242.615 C 129.670 242.429,129.929 242.844,130.575 243.538 C 131.919 244.982,132.507 245.252,131.362 243.900 L 130.600 243.000 131.500 243.762 C 131.995 244.181,132.400 244.766,132.400 245.062 C 132.400 245.358,132.670 245.600,133.000 245.600 C 133.330 245.600,133.600 245.768,133.600 245.973 C 133.600 246.178,133.960 246.460,134.400 246.600 C 134.840 246.740,135.200 247.046,135.200 247.281 C 135.200 247.516,135.645 248.121,136.189 248.625 C 136.846 249.233,137.013 249.607,136.689 249.739 C 136.400 249.856,136.475 249.950,136.873 249.968 C 137.243 249.986,137.657 250.315,137.793 250.700 C 137.929 251.085,138.617 251.842,139.320 252.382 L 140.600 253.365 139.800 252.382 L 139.000 251.400 139.900 252.162 C 140.395 252.581,140.800 253.154,140.800 253.435 C 140.800 253.716,141.155 254.059,141.589 254.196 C 142.636 254.529,145.245 257.604,144.922 258.126 C 144.769 258.373,144.928 258.437,145.322 258.285 C 145.681 258.148,146.098 258.235,146.249 258.479 C 146.415 258.748,146.341 258.811,146.062 258.638 C 145.256 258.140,145.564 258.875,146.500 259.684 C 146.995 260.112,148.067 261.078,148.883 261.831 C 149.698 262.584,150.521 263.200,150.710 263.200 C 150.900 263.200,151.447 263.650,151.925 264.200 C 152.403 264.750,153.006 265.200,153.264 265.200 C 153.522 265.200,153.617 265.317,153.474 265.459 C 153.331 265.602,153.599 266.052,154.068 266.459 C 154.538 266.867,154.702 267.200,154.433 267.200 C 154.098 267.200,154.135 267.392,154.550 267.807 C 154.884 268.141,155.392 268.366,155.679 268.307 C 155.965 268.248,156.163 268.401,156.118 268.647 C 156.072 268.893,156.521 269.523,157.115 270.047 L 158.194 271.000 157.397 270.000 L 156.600 269.000 157.500 269.762 C 157.995 270.181,158.400 270.766,158.400 271.062 C 158.400 271.358,158.670 271.600,159.000 271.600 C 159.330 271.600,159.600 271.768,159.600 271.973 C 159.600 272.178,159.960 272.460,160.400 272.600 C 160.840 272.740,161.200 273.029,161.200 273.244 C 161.200 273.458,161.554 274.013,161.986 274.477 C 162.419 274.941,162.678 275.474,162.563 275.661 C 162.447 275.847,162.633 276.000,162.976 276.000 C 163.319 276.000,163.600 276.173,163.600 276.384 C 163.600 276.813,164.804 278.011,166.560 279.329 C 169.228 281.333,171.293 283.525,170.984 284.026 C 170.761 284.386,170.861 284.462,171.322 284.285 C 171.681 284.148,172.098 284.235,172.249 284.479 C 172.415 284.748,172.341 284.811,172.062 284.638 C 171.256 284.140,171.564 284.875,172.500 285.684 C 172.995 286.112,174.067 287.078,174.883 287.831 C 175.698 288.584,176.487 289.200,176.637 289.200 C 176.786 289.200,177.367 289.695,177.928 290.300 C 178.488 290.905,179.004 291.355,179.074 291.300 C 179.143 291.245,179.188 291.304,179.174 291.430 C 179.159 291.557,179.527 291.989,179.990 292.391 C 180.599 292.920,180.690 293.180,180.316 293.330 C 179.977 293.466,180.031 293.548,180.473 293.568 C 180.843 293.586,181.250 293.927,181.377 294.328 C 181.504 294.728,182.191 295.482,182.904 296.004 C 183.945 296.767,184.082 296.800,183.600 296.176 C 183.045 295.458,183.052 295.441,183.700 295.949 C 184.085 296.251,184.400 296.734,184.400 297.022 C 184.400 297.310,184.797 297.672,185.281 297.826 C 186.177 298.110,187.200 298.943,187.200 299.388 C 187.200 299.523,187.554 300.013,187.986 300.477 C 188.419 300.941,188.659 301.504,188.521 301.729 C 188.367 301.977,188.536 302.033,188.955 301.873 C 189.382 301.709,189.544 301.767,189.384 302.026 C 189.095 302.494,190.735 304.087,191.206 303.796 C 191.373 303.693,191.730 303.875,192.000 304.200 C 192.270 304.525,192.620 304.711,192.779 304.613 C 192.937 304.515,193.067 304.700,193.067 305.025 C 193.067 305.462,192.800 305.380,192.033 304.707 L 191.000 303.800 191.970 304.900 C 192.503 305.505,193.133 306.001,193.370 306.003 C 193.606 306.004,194.871 307.129,196.181 308.503 C 197.490 309.876,198.309 310.775,198.001 310.500 C 196.957 309.569,196.756 309.993,197.764 311.000 C 198.830 312.066,199.443 312.325,198.947 311.500 C 198.743 311.160,198.863 311.176,199.323 311.549 C 200.115 312.191,200.220 312.566,199.500 312.177 C 199.225 312.029,199.720 312.640,200.600 313.534 C 201.480 314.429,202.425 315.170,202.700 315.180 C 202.975 315.191,203.200 315.368,203.200 315.573 C 203.200 315.778,203.560 316.060,204.000 316.200 C 204.440 316.340,204.800 316.802,204.800 317.227 C 204.800 317.652,204.993 318.000,205.229 318.000 C 205.983 318.000,206.867 319.106,206.296 319.336 C 205.994 319.459,206.063 319.549,206.473 319.568 C 206.843 319.586,207.257 319.915,207.393 320.300 C 207.529 320.685,208.217 321.442,208.920 321.982 L 210.200 322.965 209.400 321.982 L 208.600 321.000 209.500 321.762 C 209.995 322.181,210.400 322.754,210.400 323.035 C 210.400 323.316,210.755 323.659,211.189 323.796 C 212.236 324.129,214.845 327.204,214.522 327.726 C 214.369 327.973,214.528 328.037,214.922 327.885 C 215.281 327.748,215.698 327.835,215.849 328.079 C 216.015 328.348,215.941 328.411,215.662 328.238 C 214.856 327.740,215.164 328.475,216.100 329.284 C 216.595 329.712,217.667 330.678,218.483 331.431 C 219.298 332.184,220.121 332.800,220.310 332.800 C 220.500 332.800,221.047 333.250,221.525 333.800 C 222.003 334.350,222.606 334.800,222.864 334.800 C 223.122 334.800,223.217 334.917,223.074 335.059 C 222.931 335.202,223.199 335.652,223.668 336.059 C 224.138 336.467,224.302 336.800,224.033 336.800 C 223.698 336.800,223.735 336.992,224.150 337.407 C 224.484 337.741,224.992 337.966,225.279 337.907 C 225.565 337.848,225.763 338.001,225.718 338.247 C 225.672 338.493,226.121 339.123,226.715 339.647 L 227.794 340.600 226.997 339.600 L 226.200 338.600 227.100 339.362 C 227.595 339.781,228.000 340.366,228.000 340.662 C 228.000 340.958,228.270 341.200,228.600 341.200 C 228.930 341.200,229.200 341.368,229.200 341.573 C 229.200 341.778,229.560 342.060,230.000 342.200 C 230.440 342.340,230.800 342.646,230.800 342.881 C 230.800 343.116,231.245 343.721,231.789 344.225 C 232.446 344.833,232.613 345.207,232.289 345.339 C 232.010 345.452,232.101 345.550,232.500 345.568 C 232.885 345.586,233.200 345.773,233.200 345.984 C 233.200 346.422,234.443 347.649,236.184 348.929 C 238.240 350.442,240.808 353.264,240.533 353.708 C 240.368 353.976,240.514 354.042,240.922 353.885 C 241.281 353.748,241.698 353.835,241.849 354.079 C 242.015 354.348,241.941 354.411,241.662 354.238 C 240.856 353.740,241.164 354.475,242.100 355.284 C 242.595 355.712,243.684 356.694,244.520 357.466 C 245.428 358.304,246.283 358.777,246.641 358.640 C 246.998 358.503,247.137 358.578,246.984 358.826 C 246.714 359.262,248.228 360.800,248.928 360.800 C 249.151 360.800,249.217 360.917,249.074 361.059 C 248.931 361.202,249.179 361.635,249.624 362.021 C 250.213 362.532,250.293 362.779,249.916 362.930 C 249.571 363.068,249.617 363.147,250.057 363.168 C 250.419 363.186,250.822 363.481,250.954 363.825 C 251.089 364.175,251.399 364.324,251.659 364.164 C 251.924 364.000,252.016 364.050,251.874 364.280 C 251.737 364.502,252.113 365.115,252.709 365.642 L 253.794 366.600 252.997 365.600 L 252.200 364.600 253.100 365.362 C 253.595 365.781,254.000 366.338,254.000 366.599 C 254.000 366.860,254.630 367.413,255.400 367.828 C 256.170 368.243,256.800 368.729,256.800 368.908 C 256.800 369.087,257.154 369.613,257.586 370.077 C 258.019 370.541,258.278 371.074,258.163 371.261 C 258.047 371.447,258.233 371.600,258.576 371.600 C 258.919 371.600,259.200 371.766,259.200 371.970 C 259.200 372.460,262.486 375.590,263.006 375.596 C 263.766 375.604,266.880 379.148,266.568 379.651 C 266.363 379.983,266.475 380.057,266.922 379.885 C 267.281 379.748,267.698 379.835,267.849 380.079 C 268.015 380.348,267.941 380.411,267.662 380.238 C 267.015 379.839,267.085 380.342,267.771 381.029 C 268.476 381.733,268.954 381.777,268.547 381.100 C 268.343 380.760,268.463 380.776,268.923 381.149 C 269.715 381.791,269.820 382.166,269.100 381.777 C 268.825 381.629,269.320 382.240,270.200 383.134 C 271.080 384.029,271.959 384.770,272.154 384.780 C 272.349 384.791,272.929 385.254,273.444 385.810 C 273.958 386.365,274.474 386.815,274.590 386.810 C 274.705 386.804,274.788 386.904,274.774 387.030 C 274.759 387.157,275.127 387.589,275.590 387.991 C 276.199 388.520,276.290 388.780,275.916 388.930 C 275.577 389.066,275.631 389.148,276.073 389.168 C 276.443 389.186,276.857 389.515,276.993 389.900 C 277.129 390.285,277.817 391.042,278.520 391.582 L 279.800 392.565 279.000 391.582 L 278.200 390.600 279.100 391.362 C 279.595 391.781,280.000 392.366,280.000 392.662 C 280.000 392.958,280.207 393.200,280.460 393.200 C 281.182 393.200,284.428 396.831,284.133 397.308 C 283.968 397.576,284.114 397.642,284.522 397.485 C 284.881 397.348,285.298 397.435,285.449 397.679 C 285.615 397.948,285.541 398.011,285.262 397.838 C 284.599 397.428,284.693 397.950,285.411 398.668 C 285.832 399.090,286.174 399.155,286.511 398.880 C 286.978 398.498,288.197 399.269,287.782 399.684 C 287.689 399.778,290.604 399.900,294.261 399.957 C 300.261 400.050,300.884 399.997,300.659 399.409 C 300.485 398.957,300.560 398.853,300.905 399.068 C 301.753 399.598,302.400 399.553,302.400 398.965 C 302.400 398.654,302.580 398.400,302.800 398.400 C 303.020 398.400,303.200 398.234,303.200 398.031 C 303.200 397.828,303.942 396.934,304.848 396.046 C 305.847 395.067,306.408 394.199,306.272 393.844 C 306.149 393.522,306.307 393.043,306.624 392.780 C 307.332 392.192,307.478 385.781,306.773 386.217 C 306.539 386.362,306.380 386.237,306.421 385.940 C 306.621 384.482,306.387 383.402,306.000 384.000 C 305.666 384.517,305.611 384.507,305.606 383.924 C 305.603 383.552,305.795 383.127,306.033 382.980 C 306.296 382.817,305.944 382.267,305.133 381.573 C 304.400 380.946,304.025 380.425,304.300 380.416 C 304.575 380.407,304.800 380.580,304.800 380.800 C 304.800 381.020,305.008 381.200,305.262 381.200 C 305.527 381.200,305.422 380.866,305.014 380.416 C 304.624 379.985,304.191 379.646,304.052 379.663 C 303.320 379.755,302.800 379.553,302.800 379.176 C 302.800 378.943,303.025 378.888,303.300 379.053 C 303.640 379.257,303.624 379.137,303.251 378.677 C 302.949 378.305,302.424 378.000,302.084 378.000 C 301.745 378.000,301.575 377.892,301.707 377.760 C 302.070 377.396,299.246 374.724,298.794 375.004 C 298.577 375.138,298.400 375.080,298.400 374.875 C 298.400 374.671,297.784 374.081,297.030 373.565 C 296.277 373.048,295.753 372.476,295.866 372.293 C 295.979 372.110,296.371 372.285,296.736 372.681 C 297.101 373.077,297.760 373.661,298.200 373.978 C 298.640 374.296,297.926 373.440,296.613 372.078 C 295.299 370.715,293.964 369.600,293.646 369.600 C 293.327 369.600,293.175 369.492,293.307 369.360 C 293.580 369.086,291.011 366.400,290.475 366.400 C 290.282 366.400,289.797 366.039,289.398 365.598 C 288.998 365.156,288.589 364.878,288.488 364.978 C 288.183 365.284,285.583 361.951,285.823 361.562 C 285.947 361.363,285.756 361.200,285.400 361.200 C 285.044 361.200,284.864 361.020,285.000 360.800 C 285.136 360.580,284.937 360.400,284.557 360.400 C 284.177 360.400,283.975 360.292,284.107 360.160 C 284.239 360.028,283.717 359.290,282.947 358.520 C 282.177 357.750,281.460 357.207,281.354 357.313 C 281.247 357.419,280.449 356.867,279.580 356.087 C 278.710 355.306,278.088 354.579,278.197 354.470 C 278.306 354.361,278.711 354.616,279.097 355.037 C 279.484 355.457,280.160 356.063,280.600 356.382 C 281.040 356.701,280.697 356.215,279.839 355.301 C 278.980 354.388,278.170 353.653,278.039 353.668 C 277.307 353.750,276.800 353.549,276.800 353.176 C 276.800 352.943,277.025 352.888,277.300 353.053 C 277.640 353.257,277.624 353.137,277.251 352.677 C 276.949 352.305,276.424 352.000,276.084 352.000 C 275.745 352.000,275.575 351.892,275.707 351.760 C 275.965 351.501,273.432 348.807,272.913 348.789 C 272.329 348.768,269.614 346.519,269.867 346.266 C 270.006 346.128,270.407 346.327,270.759 346.708 C 271.112 347.089,271.760 347.662,272.200 347.980 C 272.640 348.298,272.111 347.627,271.024 346.488 C 269.937 345.350,268.947 344.529,268.824 344.664 C 268.701 344.799,268.825 344.990,269.100 345.088 C 269.375 345.186,269.594 345.477,269.587 345.733 C 269.579 345.990,269.220 345.776,268.789 345.258 C 268.357 344.740,268.104 344.155,268.226 343.958 C 268.348 343.761,268.137 343.600,267.757 343.600 C 267.377 343.600,267.175 343.492,267.307 343.360 C 267.580 343.086,265.011 340.400,264.475 340.400 C 264.282 340.400,263.802 340.044,263.409 339.609 C 263.015 339.175,262.582 338.881,262.447 338.957 C 262.311 339.034,261.781 338.579,261.270 337.948 C 260.262 336.705,260.490 336.356,261.562 337.500 C 261.922 337.885,262.753 338.647,263.409 339.192 C 264.064 339.738,263.716 339.253,262.636 338.114 C 261.556 336.975,260.476 336.078,260.236 336.121 C 259.996 336.165,259.845 335.975,259.900 335.700 C 259.955 335.425,259.719 335.200,259.376 335.200 C 259.033 335.200,258.864 335.020,259.000 334.800 C 259.136 334.580,258.937 334.400,258.557 334.400 C 258.177 334.400,257.975 334.292,258.107 334.160 C 258.470 333.796,255.646 331.124,255.194 331.404 C 254.977 331.538,254.800 331.480,254.800 331.275 C 254.800 331.071,254.184 330.481,253.430 329.965 C 252.677 329.448,252.153 328.876,252.266 328.693 C 252.379 328.510,252.771 328.685,253.136 329.081 C 253.501 329.477,254.160 330.063,254.600 330.382 C 255.040 330.701,254.697 330.215,253.839 329.301 C 252.980 328.388,252.170 327.653,252.039 327.668 C 251.307 327.750,250.800 327.549,250.800 327.176 C 250.800 326.943,251.025 326.888,251.300 327.053 C 251.640 327.257,251.624 327.137,251.251 326.677 C 250.949 326.305,250.424 326.000,250.084 326.000 C 249.745 326.000,249.575 325.892,249.707 325.760 C 249.980 325.486,247.411 322.800,246.875 322.800 C 246.682 322.800,246.202 322.444,245.809 322.009 C 245.415 321.575,244.982 321.286,244.847 321.367 C 244.711 321.449,244.377 321.274,244.104 320.979 C 243.830 320.683,243.770 320.342,243.970 320.219 C 244.169 320.096,244.393 320.131,244.467 320.298 C 244.542 320.464,245.142 321.047,245.801 321.592 C 246.461 322.138,246.111 321.647,245.024 320.501 C 243.937 319.356,242.947 318.529,242.824 318.664 C 242.701 318.799,242.825 318.990,243.100 319.088 C 243.375 319.186,243.594 319.477,243.587 319.733 C 243.579 319.990,243.220 319.776,242.789 319.258 C 242.357 318.740,242.104 318.155,242.226 317.958 C 242.348 317.761,242.137 317.600,241.757 317.600 C 241.377 317.600,241.174 317.493,241.305 317.361 C 241.646 317.021,238.056 313.518,237.634 313.779 C 237.441 313.898,237.177 313.717,237.046 313.377 C 236.887 312.962,236.973 312.851,237.305 313.038 C 237.577 313.192,237.097 312.580,236.239 311.679 C 235.380 310.778,234.480 310.077,234.239 310.120 C 233.997 310.164,233.852 309.953,233.916 309.651 C 233.993 309.288,233.809 309.188,233.372 309.355 C 232.894 309.539,232.775 309.442,232.943 309.005 C 233.092 308.617,232.940 308.400,232.521 308.400 C 232.161 308.400,231.975 308.292,232.107 308.160 C 232.470 307.796,229.646 305.124,229.194 305.404 C 228.977 305.538,228.800 305.480,228.800 305.275 C 228.800 305.071,228.184 304.481,227.430 303.965 C 226.677 303.448,226.153 302.876,226.266 302.693 C 226.379 302.510,226.771 302.685,227.136 303.081 C 227.501 303.477,228.160 304.063,228.600 304.382 C 229.040 304.701,228.696 304.213,227.835 303.298 C 226.974 302.382,226.140 301.714,225.980 301.812 C 225.821 301.911,225.445 301.689,225.145 301.319 C 224.676 300.740,224.684 300.696,225.200 301.000 C 225.718 301.305,225.725 301.261,225.251 300.677 C 224.949 300.305,224.424 300.000,224.084 300.000 C 223.745 300.000,223.575 299.892,223.707 299.760 C 223.980 299.486,221.411 296.800,220.875 296.800 C 220.682 296.800,220.197 296.439,219.798 295.998 C 219.398 295.556,218.989 295.278,218.888 295.378 C 218.583 295.684,215.983 292.351,216.223 291.962 C 216.347 291.763,216.156 291.600,215.800 291.600 C 215.444 291.600,215.264 291.420,215.400 291.200 C 215.536 290.980,215.337 290.800,214.957 290.800 C 214.577 290.800,214.375 290.692,214.507 290.560 C 214.639 290.428,214.117 289.690,213.347 288.920 C 212.577 288.150,211.860 287.607,211.754 287.713 C 211.647 287.819,210.849 287.267,209.980 286.487 C 209.110 285.706,208.488 284.979,208.597 284.870 C 208.706 284.761,209.111 285.016,209.497 285.437 C 209.884 285.857,210.560 286.463,211.000 286.782 C 211.440 287.101,211.097 286.615,210.239 285.701 C 209.380 284.788,208.570 284.053,208.439 284.068 C 207.707 284.150,207.200 283.949,207.200 283.576 C 207.200 283.343,207.425 283.288,207.700 283.453 C 208.040 283.657,208.024 283.537,207.651 283.077 C 207.349 282.705,206.824 282.400,206.484 282.400 C 206.145 282.400,205.975 282.292,206.107 282.160 C 206.365 281.901,203.832 279.207,203.313 279.189 C 202.729 279.168,200.014 276.919,200.267 276.666 C 200.406 276.528,200.807 276.727,201.159 277.108 C 201.512 277.489,202.160 278.061,202.600 278.378 C 203.040 278.696,202.326 277.840,201.013 276.478 C 199.699 275.115,198.364 274.000,198.046 274.000 C 197.727 274.000,197.575 273.892,197.707 273.760 C 197.980 273.486,195.411 270.800,194.875 270.800 C 194.682 270.800,194.197 270.439,193.798 269.998 C 193.398 269.556,192.983 269.284,192.874 269.393 C 192.622 269.645,190.166 266.321,190.300 265.909 C 190.355 265.739,190.119 265.600,189.776 265.600 C 189.433 265.600,189.264 265.420,189.400 265.200 C 189.536 264.980,189.337 264.800,188.957 264.800 C 188.577 264.800,188.375 264.692,188.507 264.560 C 188.639 264.428,188.117 263.690,187.347 262.920 C 186.577 262.150,185.851 261.616,185.733 261.733 C 185.486 261.981,182.793 259.381,182.813 258.913 C 182.821 258.741,183.138 258.960,183.519 259.400 C 183.899 259.840,184.568 260.461,185.005 260.781 C 185.442 261.101,185.097 260.615,184.239 259.701 C 183.380 258.788,182.570 258.053,182.439 258.068 C 181.707 258.150,181.200 257.949,181.200 257.576 C 181.200 257.343,181.425 257.288,181.700 257.453 C 182.040 257.657,182.024 257.537,181.651 257.077 C 181.349 256.705,180.824 256.400,180.484 256.400 C 180.145 256.400,179.975 256.292,180.107 256.160 C 180.380 255.886,177.811 253.200,177.275 253.200 C 177.082 253.200,176.602 252.844,176.209 252.409 C 175.815 251.975,175.382 251.686,175.247 251.767 C 175.111 251.849,174.777 251.674,174.504 251.379 C 174.230 251.083,174.170 250.742,174.370 250.619 C 174.569 250.496,174.793 250.531,174.867 250.698 C 174.942 250.864,175.542 251.447,176.201 251.992 C 176.861 252.538,176.511 252.047,175.424 250.901 C 174.337 249.756,173.347 248.929,173.224 249.064 C 173.101 249.199,173.225 249.390,173.500 249.488 C 173.775 249.586,173.994 249.877,173.987 250.133 C 173.979 250.390,173.620 250.176,173.189 249.658 C 172.757 249.140,172.504 248.555,172.626 248.358 C 172.748 248.161,172.537 248.000,172.157 248.000 C 171.777 248.000,171.574 247.893,171.705 247.761 C 172.046 247.421,168.456 243.918,168.034 244.179 C 167.841 244.298,167.577 244.117,167.446 243.777 C 167.287 243.362,167.373 243.251,167.705 243.438 C 167.977 243.592,167.497 242.980,166.639 242.079 C 165.780 241.178,164.880 240.477,164.639 240.520 C 164.397 240.564,164.245 240.375,164.300 240.100 C 164.355 239.825,164.119 239.600,163.776 239.600 C 163.433 239.600,163.264 239.420,163.400 239.200 C 163.536 238.980,163.337 238.800,162.957 238.800 C 162.577 238.800,162.375 238.692,162.507 238.560 C 162.870 238.196,160.046 235.524,159.594 235.804 C 159.377 235.938,159.200 235.880,159.200 235.675 C 159.200 235.471,158.584 234.881,157.830 234.365 C 157.077 233.848,156.553 233.276,156.666 233.093 C 156.779 232.910,157.171 233.085,157.536 233.481 C 157.901 233.877,158.560 234.463,159.000 234.782 C 159.440 235.101,159.097 234.615,158.239 233.701 C 157.380 232.788,156.570 232.053,156.439 232.068 C 155.707 232.150,155.200 231.949,155.200 231.576 C 155.200 231.343,155.425 231.288,155.700 231.453 C 156.040 231.657,156.024 231.537,155.651 231.077 C 155.349 230.705,154.824 230.400,154.484 230.400 C 154.145 230.400,153.975 230.292,154.107 230.160 C 154.380 229.886,151.811 227.200,151.275 227.200 C 151.082 227.200,150.602 226.844,150.209 226.409 C 149.815 225.975,149.382 225.686,149.247 225.767 C 149.111 225.849,148.777 225.674,148.504 225.379 C 148.230 225.083,148.170 224.742,148.370 224.619 C 148.569 224.496,148.793 224.531,148.867 224.698 C 148.942 224.864,149.542 225.447,150.201 225.992 C 150.861 226.538,150.511 226.047,149.424 224.901 C 148.337 223.756,147.347 222.929,147.224 223.064 C 147.101 223.199,147.225 223.390,147.500 223.488 C 147.775 223.586,147.994 223.877,147.987 224.133 C 147.979 224.390,147.620 224.176,147.189 223.658 C 146.757 223.140,146.504 222.555,146.626 222.358 C 146.748 222.161,146.556 222.000,146.200 222.000 C 145.844 222.000,145.664 221.820,145.800 221.600 C 145.936 221.380,145.737 221.200,145.357 221.200 C 144.977 221.200,144.775 221.092,144.907 220.960 C 145.039 220.828,144.517 220.090,143.747 219.320 C 142.977 218.550,142.269 217.997,142.174 218.092 C 142.080 218.187,141.295 217.622,140.430 216.837 C 139.565 216.051,138.945 215.322,139.051 215.216 C 139.157 215.110,139.370 215.198,139.525 215.412 C 139.680 215.625,140.345 216.248,141.003 216.795 C 141.859 217.506,141.755 217.312,140.639 216.115 C 139.780 215.194,138.970 214.453,138.839 214.468 C 138.107 214.550,137.600 214.349,137.600 213.976 C 137.600 213.743,137.825 213.688,138.100 213.853 C 138.440 214.057,138.424 213.937,138.051 213.477 C 137.749 213.105,137.224 212.800,136.884 212.800 C 136.545 212.800,136.375 212.692,136.507 212.560 C 136.849 212.218,134.060 209.516,133.636 209.778 C 133.442 209.898,133.177 209.717,133.046 209.377 C 132.888 208.963,132.973 208.850,133.305 209.035 C 133.577 209.187,132.726 208.207,131.413 206.856 C 130.099 205.505,128.764 204.400,128.446 204.400 C 128.127 204.400,127.975 204.292,128.107 204.160 C 128.392 203.874,125.799 201.200,125.237 201.200 C 124.155 201.200,124.554 200.189,126.414 198.223 C 127.704 196.858,128.361 195.861,128.172 195.554 C 127.967 195.223,128.067 195.140,128.479 195.298 C 129.316 195.619,134.243 190.640,134.083 189.635 C 134.019 189.230,134.264 188.784,134.628 188.645 C 135.127 188.453,135.226 188.555,135.031 189.064 C 134.872 189.479,135.174 189.335,135.822 188.687 C 136.448 188.061,136.749 187.442,136.570 187.151 C 136.367 186.824,136.469 186.741,136.880 186.899 C 137.674 187.203,141.982 182.846,141.723 182.000 C 141.589 181.562,141.634 181.534,141.891 181.897 C 142.309 182.487,145.443 179.517,145.059 178.895 C 144.931 178.688,145.103 178.176,145.442 177.759 C 145.782 177.342,145.945 177.225,145.806 177.500 C 145.664 177.780,145.794 178.000,146.102 178.000 C 146.861 178.000,148.881 175.822,148.506 175.408 C 148.338 175.223,148.394 175.182,148.630 175.316 C 149.271 175.681,154.570 170.199,154.183 169.573 C 153.966 169.221,154.057 169.136,154.479 169.298 C 155.316 169.619,160.243 164.640,160.083 163.635 C 160.019 163.230,160.264 162.784,160.628 162.645 C 161.127 162.453,161.226 162.555,161.031 163.064 C 160.872 163.479,161.174 163.335,161.822 162.687 C 162.399 162.110,162.771 161.476,162.648 161.278 C 162.526 161.080,162.703 160.576,163.042 160.159 C 163.382 159.742,163.545 159.625,163.406 159.900 C 163.267 160.175,163.382 160.400,163.663 160.400 C 164.353 160.400,167.960 156.808,167.833 156.247 C 167.777 156.001,167.812 155.952,167.911 156.137 C 168.243 156.758,177.916 146.766,177.718 146.007 C 177.611 145.598,177.815 145.203,178.212 145.051 C 178.728 144.853,178.828 144.951,178.631 145.464 C 178.472 145.879,178.774 145.735,179.422 145.087 C 180.048 144.461,180.349 143.842,180.170 143.551 C 179.967 143.224,180.069 143.141,180.480 143.299 C 181.274 143.603,185.582 139.246,185.323 138.400 C 185.189 137.963,185.235 137.935,185.491 138.296 C 185.895 138.866,189.012 135.867,188.640 135.265 C 188.522 135.074,188.703 134.576,189.042 134.159 C 189.382 133.742,189.545 133.625,189.406 133.900 C 189.267 134.175,189.389 134.400,189.678 134.400 C 190.603 134.400,203.813 120.848,203.683 120.033 C 203.619 119.629,203.864 119.184,204.228 119.045 C 204.727 118.853,204.826 118.955,204.631 119.464 C 204.472 119.879,204.774 119.735,205.422 119.087 C 206.048 118.461,206.349 117.842,206.170 117.551 C 205.967 117.224,206.069 117.141,206.480 117.299 C 207.274 117.603,211.582 113.246,211.323 112.400 C 211.189 111.962,211.234 111.934,211.491 112.297 C 211.894 112.865,215.051 109.929,214.681 109.331 C 214.565 109.143,214.737 108.542,215.063 107.995 C 215.389 107.448,215.558 107.315,215.440 107.700 C 214.977 109.207,216.368 108.246,220.157 104.443 C 222.805 101.785,223.996 100.318,223.784 99.975 C 223.564 99.618,223.658 99.537,224.097 99.705 C 224.750 99.956,226.304 98.621,225.724 98.307 C 225.546 98.210,225.602 98.177,225.848 98.233 C 226.573 98.398,229.814 94.846,229.683 94.030 C 229.619 93.628,229.864 93.184,230.228 93.045 C 230.727 92.853,230.826 92.955,230.631 93.464 C 230.467 93.890,230.746 93.763,231.392 93.117 C 232.027 92.482,232.318 91.852,232.163 91.448 C 231.978 90.965,232.151 90.800,232.843 90.800 C 234.058 90.800,237.615 87.349,237.329 86.447 C 237.184 85.986,237.228 85.943,237.484 86.297 C 237.749 86.663,238.260 86.365,239.422 85.169 C 240.290 84.275,240.820 83.601,240.600 83.672 C 240.380 83.742,240.183 83.620,240.161 83.400 C 240.140 83.180,240.475 83.060,240.905 83.133 C 241.387 83.214,241.585 83.099,241.420 82.833 C 241.273 82.595,241.394 82.400,241.688 82.400 C 242.631 82.400,247.413 77.252,247.275 76.386 C 247.206 75.954,247.341 75.600,247.575 75.600 C 247.809 75.600,248.000 75.779,248.000 75.997 C 248.000 76.216,248.455 75.999,249.011 75.515 C 249.568 75.032,249.927 74.388,249.811 74.085 C 249.685 73.756,249.802 73.609,250.100 73.720 C 250.849 73.999,255.177 69.630,254.929 68.846 C 254.784 68.386,254.828 68.343,255.083 68.696 C 255.495 69.265,258.614 66.271,258.240 65.665 C 258.122 65.474,258.303 64.976,258.642 64.559 C 258.982 64.142,259.145 64.025,259.006 64.300 C 258.867 64.575,258.989 64.800,259.278 64.800 C 260.203 64.800,273.413 51.248,273.283 50.433 C 273.219 50.029,273.464 49.584,273.828 49.445 C 274.327 49.253,274.426 49.355,274.231 49.864 C 274.072 50.279,274.374 50.135,275.022 49.487 C 275.623 48.886,275.947 48.237,275.780 47.967 C 275.595 47.669,275.693 47.571,276.044 47.701 C 276.838 47.994,281.189 43.668,280.929 42.846 C 280.776 42.362,280.818 42.330,281.098 42.719 C 281.518 43.303,282.490 42.430,282.652 41.323 C 282.701 40.995,282.872 40.608,283.034 40.463 C 283.195 40.319,283.201 40.550,283.047 40.978 C 282.771 41.740,282.782 41.740,283.597 41.003 C 284.054 40.589,284.344 40.032,284.242 39.764 C 284.139 39.497,284.326 38.945,284.657 38.539 C 284.988 38.132,285.145 38.025,285.006 38.300 C 284.866 38.576,284.991 38.800,285.284 38.800 C 286.191 38.800,293.739 30.949,293.384 30.375 C 293.166 30.021,293.256 29.936,293.679 30.098 C 294.516 30.419,299.443 25.440,299.283 24.435 C 299.219 24.030,299.464 23.584,299.828 23.445 C 300.327 23.253,300.426 23.355,300.231 23.864 C 300.072 24.279,300.374 24.135,301.022 23.487 C 301.648 22.861,301.949 22.242,301.770 21.951 C 301.567 21.623,301.669 21.541,302.084 21.700 C 302.771 21.964,305.805 19.138,305.337 18.671 C 305.184 18.517,305.405 18.109,305.829 17.763 C 306.523 17.198,306.528 17.157,305.879 17.363 C 305.373 17.523,305.251 17.443,305.469 17.095 C 305.640 16.823,305.731 16.240,305.672 15.800 C 305.606 15.310,305.687 15.176,305.882 15.456 C 306.584 16.463,307.089 14.836,307.166 11.317 C 307.241 7.936,307.182 7.633,306.334 7.039 C 305.832 6.688,305.642 6.400,305.911 6.400 C 306.496 6.400,306.566 5.350,306.005 5.003 C 305.769 4.857,305.714 5.049,305.868 5.479 C 306.147 6.255,306.086 6.214,305.187 5.023 C 304.820 4.537,304.787 4.359,305.100 4.547 C 305.415 4.736,305.600 4.616,305.600 4.224 C 305.600 3.881,305.300 3.600,304.933 3.600 C 304.567 3.600,304.368 3.499,304.491 3.376 C 304.770 3.096,302.912 1.200,302.358 1.200 C 302.135 1.200,302.040 1.059,302.147 0.886 C 302.431 0.427,301.679 0.357,294.500 0.178 C 290.684 0.083,288.000 0.169,288.000 0.385 M132.538 208.877 C 132.332 209.241,130.505 207.487,130.694 207.106 C 130.775 206.944,131.257 207.214,131.767 207.706 C 132.277 208.198,132.624 208.724,132.538 208.877 M123.266 235.001 C 123.376 234.890,123.467 235.070,123.467 235.400 C 123.467 236.170,123.505 236.187,122.370 234.903 C 121.663 234.104,121.626 233.995,122.232 234.504 C 122.690 234.888,123.155 235.111,123.266 235.001 M166.215 242.178 C 166.753 242.717,167.060 243.233,166.897 243.326 C 166.733 243.420,166.181 242.979,165.670 242.348 C 164.532 240.945,164.875 240.838,166.215 242.178 M149.392 260.906 C 149.577 260.738,149.608 260.810,149.462 261.066 C 149.315 261.322,149.421 261.623,149.698 261.734 C 149.974 261.846,150.010 261.951,149.778 261.968 C 149.547 261.986,148.737 261.325,147.978 260.501 C 146.771 259.188,146.753 259.139,147.828 260.106 C 148.503 260.714,149.207 261.074,149.392 260.906 M191.251 267.098 C 191.919 267.948,192.296 268.314,193.818 269.592 C 194.468 270.138,194.107 269.643,193.015 268.492 C 191.058 266.430,190.180 265.735,191.251 267.098 M175.717 287.980 C 175.638 288.079,174.904 287.460,174.087 286.605 L 172.600 285.050 174.231 286.425 C 175.128 287.181,175.797 287.881,175.717 287.980 M216.800 292.618 C 216.800 292.864,218.070 294.114,219.823 295.592 C 220.471 296.138,220.107 295.643,219.015 294.492 C 217.034 292.405,216.800 292.206,216.800 292.618 M235.815 311.778 C 236.353 312.317,236.660 312.833,236.497 312.926 C 236.333 313.020,235.781 312.579,235.270 311.948 C 234.132 310.545,234.475 310.438,235.815 311.778 M245.317 357.580 C 245.238 357.679,244.504 357.060,243.687 356.205 L 242.200 354.650 243.831 356.025 C 244.728 356.781,245.397 357.481,245.317 357.580 M286.400 362.218 C 286.400 362.464,287.670 363.714,289.423 365.192 C 290.071 365.738,289.707 365.243,288.615 364.092 C 286.634 362.005,286.400 361.806,286.400 362.218 M262.466 374.201 C 262.576 374.090,262.667 374.270,262.667 374.600 C 262.667 375.370,262.705 375.387,261.570 374.103 C 260.863 373.304,260.826 373.195,261.432 373.704 C 261.890 374.088,262.355 374.311,262.466 374.201 " stroke="none" fill="#6cd4d4" fill-rule="evenodd"></path><path id="path1" d="M301.200 0.600 C 301.750 0.914,302.380 1.172,302.600 1.172 C 302.820 1.172,302.550 0.914,302.000 0.600 C 301.450 0.286,300.820 0.028,300.600 0.028 C 300.380 0.028,300.650 0.286,301.200 0.600 M285.268 1.727 C 284.791 2.236,284.400 2.879,284.400 3.156 C 284.400 3.434,284.872 3.100,285.450 2.414 C 286.684 0.947,286.534 0.380,285.268 1.727 M279.046 7.971 C 276.024 10.999,274.490 12.808,274.788 12.992 C 275.071 13.167,275.340 12.951,275.474 12.440 C 275.594 11.978,275.865 11.600,276.075 11.600 C 276.527 11.600,277.586 10.599,277.633 10.129 C 277.651 9.948,278.643 8.945,279.837 7.900 C 281.032 6.855,281.891 6.000,281.745 6.000 C 281.600 6.000,282.063 5.445,282.773 4.766 C 283.483 4.087,283.998 3.465,283.917 3.384 C 283.837 3.303,281.644 5.367,279.046 7.971 M271.400 15.600 C 270.541 16.480,270.009 17.197,270.219 17.193 C 270.583 17.186,271.586 16.200,272.753 14.700 C 273.694 13.491,273.025 13.936,271.400 15.600 M305.672 15.800 C 305.731 16.240,305.640 16.823,305.469 17.095 C 305.256 17.435,305.354 17.516,305.779 17.353 C 306.495 17.078,306.565 16.458,305.976 15.600 C 305.636 15.105,305.583 15.139,305.672 15.800 M267.400 19.600 C 266.999 20.043,266.762 20.495,266.872 20.605 C 266.982 20.715,267.399 20.443,267.800 20.000 C 268.201 19.557,268.438 19.105,268.328 18.995 C 268.218 18.885,267.801 19.157,267.400 19.600 M264.038 22.961 C 263.319 23.703,262.881 24.401,263.065 24.513 C 263.249 24.625,263.632 24.465,263.916 24.158 C 264.199 23.851,264.307 23.600,264.155 23.600 C 264.002 23.600,264.294 23.239,264.803 22.797 C 265.312 22.356,265.642 21.909,265.537 21.803 C 265.431 21.698,264.757 22.219,264.038 22.961 M299.700 23.488 C 299.425 23.586,299.200 23.960,299.200 24.319 C 299.200 24.913,299.261 24.911,299.876 24.295 C 300.599 23.572,300.517 23.196,299.700 23.488 M259.427 27.572 C 258.814 28.212,258.408 28.975,258.524 29.268 C 258.663 29.615,258.748 29.548,258.768 29.076 C 258.786 28.678,258.980 28.464,259.200 28.600 C 259.420 28.736,259.600 28.669,259.600 28.452 C 259.600 28.235,259.891 27.766,260.248 27.410 C 260.604 27.053,260.816 26.682,260.718 26.585 C 260.621 26.488,260.040 26.932,259.427 27.572 M256.838 30.159 C 256.177 30.863,256.070 31.196,256.432 31.420 C 256.736 31.608,256.821 31.558,256.655 31.289 C 256.507 31.050,256.784 30.577,257.269 30.237 C 257.755 29.897,258.058 29.525,257.944 29.411 C 257.830 29.297,257.332 29.633,256.838 30.159 M253.862 33.186 C 253.021 34.074,252.506 34.800,252.717 34.800 C 252.929 34.800,253.324 34.532,253.596 34.204 C 253.868 33.877,254.278 33.725,254.507 33.866 C 254.741 34.011,254.805 33.932,254.653 33.686 C 254.505 33.446,254.680 33.083,255.043 32.880 C 255.406 32.677,255.633 32.299,255.547 32.041 C 255.460 31.781,254.710 32.291,253.862 33.186 M250.002 36.998 C 248.634 38.409,247.859 40.147,249.032 39.173 C 249.344 38.914,249.600 38.454,249.600 38.151 C 249.600 37.848,249.825 37.594,250.100 37.587 C 250.654 37.574,252.240 35.600,251.697 35.600 C 251.510 35.600,250.747 36.229,250.002 36.998 M284.375 38.846 C 284.023 39.505,284.034 39.655,284.426 39.525 C 284.703 39.432,284.975 39.051,285.030 38.678 C 285.164 37.762,284.922 37.825,284.375 38.846 M245.269 41.760 C 243.911 43.166,242.800 44.456,242.800 44.625 C 242.800 44.794,243.973 43.706,245.408 42.207 C 246.842 40.708,247.952 39.419,247.876 39.343 C 247.800 39.266,246.626 40.354,245.269 41.760 M241.464 45.529 C 241.099 45.933,240.800 46.498,240.800 46.785 C 240.800 47.073,241.181 46.824,241.646 46.233 C 242.615 45.001,242.465 44.423,241.464 45.529 M237.589 49.411 C 234.954 52.069,234.623 52.941,237.061 50.800 C 237.813 50.140,238.313 49.600,238.172 49.600 C 238.031 49.600,238.499 49.055,239.213 48.388 C 239.926 47.722,240.430 47.097,240.333 46.999 C 240.235 46.902,239.000 47.987,237.589 49.411 M273.700 49.488 C 273.425 49.586,273.200 49.960,273.200 50.319 C 273.200 50.913,273.261 50.911,273.876 50.295 C 274.599 49.572,274.517 49.196,273.700 49.488 M232.237 54.762 C 230.782 56.233,230.088 57.207,230.370 57.382 C 230.617 57.534,230.770 57.493,230.710 57.289 C 230.649 57.085,231.579 55.995,232.775 54.868 C 233.972 53.740,234.862 52.728,234.753 52.619 C 234.643 52.510,233.512 53.475,232.237 54.762 M227.849 59.200 C 226.147 60.996,226.268 61.319,228.073 59.800 C 228.727 59.250,229.136 58.800,228.982 58.800 C 228.828 58.800,228.926 58.530,229.200 58.200 C 230.200 56.995,229.324 57.643,227.849 59.200 M223.590 63.410 C 222.516 64.554,222.066 65.975,223.032 65.173 C 223.344 64.914,223.600 64.519,223.600 64.295 C 223.600 64.071,223.915 63.658,224.299 63.377 C 224.684 63.096,224.895 62.761,224.768 62.634 C 224.640 62.507,224.111 62.856,223.590 63.410 M258.375 64.846 C 258.023 65.505,258.034 65.655,258.426 65.525 C 258.703 65.432,258.975 65.051,259.030 64.678 C 259.164 63.762,258.922 63.825,258.375 64.846 M219.590 67.410 C 218.401 68.614,217.550 69.600,217.700 69.600 C 217.850 69.600,218.649 68.925,219.476 68.100 C 220.302 67.275,221.131 66.649,221.319 66.710 C 221.506 66.770,221.555 66.651,221.427 66.444 C 221.300 66.237,221.421 65.988,221.698 65.889 C 221.974 65.790,222.099 65.599,221.977 65.465 C 221.854 65.330,220.780 66.205,219.590 67.410 M215.871 71.126 C 215.282 71.741,214.800 72.465,214.800 72.736 C 214.800 73.006,215.364 72.586,216.053 71.800 C 217.552 70.093,217.400 69.530,215.871 71.126 M209.045 77.970 C 205.508 81.511,204.074 83.199,204.421 83.413 C 204.720 83.598,204.823 83.561,204.675 83.322 C 204.429 82.924,206.103 81.200,206.735 81.200 C 206.917 81.200,207.297 80.795,207.580 80.300 C 207.863 79.805,209.066 78.545,210.252 77.500 C 211.439 76.455,212.291 75.600,212.145 75.600 C 212.000 75.600,212.463 75.045,213.173 74.366 C 213.883 73.687,214.399 73.065,214.318 72.985 C 214.238 72.904,211.865 75.148,209.045 77.970 M239.969 82.900 C 239.627 84.020,239.718 84.400,240.228 83.977 C 240.538 83.720,240.693 83.350,240.572 83.155 C 240.365 82.820,240.036 82.681,239.969 82.900 M201.800 85.200 C 200.941 86.080,200.409 86.797,200.619 86.793 C 200.983 86.786,201.986 85.800,203.153 84.300 C 204.094 83.091,203.425 83.536,201.800 85.200 M197.419 89.580 C 196.505 90.534,196.440 90.715,197.068 90.550 C 197.812 90.356,199.019 88.886,198.699 88.565 C 198.612 88.479,198.036 88.936,197.419 89.580 M193.590 93.410 C 192.401 94.614,191.603 95.600,191.817 95.600 C 192.032 95.600,192.437 95.233,192.717 94.784 C 192.997 94.336,193.428 94.094,193.675 94.246 C 193.948 94.415,194.012 94.343,193.838 94.062 C 193.665 93.781,193.823 93.600,194.243 93.600 C 194.623 93.600,194.817 93.483,194.674 93.341 C 194.531 93.198,194.800 92.747,195.271 92.338 C 195.743 91.929,196.044 91.511,195.941 91.407 C 195.838 91.304,194.780 92.205,193.590 93.410 M230.100 93.088 C 229.825 93.186,229.600 93.560,229.600 93.919 C 229.600 94.513,229.661 94.511,230.276 93.895 C 230.999 93.172,230.917 92.796,230.100 93.088 M188.948 98.192 C 188.617 99.053,188.886 99.243,189.496 98.581 C 189.811 98.239,189.847 97.952,189.593 97.796 C 189.374 97.660,189.083 97.838,188.948 98.192 M187.238 99.759 C 186.577 100.463,186.470 100.796,186.832 101.020 C 187.136 101.208,187.221 101.158,187.055 100.889 C 186.907 100.650,187.184 100.177,187.669 99.837 C 188.155 99.497,188.458 99.125,188.344 99.011 C 188.230 98.897,187.732 99.233,187.238 99.759 M184.241 102.808 C 183.411 103.684,182.892 104.400,183.088 104.400 C 183.572 104.400,186.195 101.662,185.947 101.414 C 185.839 101.305,185.071 101.933,184.241 102.808 M180.245 106.754 C 179.237 107.787,178.883 108.404,179.191 108.594 C 179.467 108.765,179.737 108.562,179.861 108.090 C 179.974 107.655,180.502 107.066,181.034 106.782 C 181.565 106.498,182.000 106.025,182.000 105.732 C 182.000 104.983,181.940 105.018,180.245 106.754 M214.856 108.236 C 214.495 109.030,214.494 109.235,214.856 109.115 C 215.115 109.028,215.387 108.562,215.461 108.079 C 215.638 106.915,215.434 106.969,214.856 108.236 M175.268 111.766 C 174.130 112.958,173.200 114.070,173.200 114.238 C 173.200 114.525,175.945 111.774,177.149 110.281 C 178.289 108.867,177.257 109.682,175.268 111.766 M171.800 115.200 C 171.399 115.643,171.162 116.095,171.272 116.205 C 171.382 116.315,171.799 116.043,172.200 115.600 C 172.601 115.157,172.838 114.705,172.728 114.595 C 172.618 114.485,172.201 114.757,171.800 115.200 M167.590 119.410 C 165.279 121.750,165.196 122.389,167.461 120.400 C 168.213 119.740,168.704 119.200,168.553 119.200 C 168.401 119.200,168.694 118.839,169.203 118.397 C 169.712 117.956,170.044 117.511,169.941 117.407 C 169.838 117.304,168.780 118.205,167.590 119.410 M204.100 119.088 C 203.825 119.186,203.600 119.560,203.600 119.919 C 203.600 120.513,203.661 120.511,204.276 119.895 C 204.999 119.172,204.917 118.796,204.100 119.088 M162.637 124.362 C 161.182 125.833,160.488 126.807,160.770 126.982 C 161.017 127.134,161.170 127.093,161.110 126.889 C 161.049 126.685,161.979 125.595,163.175 124.468 C 164.372 123.340,165.262 122.328,165.153 122.219 C 165.043 122.110,163.912 123.075,162.637 124.362 M158.249 128.800 C 156.547 130.596,156.668 130.919,158.473 129.400 C 159.127 128.850,159.536 128.400,159.382 128.400 C 159.228 128.400,159.326 128.130,159.600 127.800 C 160.600 126.595,159.724 127.243,158.249 128.800 M153.990 133.010 C 152.916 134.154,152.466 135.575,153.432 134.773 C 153.744 134.514,154.000 134.119,154.000 133.895 C 154.000 133.671,154.315 133.258,154.699 132.977 C 155.084 132.696,155.295 132.361,155.168 132.234 C 155.040 132.107,154.511 132.456,153.990 133.010 M188.775 134.446 C 188.423 135.105,188.434 135.255,188.826 135.125 C 189.103 135.032,189.375 134.651,189.430 134.278 C 189.564 133.362,189.322 133.425,188.775 134.446 M149.990 137.010 C 148.801 138.214,147.950 139.200,148.100 139.200 C 148.250 139.200,149.049 138.525,149.876 137.700 C 150.702 136.875,151.531 136.249,151.719 136.310 C 151.906 136.370,151.955 136.251,151.827 136.044 C 151.700 135.837,151.821 135.588,152.098 135.489 C 152.374 135.390,152.499 135.199,152.377 135.065 C 152.254 134.930,151.180 135.805,149.990 137.010 M145.864 141.129 C 145.499 141.533,145.200 142.098,145.200 142.385 C 145.200 142.673,145.581 142.424,146.046 141.833 C 147.015 140.601,146.865 140.023,145.864 141.129 M142.058 144.972 C 140.694 146.384,139.718 147.605,139.889 147.685 C 140.060 147.765,140.770 147.239,141.466 146.515 C 142.162 145.792,142.659 145.200,142.570 145.200 C 142.481 145.200,142.708 144.849,143.075 144.420 C 143.442 143.992,143.918 143.750,144.133 143.882 C 144.348 144.015,144.405 143.931,144.259 143.696 C 144.114 143.461,144.221 143.188,144.498 143.089 C 144.774 142.990,144.896 142.796,144.769 142.657 C 144.641 142.518,143.421 143.559,142.058 144.972 M178.100 145.088 C 177.825 145.186,177.600 145.560,177.600 145.919 C 177.600 146.513,177.661 146.511,178.276 145.895 C 178.999 145.172,178.917 144.796,178.100 145.088 M136.637 150.362 C 135.006 152.011,134.469 152.795,134.822 153.014 C 135.128 153.202,135.223 153.161,135.066 152.907 C 134.768 152.424,135.744 151.478,136.137 151.870 C 136.282 152.015,136.400 151.864,136.400 151.534 C 136.400 151.205,136.850 150.694,137.400 150.400 C 137.950 150.106,138.400 149.640,138.400 149.366 C 138.400 149.091,138.625 148.786,138.900 148.688 C 139.175 148.590,139.300 148.400,139.177 148.265 C 139.055 148.131,137.912 149.075,136.637 150.362 M132.249 154.800 C 131.415 155.680,130.896 156.400,131.097 156.400 C 131.444 156.400,132.430 155.403,133.568 153.900 C 134.488 152.685,133.823 153.139,132.249 154.800 M127.860 159.138 C 127.087 159.945,126.952 160.267,127.389 160.267 C 127.725 160.267,128.000 160.092,128.000 159.877 C 128.000 159.663,128.315 159.258,128.699 158.977 C 129.084 158.696,129.296 158.363,129.170 158.237 C 129.045 158.111,128.455 158.516,127.860 159.138 M162.775 160.446 C 162.423 161.105,162.434 161.255,162.826 161.125 C 163.103 161.032,163.375 160.651,163.430 160.278 C 163.564 159.362,163.322 159.425,162.775 160.446 M123.990 163.010 C 122.801 164.214,122.003 165.200,122.217 165.200 C 122.432 165.200,122.829 164.845,123.100 164.411 C 123.410 163.914,123.853 163.706,124.296 163.849 C 124.889 164.040,124.906 164.008,124.400 163.644 C 123.889 163.276,123.914 163.211,124.567 163.206 C 124.988 163.203,125.217 163.083,125.074 162.941 C 124.931 162.798,125.200 162.347,125.671 161.938 C 126.143 161.529,126.444 161.111,126.341 161.007 C 126.238 160.904,125.180 161.805,123.990 163.010 M160.500 162.688 C 160.225 162.786,160.000 163.160,160.000 163.519 C 160.000 164.113,160.061 164.111,160.676 163.495 C 161.399 162.772,161.317 162.396,160.500 162.688 M120.271 166.726 C 119.682 167.341,119.200 168.065,119.200 168.336 C 119.200 168.606,119.764 168.186,120.453 167.400 C 121.952 165.693,121.800 165.130,120.271 166.726 M117.638 169.359 C 116.977 170.063,116.870 170.396,117.232 170.620 C 117.536 170.808,117.621 170.758,117.455 170.489 C 117.307 170.250,117.584 169.777,118.069 169.437 C 118.555 169.097,118.858 168.725,118.744 168.611 C 118.630 168.497,118.132 168.833,117.638 169.359 M114.641 172.408 C 113.811 173.284,113.292 174.000,113.488 174.000 C 113.972 174.000,116.595 171.262,116.347 171.014 C 116.239 170.905,115.471 171.533,114.641 172.408 M110.659 176.340 C 109.642 177.381,109.283 178.004,109.591 178.194 C 109.870 178.367,110.141 178.148,110.274 177.640 C 110.394 177.178,110.665 176.800,110.875 176.800 C 111.451 176.800,112.483 175.650,112.327 175.182 C 112.252 174.956,111.501 175.477,110.659 176.340 M145.175 178.046 C 144.823 178.705,144.834 178.855,145.226 178.725 C 145.503 178.632,145.775 178.251,145.830 177.878 C 145.964 176.962,145.722 177.025,145.175 178.046 M106.576 180.426 C 105.887 181.145,105.680 181.544,106.077 181.392 C 106.650 181.172,108.276 179.200,107.884 179.200 C 107.810 179.200,107.221 179.752,106.576 180.426 M102.200 184.800 C 101.799 185.243,101.562 185.695,101.672 185.805 C 101.782 185.915,102.199 185.643,102.600 185.200 C 103.001 184.757,103.238 184.305,103.128 184.195 C 103.018 184.085,102.601 184.357,102.200 184.800 M98.838 188.161 C 98.119 188.903,97.681 189.601,97.865 189.713 C 98.049 189.825,98.432 189.665,98.716 189.358 C 98.999 189.051,99.107 188.800,98.955 188.800 C 98.802 188.800,99.094 188.439,99.603 187.997 C 100.112 187.556,100.442 187.109,100.337 187.003 C 100.231 186.898,99.557 187.419,98.838 188.161 M134.500 188.688 C 134.225 188.786,134.000 189.160,134.000 189.519 C 134.000 190.113,134.061 190.111,134.676 189.495 C 135.399 188.772,135.317 188.396,134.500 188.688 M94.232 205.949 C 94.078 206.197,94.143 206.400,94.376 206.400 C 94.609 206.400,94.814 206.715,94.832 207.100 C 94.849 207.492,94.950 207.587,95.060 207.315 C 95.343 206.618,94.588 205.373,94.232 205.949 M130.684 207.122 C 130.610 207.275,130.965 207.799,131.474 208.286 C 131.983 208.773,132.406 209.043,132.413 208.886 C 132.420 208.729,132.690 208.949,133.013 209.376 C 133.336 209.804,133.600 209.982,133.600 209.774 C 133.600 209.264,130.857 206.769,130.684 207.122 M97.484 210.200 C 99.869 213.013,101.605 214.692,101.588 214.170 C 101.582 213.966,100.198 212.450,98.513 210.800 C 95.494 207.844,95.479 207.836,97.484 210.200 M140.224 216.700 C 141.091 217.525,141.885 218.145,141.988 218.079 C 142.228 217.924,139.355 215.200,138.951 215.200 C 138.785 215.200,139.358 215.875,140.224 216.700 M108.600 221.600 C 109.683 222.700,110.739 223.600,110.946 223.600 C 111.153 223.600,110.923 223.254,110.435 222.830 C 109.947 222.407,109.559 221.957,109.574 221.830 C 109.588 221.704,109.543 221.645,109.474 221.700 C 109.404 221.755,108.888 221.305,108.328 220.700 C 107.767 220.095,107.156 219.600,106.969 219.600 C 106.783 219.600,107.517 220.500,108.600 221.600 M146.753 223.078 C 147.001 223.560,147.383 224.066,147.602 224.201 C 148.287 224.625,148.037 224.005,147.151 223.083 L 146.301 222.200 146.753 223.078 M148.261 224.708 C 148.164 224.868,148.335 225.232,148.642 225.516 C 148.949 225.799,149.200 225.903,149.200 225.746 C 149.200 225.589,149.650 225.883,150.200 226.400 C 150.750 226.917,151.200 227.247,151.200 227.134 C 151.200 226.713,148.431 224.427,148.261 224.708 M116.985 229.978 C 119.158 232.192,119.461 232.406,118.707 231.200 C 118.432 230.760,118.071 230.400,117.904 230.400 C 117.737 230.400,117.600 230.207,117.600 229.971 C 117.600 229.401,116.786 228.625,115.800 228.256 C 115.340 228.083,115.843 228.815,116.985 229.978 M156.587 233.222 C 156.458 233.430,156.503 233.600,156.687 233.600 C 156.871 233.600,157.602 234.130,158.311 234.777 C 159.020 235.425,159.600 235.829,159.600 235.675 C 159.600 235.119,156.815 232.852,156.587 233.222 M122.370 234.903 C 123.505 236.187,123.467 236.170,123.467 235.400 C 123.467 235.070,123.376 234.890,123.266 235.001 C 123.155 235.111,122.690 234.888,122.232 234.504 C 121.626 233.995,121.663 234.104,122.370 234.903 M124.107 236.325 C 123.764 236.544,124.341 237.358,126.007 239.007 C 128.897 241.866,129.177 241.695,126.427 238.750 C 125.341 237.588,124.542 236.494,124.650 236.319 C 124.896 235.921,124.741 235.923,124.107 236.325 M165.670 242.348 C 166.181 242.979,166.724 243.426,166.875 243.340 C 167.027 243.254,167.336 243.502,167.563 243.892 C 167.790 244.281,167.981 244.419,167.988 244.197 C 168.000 243.798,165.372 241.200,164.956 241.200 C 164.837 241.200,165.158 241.717,165.670 242.348 M134.600 247.600 C 135.683 248.700,136.721 249.600,136.906 249.600 C 137.090 249.600,136.782 249.174,136.221 248.654 C 135.659 248.134,135.200 247.516,135.200 247.281 C 135.200 247.046,134.840 246.740,134.400 246.600 C 133.960 246.460,133.600 246.178,133.600 245.973 C 133.600 245.768,133.382 245.600,133.115 245.600 C 132.848 245.600,133.517 246.500,134.600 247.600 M172.753 249.078 C 173.001 249.560,173.383 250.066,173.602 250.201 C 174.287 250.625,174.037 250.005,173.151 249.083 L 172.301 248.200 172.753 249.078 M174.261 250.708 C 174.164 250.868,174.335 251.232,174.642 251.516 C 174.949 251.799,175.200 251.903,175.200 251.746 C 175.200 251.589,175.650 251.883,176.200 252.400 C 176.750 252.917,177.200 253.247,177.200 253.134 C 177.200 252.713,174.431 250.427,174.261 250.708 M142.985 255.953 C 144.987 258.018,145.745 258.590,144.768 257.300 C 143.585 255.738,142.558 254.705,141.800 254.316 C 141.360 254.090,141.893 254.827,142.985 255.953 M182.800 258.957 C 182.800 259.105,183.430 259.857,184.200 260.627 C 184.970 261.397,185.598 261.886,185.596 261.713 C 185.593 261.541,184.963 260.790,184.196 260.044 C 183.428 259.298,182.800 258.809,182.800 258.957 M147.978 260.501 C 148.737 261.325,149.547 261.986,149.778 261.968 C 150.010 261.951,149.974 261.846,149.698 261.734 C 149.421 261.623,149.315 261.322,149.462 261.066 C 149.608 260.810,149.577 260.738,149.392 260.906 C 149.207 261.074,148.503 260.714,147.828 260.106 C 146.753 259.139,146.771 259.188,147.978 260.501 M152.200 265.200 C 153.283 266.300,154.339 267.200,154.546 267.200 C 154.753 267.200,154.538 266.867,154.068 266.459 C 153.599 266.052,153.331 265.602,153.474 265.459 C 153.617 265.317,153.522 265.200,153.264 265.200 C 153.006 265.200,152.403 264.750,151.925 264.200 C 151.447 263.650,150.870 263.200,150.643 263.200 C 150.416 263.200,151.117 264.100,152.200 265.200 M191.228 267.656 C 191.983 268.677,192.677 269.440,192.770 269.352 C 192.864 269.265,193.359 269.586,193.870 270.066 C 195.894 271.967,194.639 270.454,192.323 268.200 C 189.873 265.816,189.866 265.812,191.228 267.656 M160.600 273.600 C 162.760 275.793,163.058 276.003,162.307 274.800 C 162.032 274.360,161.671 274.000,161.504 274.000 C 161.337 274.000,161.200 273.742,161.200 273.427 C 161.200 273.112,160.840 272.740,160.400 272.600 C 159.960 272.460,159.600 272.178,159.600 271.973 C 159.600 271.768,159.382 271.600,159.115 271.600 C 158.848 271.600,159.517 272.500,160.600 273.600 M200.262 276.699 C 200.158 276.867,200.822 277.514,201.737 278.136 C 202.652 278.759,203.040 278.936,202.600 278.530 C 202.160 278.125,201.496 277.478,201.126 277.093 C 200.755 276.709,200.366 276.531,200.262 276.699 M168.976 281.943 C 170.063 283.064,171.035 283.898,171.137 283.796 C 171.386 283.548,168.808 280.873,167.800 280.333 C 167.360 280.098,167.889 280.823,168.976 281.943 M209.800 286.331 C 210.680 287.167,211.479 287.791,211.575 287.717 C 211.799 287.546,208.896 284.798,208.499 284.806 C 208.335 284.809,208.920 285.495,209.800 286.331 M174.087 286.605 C 174.904 287.460,175.638 288.079,175.717 287.980 C 175.797 287.881,175.128 287.181,174.231 286.425 L 172.600 285.050 174.087 286.605 M178.200 291.200 C 179.283 292.300,180.339 293.200,180.546 293.200 C 180.753 293.200,180.523 292.854,180.035 292.430 C 179.547 292.007,179.159 291.557,179.174 291.430 C 179.188 291.304,179.143 291.245,179.074 291.300 C 179.004 291.355,178.488 290.905,177.928 290.300 C 177.367 289.695,176.756 289.200,176.569 289.200 C 176.383 289.200,177.117 290.100,178.200 291.200 M216.000 292.103 C 216.000 292.225,216.630 293.078,217.400 294.000 C 218.170 294.922,218.800 295.537,218.800 295.368 C 218.800 295.199,219.214 295.407,219.719 295.830 C 220.234 296.262,220.173 296.143,219.580 295.560 C 218.998 294.988,217.954 293.926,217.261 293.201 C 216.567 292.475,216.000 291.981,216.000 292.103 M186.585 299.578 C 188.758 301.792,189.061 302.006,188.307 300.800 C 188.032 300.360,187.671 300.000,187.504 300.000 C 187.337 300.000,187.200 299.807,187.200 299.571 C 187.200 299.001,186.386 298.225,185.400 297.856 C 184.940 297.683,185.443 298.415,186.585 299.578 M226.187 302.822 C 226.058 303.030,226.103 303.200,226.287 303.200 C 226.471 303.200,227.202 303.730,227.911 304.377 C 228.620 305.025,229.200 305.429,229.200 305.275 C 229.200 304.719,226.415 302.452,226.187 302.822 M191.970 304.503 C 193.105 305.787,193.067 305.770,193.067 305.000 C 193.067 304.670,192.976 304.490,192.866 304.601 C 192.755 304.711,192.290 304.488,191.832 304.104 C 191.226 303.595,191.263 303.704,191.970 304.503 M194.619 307.634 C 195.488 308.532,196.740 309.649,197.400 310.115 C 198.060 310.582,197.520 309.848,196.200 308.484 C 194.880 307.121,193.628 306.004,193.419 306.003 C 193.209 306.001,193.749 306.735,194.619 307.634 M235.270 311.948 C 235.781 312.579,236.324 313.026,236.475 312.940 C 236.627 312.854,236.936 313.102,237.163 313.492 C 237.390 313.881,237.581 314.019,237.588 313.797 C 237.600 313.398,234.972 310.800,234.556 310.800 C 234.437 310.800,234.758 311.317,235.270 311.948 M203.419 316.419 C 204.163 317.196,204.647 317.458,204.754 317.139 C 204.845 316.865,204.710 316.570,204.453 316.484 C 204.196 316.399,203.732 316.075,203.421 315.764 C 202.288 314.631,202.285 315.236,203.419 316.419 M242.353 318.678 C 242.601 319.160,242.983 319.666,243.202 319.801 C 243.887 320.225,243.637 319.605,242.751 318.683 L 241.901 317.800 242.353 318.678 M243.861 320.308 C 243.764 320.468,243.935 320.832,244.242 321.116 C 244.549 321.399,244.800 321.503,244.800 321.346 C 244.800 321.189,245.250 321.483,245.800 322.000 C 246.350 322.517,246.800 322.847,246.800 322.734 C 246.800 322.313,244.031 320.027,243.861 320.308 M212.585 325.553 C 214.587 327.618,215.345 328.190,214.368 326.900 C 213.185 325.338,212.158 324.305,211.400 323.916 C 210.960 323.690,211.493 324.427,212.585 325.553 M252.187 328.822 C 252.058 329.030,252.103 329.200,252.287 329.200 C 252.471 329.200,253.202 329.730,253.911 330.377 C 254.620 331.025,255.200 331.429,255.200 331.275 C 255.200 330.719,252.415 328.452,252.187 328.822 M221.800 334.800 C 222.883 335.900,223.939 336.800,224.146 336.800 C 224.353 336.800,224.138 336.467,223.668 336.059 C 223.199 335.652,222.931 335.202,223.074 335.059 C 223.217 334.917,223.122 334.800,222.864 334.800 C 222.606 334.800,222.003 334.350,221.525 333.800 C 221.047 333.250,220.470 332.800,220.243 332.800 C 220.016 332.800,220.717 333.700,221.800 334.800 M261.270 337.947 C 261.781 338.578,262.277 339.027,262.370 338.944 C 262.464 338.861,263.004 339.190,263.570 339.675 C 264.137 340.161,263.746 339.712,262.701 338.679 C 260.574 336.573,259.859 336.208,261.270 337.947 M230.200 343.200 C 231.283 344.300,232.321 345.200,232.506 345.200 C 232.690 345.200,232.382 344.774,231.821 344.254 C 231.259 343.734,230.800 343.116,230.800 342.881 C 230.800 342.646,230.440 342.340,230.000 342.200 C 229.560 342.060,229.200 341.778,229.200 341.573 C 229.200 341.368,228.982 341.200,228.715 341.200 C 228.448 341.200,229.117 342.100,230.200 343.200 M268.353 344.678 C 268.601 345.160,268.983 345.666,269.202 345.801 C 269.887 346.225,269.637 345.605,268.751 344.683 L 267.901 343.800 268.353 344.678 M269.862 346.299 C 269.758 346.467,270.422 347.114,271.337 347.736 C 272.252 348.359,272.640 348.536,272.200 348.130 C 271.760 347.725,271.096 347.078,270.726 346.693 C 270.355 346.309,269.966 346.131,269.862 346.299 M238.585 351.553 C 240.548 353.578,241.412 354.243,240.349 352.913 C 238.796 350.968,238.129 350.290,237.400 349.916 C 236.960 349.690,237.493 350.427,238.585 351.553 M279.400 355.931 C 280.280 356.767,281.079 357.391,281.175 357.317 C 281.399 357.146,278.496 354.398,278.099 354.406 C 277.935 354.409,278.520 355.095,279.400 355.931 M243.687 356.205 C 244.504 357.060,245.238 357.679,245.317 357.580 C 245.397 357.481,244.728 356.781,243.831 356.025 L 242.200 354.650 243.687 356.205 M246.461 358.678 C 245.901 358.901,249.387 362.800,250.146 362.800 C 250.353 362.800,250.138 362.467,249.668 362.059 C 249.199 361.652,248.931 361.202,249.074 361.059 C 249.217 360.917,249.151 360.800,248.928 360.800 C 248.224 360.800,246.715 359.261,246.987 358.821 C 247.270 358.364,247.258 358.361,246.461 358.678 M285.600 361.703 C 285.600 361.825,286.230 362.678,287.000 363.600 C 287.770 364.522,288.400 365.137,288.400 364.968 C 288.400 364.799,288.814 365.007,289.319 365.430 C 289.834 365.862,289.773 365.743,289.180 365.160 C 288.598 364.588,287.554 363.526,286.861 362.801 C 286.167 362.075,285.600 361.581,285.600 361.703 M256.185 369.171 C 258.356 371.391,258.662 371.609,257.907 370.400 C 257.632 369.960,257.271 369.600,257.104 369.600 C 256.937 369.600,256.799 369.375,256.797 369.100 C 256.796 368.825,256.211 368.272,255.497 367.871 C 254.348 367.224,254.426 367.372,256.185 369.171 M295.787 372.422 C 295.658 372.630,295.703 372.800,295.887 372.800 C 296.071 372.800,296.802 373.330,297.511 373.977 C 298.220 374.625,298.800 375.029,298.800 374.875 C 298.800 374.319,296.015 372.052,295.787 372.422 M261.570 374.103 C 262.705 375.387,262.667 375.370,262.667 374.600 C 262.667 374.270,262.576 374.090,262.466 374.201 C 262.355 374.311,261.890 374.088,261.432 373.704 C 260.826 373.195,260.863 373.304,261.570 374.103 M264.591 377.591 C 265.669 378.686,266.634 379.499,266.734 379.399 C 266.982 379.151,263.512 375.600,263.021 375.600 C 262.806 375.600,263.512 376.496,264.591 377.591 M304.602 381.202 C 305.002 381.644,305.411 381.922,305.512 381.821 C 305.728 381.605,304.588 380.400,304.167 380.400 C 304.007 380.400,304.203 380.761,304.602 381.202 M305.458 382.651 C 305.709 382.754,305.832 383.235,305.730 383.719 C 305.565 384.503,305.595 384.522,305.994 383.897 C 306.487 383.125,306.224 382.382,305.476 382.432 C 305.132 382.454,305.127 382.515,305.458 382.651 M273.800 386.800 C 274.883 387.900,275.939 388.800,276.146 388.800 C 276.353 388.800,276.123 388.454,275.635 388.030 C 275.147 387.607,274.759 387.157,274.774 387.030 C 274.788 386.904,274.743 386.845,274.674 386.900 C 274.604 386.955,274.088 386.505,273.528 385.900 C 272.967 385.295,272.356 384.800,272.169 384.800 C 271.983 384.800,272.717 385.700,273.800 386.800 M282.185 395.153 C 284.148 397.178,285.012 397.843,283.949 396.513 C 282.396 394.568,281.729 393.890,281.000 393.516 C 280.560 393.290,281.093 394.027,282.185 395.153 M304.300 396.615 C 303.695 397.136,303.200 397.750,303.200 397.981 C 303.200 398.211,303.020 398.400,302.800 398.400 C 302.580 398.400,302.400 398.622,302.400 398.894 C 302.400 399.166,303.156 398.632,304.080 397.708 C 305.913 395.875,306.071 395.091,304.300 396.615 M286.257 399.005 C 286.383 399.332,286.722 399.600,287.010 399.600 C 287.299 399.600,287.864 399.704,288.267 399.830 C 288.881 400.023,288.870 399.980,288.200 399.564 C 287.760 399.292,287.310 398.963,287.200 398.834 C 286.754 398.312,286.041 398.442,286.257 399.005 " stroke="none" fill="#70d4d4" fill-rule="evenodd"></path><path id="path2" d="M301.200 0.600 C 301.750 0.914,302.380 1.172,302.600 1.172 C 302.820 1.172,302.550 0.914,302.000 0.600 C 301.450 0.286,300.820 0.028,300.600 0.028 C 300.380 0.028,300.650 0.286,301.200 0.600 M285.268 1.727 C 284.791 2.236,284.400 2.879,284.400 3.156 C 284.400 3.434,284.872 3.100,285.450 2.414 C 286.684 0.947,286.534 0.380,285.268 1.727 M279.046 7.971 C 276.024 10.999,274.490 12.808,274.788 12.992 C 275.071 13.167,275.340 12.951,275.474 12.440 C 275.594 11.978,275.865 11.600,276.075 11.600 C 276.527 11.600,277.586 10.599,277.633 10.129 C 277.651 9.948,278.643 8.945,279.837 7.900 C 281.032 6.855,281.891 6.000,281.745 6.000 C 281.600 6.000,282.063 5.445,282.773 4.766 C 283.483 4.087,283.998 3.465,283.917 3.384 C 283.837 3.303,281.644 5.367,279.046 7.971 M271.400 15.600 C 270.541 16.480,270.009 17.197,270.219 17.193 C 270.583 17.186,271.586 16.200,272.753 14.700 C 273.694 13.491,273.025 13.936,271.400 15.600 M305.672 15.800 C 305.731 16.240,305.640 16.823,305.469 17.095 C 305.256 17.435,305.354 17.516,305.779 17.353 C 306.495 17.078,306.565 16.458,305.976 15.600 C 305.636 15.105,305.583 15.139,305.672 15.800 M267.400 19.600 C 266.999 20.043,266.762 20.495,266.872 20.605 C 266.982 20.715,267.399 20.443,267.800 20.000 C 268.201 19.557,268.438 19.105,268.328 18.995 C 268.218 18.885,267.801 19.157,267.400 19.600 M264.038 22.961 C 263.319 23.703,262.881 24.401,263.065 24.513 C 263.249 24.625,263.632 24.465,263.916 24.158 C 264.199 23.851,264.307 23.600,264.155 23.600 C 264.002 23.600,264.294 23.239,264.803 22.797 C 265.312 22.356,265.642 21.909,265.537 21.803 C 265.431 21.698,264.757 22.219,264.038 22.961 M299.700 23.488 C 299.425 23.586,299.200 23.960,299.200 24.319 C 299.200 24.913,299.261 24.911,299.876 24.295 C 300.599 23.572,300.517 23.196,299.700 23.488 M259.427 27.572 C 258.814 28.212,258.408 28.975,258.524 29.268 C 258.663 29.615,258.748 29.548,258.768 29.076 C 258.786 28.678,258.980 28.464,259.200 28.600 C 259.420 28.736,259.600 28.669,259.600 28.452 C 259.600 28.235,259.891 27.766,260.248 27.410 C 260.604 27.053,260.816 26.682,260.718 26.585 C 260.621 26.488,260.040 26.932,259.427 27.572 M256.838 30.159 C 256.177 30.863,256.070 31.196,256.432 31.420 C 256.736 31.608,256.821 31.558,256.655 31.289 C 256.507 31.050,256.784 30.577,257.269 30.237 C 257.755 29.897,258.058 29.525,257.944 29.411 C 257.830 29.297,257.332 29.633,256.838 30.159 M253.862 33.186 C 253.021 34.074,252.506 34.800,252.717 34.800 C 252.929 34.800,253.324 34.532,253.596 34.204 C 253.868 33.877,254.278 33.725,254.507 33.866 C 254.741 34.011,254.805 33.932,254.653 33.686 C 254.505 33.446,254.680 33.083,255.043 32.880 C 255.406 32.677,255.633 32.299,255.547 32.041 C 255.460 31.781,254.710 32.291,253.862 33.186 M250.002 36.998 C 248.634 38.409,247.859 40.147,249.032 39.173 C 249.344 38.914,249.600 38.454,249.600 38.151 C 249.600 37.848,249.825 37.594,250.100 37.587 C 250.654 37.574,252.240 35.600,251.697 35.600 C 251.510 35.600,250.747 36.229,250.002 36.998 M284.375 38.846 C 284.023 39.505,284.034 39.655,284.426 39.525 C 284.703 39.432,284.975 39.051,285.030 38.678 C 285.164 37.762,284.922 37.825,284.375 38.846 M245.269 41.760 C 243.911 43.166,242.800 44.456,242.800 44.625 C 242.800 44.794,243.973 43.706,245.408 42.207 C 246.842 40.708,247.952 39.419,247.876 39.343 C 247.800 39.266,246.626 40.354,245.269 41.760 M241.464 45.529 C 241.099 45.933,240.800 46.498,240.800 46.785 C 240.800 47.073,241.181 46.824,241.646 46.233 C 242.615 45.001,242.465 44.423,241.464 45.529 M237.589 49.411 C 234.954 52.069,234.623 52.941,237.061 50.800 C 237.813 50.140,238.313 49.600,238.172 49.600 C 238.031 49.600,238.499 49.055,239.213 48.388 C 239.926 47.722,240.430 47.097,240.333 46.999 C 240.235 46.902,239.000 47.987,237.589 49.411 M273.700 49.488 C 273.425 49.586,273.200 49.960,273.200 50.319 C 273.200 50.913,273.261 50.911,273.876 50.295 C 274.599 49.572,274.517 49.196,273.700 49.488 M232.237 54.762 C 230.782 56.233,230.088 57.207,230.370 57.382 C 230.617 57.534,230.770 57.493,230.710 57.289 C 230.649 57.085,231.579 55.995,232.775 54.868 C 233.972 53.740,234.862 52.728,234.753 52.619 C 234.643 52.510,233.512 53.475,232.237 54.762 M227.849 59.200 C 226.147 60.996,226.268 61.319,228.073 59.800 C 228.727 59.250,229.136 58.800,228.982 58.800 C 228.828 58.800,228.926 58.530,229.200 58.200 C 230.200 56.995,229.324 57.643,227.849 59.200 M223.590 63.410 C 222.516 64.554,222.066 65.975,223.032 65.173 C 223.344 64.914,223.600 64.519,223.600 64.295 C 223.600 64.071,223.915 63.658,224.299 63.377 C 224.684 63.096,224.895 62.761,224.768 62.634 C 224.640 62.507,224.111 62.856,223.590 63.410 M258.375 64.846 C 258.023 65.505,258.034 65.655,258.426 65.525 C 258.703 65.432,258.975 65.051,259.030 64.678 C 259.164 63.762,258.922 63.825,258.375 64.846 M219.590 67.410 C 218.401 68.614,217.550 69.600,217.700 69.600 C 217.850 69.600,218.649 68.925,219.476 68.100 C 220.302 67.275,221.131 66.649,221.319 66.710 C 221.506 66.770,221.555 66.651,221.427 66.444 C 221.300 66.237,221.421 65.988,221.698 65.889 C 221.974 65.790,222.099 65.599,221.977 65.465 C 221.854 65.330,220.780 66.205,219.590 67.410 M215.871 71.126 C 215.282 71.741,214.800 72.465,214.800 72.736 C 214.800 73.006,215.364 72.586,216.053 71.800 C 217.552 70.093,217.400 69.530,215.871 71.126 M209.045 77.970 C 205.508 81.511,204.074 83.199,204.421 83.413 C 204.720 83.598,204.823 83.561,204.675 83.322 C 204.429 82.924,206.103 81.200,206.735 81.200 C 206.917 81.200,207.297 80.795,207.580 80.300 C 207.863 79.805,209.066 78.545,210.252 77.500 C 211.439 76.455,212.291 75.600,212.145 75.600 C 212.000 75.600,212.463 75.045,213.173 74.366 C 213.883 73.687,214.399 73.065,214.318 72.985 C 214.238 72.904,211.865 75.148,209.045 77.970 M239.969 82.900 C 239.627 84.020,239.718 84.400,240.228 83.977 C 240.538 83.720,240.693 83.350,240.572 83.155 C 240.365 82.820,240.036 82.681,239.969 82.900 M201.800 85.200 C 200.941 86.080,200.409 86.797,200.619 86.793 C 200.983 86.786,201.986 85.800,203.153 84.300 C 204.094 83.091,203.425 83.536,201.800 85.200 M197.419 89.580 C 196.505 90.534,196.440 90.715,197.068 90.550 C 197.812 90.356,199.019 88.886,198.699 88.565 C 198.612 88.479,198.036 88.936,197.419 89.580 M193.590 93.410 C 192.401 94.614,191.603 95.600,191.817 95.600 C 192.032 95.600,192.437 95.233,192.717 94.784 C 192.997 94.336,193.428 94.094,193.675 94.246 C 193.948 94.415,194.012 94.343,193.838 94.062 C 193.665 93.781,193.823 93.600,194.243 93.600 C 194.623 93.600,194.817 93.483,194.674 93.341 C 194.531 93.198,194.800 92.747,195.271 92.338 C 195.743 91.929,196.044 91.511,195.941 91.407 C 195.838 91.304,194.780 92.205,193.590 93.410 M230.100 93.088 C 229.825 93.186,229.600 93.560,229.600 93.919 C 229.600 94.513,229.661 94.511,230.276 93.895 C 230.999 93.172,230.917 92.796,230.100 93.088 M188.948 98.192 C 188.617 99.053,188.886 99.243,189.496 98.581 C 189.811 98.239,189.847 97.952,189.593 97.796 C 189.374 97.660,189.083 97.838,188.948 98.192 M187.238 99.759 C 186.577 100.463,186.470 100.796,186.832 101.020 C 187.136 101.208,187.221 101.158,187.055 100.889 C 186.907 100.650,187.184 100.177,187.669 99.837 C 188.155 99.497,188.458 99.125,188.344 99.011 C 188.230 98.897,187.732 99.233,187.238 99.759 M184.241 102.808 C 183.411 103.684,182.892 104.400,183.088 104.400 C 183.572 104.400,186.195 101.662,185.947 101.414 C 185.839 101.305,185.071 101.933,184.241 102.808 M180.245 106.754 C 179.237 107.787,178.883 108.404,179.191 108.594 C 179.467 108.765,179.737 108.562,179.861 108.090 C 179.974 107.655,180.502 107.066,181.034 106.782 C 181.565 106.498,182.000 106.025,182.000 105.732 C 182.000 104.983,181.940 105.018,180.245 106.754 M214.856 108.236 C 214.495 109.030,214.494 109.235,214.856 109.115 C 215.115 109.028,215.387 108.562,215.461 108.079 C 215.638 106.915,215.434 106.969,214.856 108.236 M175.268 111.766 C 174.130 112.958,173.200 114.070,173.200 114.238 C 173.200 114.525,175.945 111.774,177.149 110.281 C 178.289 108.867,177.257 109.682,175.268 111.766 M171.800 115.200 C 171.399 115.643,171.162 116.095,171.272 116.205 C 171.382 116.315,171.799 116.043,172.200 115.600 C 172.601 115.157,172.838 114.705,172.728 114.595 C 172.618 114.485,172.201 114.757,171.800 115.200 M167.590 119.410 C 165.279 121.750,165.196 122.389,167.461 120.400 C 168.213 119.740,168.704 119.200,168.553 119.200 C 168.401 119.200,168.694 118.839,169.203 118.397 C 169.712 117.956,170.044 117.511,169.941 117.407 C 169.838 117.304,168.780 118.205,167.590 119.410 M204.100 119.088 C 203.825 119.186,203.600 119.560,203.600 119.919 C 203.600 120.513,203.661 120.511,204.276 119.895 C 204.999 119.172,204.917 118.796,204.100 119.088 M162.637 124.362 C 161.182 125.833,160.488 126.807,160.770 126.982 C 161.017 127.134,161.170 127.093,161.110 126.889 C 161.049 126.685,161.979 125.595,163.175 124.468 C 164.372 123.340,165.262 122.328,165.153 122.219 C 165.043 122.110,163.912 123.075,162.637 124.362 M158.249 128.800 C 156.547 130.596,156.668 130.919,158.473 129.400 C 159.127 128.850,159.536 128.400,159.382 128.400 C 159.228 128.400,159.326 128.130,159.600 127.800 C 160.600 126.595,159.724 127.243,158.249 128.800 M153.990 133.010 C 152.916 134.154,152.466 135.575,153.432 134.773 C 153.744 134.514,154.000 134.119,154.000 133.895 C 154.000 133.671,154.315 133.258,154.699 132.977 C 155.084 132.696,155.295 132.361,155.168 132.234 C 155.040 132.107,154.511 132.456,153.990 133.010 M188.775 134.446 C 188.423 135.105,188.434 135.255,188.826 135.125 C 189.103 135.032,189.375 134.651,189.430 134.278 C 189.564 133.362,189.322 133.425,188.775 134.446 M149.990 137.010 C 148.801 138.214,147.950 139.200,148.100 139.200 C 148.250 139.200,149.049 138.525,149.876 137.700 C 150.702 136.875,151.531 136.249,151.719 136.310 C 151.906 136.370,151.955 136.251,151.827 136.044 C 151.700 135.837,151.821 135.588,152.098 135.489 C 152.374 135.390,152.499 135.199,152.377 135.065 C 152.254 134.930,151.180 135.805,149.990 137.010 M145.864 141.129 C 145.499 141.533,145.200 142.098,145.200 142.385 C 145.200 142.673,145.581 142.424,146.046 141.833 C 147.015 140.601,146.865 140.023,145.864 141.129 M142.058 144.972 C 140.694 146.384,139.718 147.605,139.889 147.685 C 140.060 147.765,140.770 147.239,141.466 146.515 C 142.162 145.792,142.659 145.200,142.570 145.200 C 142.481 145.200,142.708 144.849,143.075 144.420 C 143.442 143.992,143.918 143.750,144.133 143.882 C 144.348 144.015,144.405 143.931,144.259 143.696 C 144.114 143.461,144.221 143.188,144.498 143.089 C 144.774 142.990,144.896 142.796,144.769 142.657 C 144.641 142.518,143.421 143.559,142.058 144.972 M178.100 145.088 C 177.825 145.186,177.600 145.560,177.600 145.919 C 177.600 146.513,177.661 146.511,178.276 145.895 C 178.999 145.172,178.917 144.796,178.100 145.088 M136.637 150.362 C 135.006 152.011,134.469 152.795,134.822 153.014 C 135.128 153.202,135.223 153.161,135.066 152.907 C 134.768 152.424,135.744 151.478,136.137 151.870 C 136.282 152.015,136.400 151.864,136.400 151.534 C 136.400 151.205,136.850 150.694,137.400 150.400 C 137.950 150.106,138.400 149.640,138.400 149.366 C 138.400 149.091,138.625 148.786,138.900 148.688 C 139.175 148.590,139.300 148.400,139.177 148.265 C 139.055 148.131,137.912 149.075,136.637 150.362 M132.249 154.800 C 131.415 155.680,130.896 156.400,131.097 156.400 C 131.444 156.400,132.430 155.403,133.568 153.900 C 134.488 152.685,133.823 153.139,132.249 154.800 M127.860 159.138 C 127.087 159.945,126.952 160.267,127.389 160.267 C 127.725 160.267,128.000 160.092,128.000 159.877 C 128.000 159.663,128.315 159.258,128.699 158.977 C 129.084 158.696,129.296 158.363,129.170 158.237 C 129.045 158.111,128.455 158.516,127.860 159.138 M162.775 160.446 C 162.423 161.105,162.434 161.255,162.826 161.125 C 163.103 161.032,163.375 160.651,163.430 160.278 C 163.564 159.362,163.322 159.425,162.775 160.446 M123.990 163.010 C 122.801 164.214,122.003 165.200,122.217 165.200 C 122.432 165.200,122.829 164.845,123.100 164.411 C 123.410 163.914,123.853 163.706,124.296 163.849 C 124.889 164.040,124.906 164.008,124.400 163.644 C 123.889 163.276,123.914 163.211,124.567 163.206 C 124.988 163.203,125.217 163.083,125.074 162.941 C 124.931 162.798,125.200 162.347,125.671 161.938 C 126.143 161.529,126.444 161.111,126.341 161.007 C 126.238 160.904,125.180 161.805,123.990 163.010 M160.500 162.688 C 160.225 162.786,160.000 163.160,160.000 163.519 C 160.000 164.113,160.061 164.111,160.676 163.495 C 161.399 162.772,161.317 162.396,160.500 162.688 M120.271 166.726 C 119.682 167.341,119.200 168.065,119.200 168.336 C 119.200 168.606,119.764 168.186,120.453 167.400 C 121.952 165.693,121.800 165.130,120.271 166.726 M117.638 169.359 C 116.977 170.063,116.870 170.396,117.232 170.620 C 117.536 170.808,117.621 170.758,117.455 170.489 C 117.307 170.250,117.584 169.777,118.069 169.437 C 118.555 169.097,118.858 168.725,118.744 168.611 C 118.630 168.497,118.132 168.833,117.638 169.359 M114.641 172.408 C 113.811 173.284,113.292 174.000,113.488 174.000 C 113.972 174.000,116.595 171.262,116.347 171.014 C 116.239 170.905,115.471 171.533,114.641 172.408 M110.659 176.340 C 109.642 177.381,109.283 178.004,109.591 178.194 C 109.870 178.367,110.141 178.148,110.274 177.640 C 110.394 177.178,110.665 176.800,110.875 176.800 C 111.451 176.800,112.483 175.650,112.327 175.182 C 112.252 174.956,111.501 175.477,110.659 176.340 M145.175 178.046 C 144.823 178.705,144.834 178.855,145.226 178.725 C 145.503 178.632,145.775 178.251,145.830 177.878 C 145.964 176.962,145.722 177.025,145.175 178.046 M106.576 180.426 C 105.887 181.145,105.680 181.544,106.077 181.392 C 106.650 181.172,108.276 179.200,107.884 179.200 C 107.810 179.200,107.221 179.752,106.576 180.426 M102.200 184.800 C 101.799 185.243,101.562 185.695,101.672 185.805 C 101.782 185.915,102.199 185.643,102.600 185.200 C 103.001 184.757,103.238 184.305,103.128 184.195 C 103.018 184.085,102.601 184.357,102.200 184.800 M98.838 188.161 C 98.119 188.903,97.681 189.601,97.865 189.713 C 98.049 189.825,98.432 189.665,98.716 189.358 C 98.999 189.051,99.107 188.800,98.955 188.800 C 98.802 188.800,99.094 188.439,99.603 187.997 C 100.112 187.556,100.442 187.109,100.337 187.003 C 100.231 186.898,99.557 187.419,98.838 188.161 M134.500 188.688 C 134.225 188.786,134.000 189.160,134.000 189.519 C 134.000 190.113,134.061 190.111,134.676 189.495 C 135.399 188.772,135.317 188.396,134.500 188.688 M94.232 205.949 C 94.078 206.197,94.143 206.400,94.376 206.400 C 94.609 206.400,94.814 206.715,94.832 207.100 C 94.849 207.492,94.950 207.587,95.060 207.315 C 95.343 206.618,94.588 205.373,94.232 205.949 M130.684 207.122 C 130.610 207.275,130.965 207.799,131.474 208.286 C 131.983 208.773,132.406 209.043,132.413 208.886 C 132.420 208.729,132.690 208.949,133.013 209.376 C 133.336 209.804,133.600 209.982,133.600 209.774 C 133.600 209.264,130.857 206.769,130.684 207.122 M97.484 210.200 C 99.869 213.013,101.605 214.692,101.588 214.170 C 101.582 213.966,100.198 212.450,98.513 210.800 C 95.494 207.844,95.479 207.836,97.484 210.200 M140.224 216.700 C 141.091 217.525,141.885 218.145,141.988 218.079 C 142.228 217.924,139.355 215.200,138.951 215.200 C 138.785 215.200,139.358 215.875,140.224 216.700 M108.600 221.600 C 109.683 222.700,110.739 223.600,110.946 223.600 C 111.153 223.600,110.923 223.254,110.435 222.830 C 109.947 222.407,109.559 221.957,109.574 221.830 C 109.588 221.704,109.543 221.645,109.474 221.700 C 109.404 221.755,108.888 221.305,108.328 220.700 C 107.767 220.095,107.156 219.600,106.969 219.600 C 106.783 219.600,107.517 220.500,108.600 221.600 M146.753 223.078 C 147.001 223.560,147.383 224.066,147.602 224.201 C 148.287 224.625,148.037 224.005,147.151 223.083 L 146.301 222.200 146.753 223.078 M148.261 224.708 C 148.164 224.868,148.335 225.232,148.642 225.516 C 148.949 225.799,149.200 225.903,149.200 225.746 C 149.200 225.589,149.650 225.883,150.200 226.400 C 150.750 226.917,151.200 227.247,151.200 227.134 C 151.200 226.713,148.431 224.427,148.261 224.708 M116.985 229.978 C 119.158 232.192,119.461 232.406,118.707 231.200 C 118.432 230.760,118.071 230.400,117.904 230.400 C 117.737 230.400,117.600 230.207,117.600 229.971 C 117.600 229.401,116.786 228.625,115.800 228.256 C 115.340 228.083,115.843 228.815,116.985 229.978 M156.587 233.222 C 156.458 233.430,156.503 233.600,156.687 233.600 C 156.871 233.600,157.602 234.130,158.311 234.777 C 159.020 235.425,159.600 235.829,159.600 235.675 C 159.600 235.119,156.815 232.852,156.587 233.222 M122.370 234.903 C 123.505 236.187,123.467 236.170,123.467 235.400 C 123.467 235.070,123.376 234.890,123.266 235.001 C 123.155 235.111,122.690 234.888,122.232 234.504 C 121.626 233.995,121.663 234.104,122.370 234.903 M124.107 236.325 C 123.764 236.544,124.341 237.358,126.007 239.007 C 128.897 241.866,129.177 241.695,126.427 238.750 C 125.341 237.588,124.542 236.494,124.650 236.319 C 124.896 235.921,124.741 235.923,124.107 236.325 M165.670 242.348 C 166.181 242.979,166.724 243.426,166.875 243.340 C 167.027 243.254,167.336 243.502,167.563 243.892 C 167.790 244.281,167.981 244.419,167.988 244.197 C 168.000 243.798,165.372 241.200,164.956 241.200 C 164.837 241.200,165.158 241.717,165.670 242.348 M134.600 247.600 C 135.683 248.700,136.721 249.600,136.906 249.600 C 137.090 249.600,136.782 249.174,136.221 248.654 C 135.659 248.134,135.200 247.516,135.200 247.281 C 135.200 247.046,134.840 246.740,134.400 246.600 C 133.960 246.460,133.600 246.178,133.600 245.973 C 133.600 245.768,133.382 245.600,133.115 245.600 C 132.848 245.600,133.517 246.500,134.600 247.600 M172.753 249.078 C 173.001 249.560,173.383 250.066,173.602 250.201 C 174.287 250.625,174.037 250.005,173.151 249.083 L 172.301 248.200 172.753 249.078 M174.261 250.708 C 174.164 250.868,174.335 251.232,174.642 251.516 C 174.949 251.799,175.200 251.903,175.200 251.746 C 175.200 251.589,175.650 251.883,176.200 252.400 C 176.750 252.917,177.200 253.247,177.200 253.134 C 177.200 252.713,174.431 250.427,174.261 250.708 M142.985 255.953 C 144.987 258.018,145.745 258.590,144.768 257.300 C 143.585 255.738,142.558 254.705,141.800 254.316 C 141.360 254.090,141.893 254.827,142.985 255.953 M182.800 258.957 C 182.800 259.105,183.430 259.857,184.200 260.627 C 184.970 261.397,185.598 261.886,185.596 261.713 C 185.593 261.541,184.963 260.790,184.196 260.044 C 183.428 259.298,182.800 258.809,182.800 258.957 M147.978 260.501 C 148.737 261.325,149.547 261.986,149.778 261.968 C 150.010 261.951,149.974 261.846,149.698 261.734 C 149.421 261.623,149.315 261.322,149.462 261.066 C 149.608 260.810,149.577 260.738,149.392 260.906 C 149.207 261.074,148.503 260.714,147.828 260.106 C 146.753 259.139,146.771 259.188,147.978 260.501 M152.200 265.200 C 153.283 266.300,154.339 267.200,154.546 267.200 C 154.753 267.200,154.538 266.867,154.068 266.459 C 153.599 266.052,153.331 265.602,153.474 265.459 C 153.617 265.317,153.522 265.200,153.264 265.200 C 153.006 265.200,152.403 264.750,151.925 264.200 C 151.447 263.650,150.870 263.200,150.643 263.200 C 150.416 263.200,151.117 264.100,152.200 265.200 M191.228 267.656 C 191.983 268.677,192.677 269.440,192.770 269.352 C 192.864 269.265,193.359 269.586,193.870 270.066 C 195.894 271.967,194.639 270.454,192.323 268.200 C 189.873 265.816,189.866 265.812,191.228 267.656 M160.600 273.600 C 162.760 275.793,163.058 276.003,162.307 274.800 C 162.032 274.360,161.671 274.000,161.504 274.000 C 161.337 274.000,161.200 273.742,161.200 273.427 C 161.200 273.112,160.840 272.740,160.400 272.600 C 159.960 272.460,159.600 272.178,159.600 271.973 C 159.600 271.768,159.382 271.600,159.115 271.600 C 158.848 271.600,159.517 272.500,160.600 273.600 M200.262 276.699 C 200.158 276.867,200.822 277.514,201.737 278.136 C 202.652 278.759,203.040 278.936,202.600 278.530 C 202.160 278.125,201.496 277.478,201.126 277.093 C 200.755 276.709,200.366 276.531,200.262 276.699 M168.976 281.943 C 170.063 283.064,171.035 283.898,171.137 283.796 C 171.386 283.548,168.808 280.873,167.800 280.333 C 167.360 280.098,167.889 280.823,168.976 281.943 M209.800 286.331 C 210.680 287.167,211.479 287.791,211.575 287.717 C 211.799 287.546,208.896 284.798,208.499 284.806 C 208.335 284.809,208.920 285.495,209.800 286.331 M174.087 286.605 C 174.904 287.460,175.638 288.079,175.717 287.980 C 175.797 287.881,175.128 287.181,174.231 286.425 L 172.600 285.050 174.087 286.605 M178.200 291.200 C 179.283 292.300,180.339 293.200,180.546 293.200 C 180.753 293.200,180.523 292.854,180.035 292.430 C 179.547 292.007,179.159 291.557,179.174 291.430 C 179.188 291.304,179.143 291.245,179.074 291.300 C 179.004 291.355,178.488 290.905,177.928 290.300 C 177.367 289.695,176.756 289.200,176.569 289.200 C 176.383 289.200,177.117 290.100,178.200 291.200 M216.000 292.103 C 216.000 292.225,216.630 293.078,217.400 294.000 C 218.170 294.922,218.800 295.537,218.800 295.368 C 218.800 295.199,219.214 295.407,219.719 295.830 C 220.234 296.262,220.173 296.143,219.580 295.560 C 218.998 294.988,217.954 293.926,217.261 293.201 C 216.567 292.475,216.000 291.981,216.000 292.103 M186.585 299.578 C 188.758 301.792,189.061 302.006,188.307 300.800 C 188.032 300.360,187.671 300.000,187.504 300.000 C 187.337 300.000,187.200 299.807,187.200 299.571 C 187.200 299.001,186.386 298.225,185.400 297.856 C 184.940 297.683,185.443 298.415,186.585 299.578 M226.187 302.822 C 226.058 303.030,226.103 303.200,226.287 303.200 C 226.471 303.200,227.202 303.730,227.911 304.377 C 228.620 305.025,229.200 305.429,229.200 305.275 C 229.200 304.719,226.415 302.452,226.187 302.822 M191.970 304.503 C 193.105 305.787,193.067 305.770,193.067 305.000 C 193.067 304.670,192.976 304.490,192.866 304.601 C 192.755 304.711,192.290 304.488,191.832 304.104 C 191.226 303.595,191.263 303.704,191.970 304.503 M194.619 307.634 C 195.488 308.532,196.740 309.649,197.400 310.115 C 198.060 310.582,197.520 309.848,196.200 308.484 C 194.880 307.121,193.628 306.004,193.419 306.003 C 193.209 306.001,193.749 306.735,194.619 307.634 M235.270 311.948 C 235.781 312.579,236.324 313.026,236.475 312.940 C 236.627 312.854,236.936 313.102,237.163 313.492 C 237.390 313.881,237.581 314.019,237.588 313.797 C 237.600 313.398,234.972 310.800,234.556 310.800 C 234.437 310.800,234.758 311.317,235.270 311.948 M203.419 316.419 C 204.163 317.196,204.647 317.458,204.754 317.139 C 204.845 316.865,204.710 316.570,204.453 316.484 C 204.196 316.399,203.732 316.075,203.421 315.764 C 202.288 314.631,202.285 315.236,203.419 316.419 M242.353 318.678 C 242.601 319.160,242.983 319.666,243.202 319.801 C 243.887 320.225,243.637 319.605,242.751 318.683 L 241.901 317.800 242.353 318.678 M243.861 320.308 C 243.764 320.468,243.935 320.832,244.242 321.116 C 244.549 321.399,244.800 321.503,244.800 321.346 C 244.800 321.189,245.250 321.483,245.800 322.000 C 246.350 322.517,246.800 322.847,246.800 322.734 C 246.800 322.313,244.031 320.027,243.861 320.308 M212.585 325.553 C 214.587 327.618,215.345 328.190,214.368 326.900 C 213.185 325.338,212.158 324.305,211.400 323.916 C 210.960 323.690,211.493 324.427,212.585 325.553 M252.187 328.822 C 252.058 329.030,252.103 329.200,252.287 329.200 C 252.471 329.200,253.202 329.730,253.911 330.377 C 254.620 331.025,255.200 331.429,255.200 331.275 C 255.200 330.719,252.415 328.452,252.187 328.822 M221.800 334.800 C 222.883 335.900,223.939 336.800,224.146 336.800 C 224.353 336.800,224.138 336.467,223.668 336.059 C 223.199 335.652,222.931 335.202,223.074 335.059 C 223.217 334.917,223.122 334.800,222.864 334.800 C 222.606 334.800,222.003 334.350,221.525 333.800 C 221.047 333.250,220.470 332.800,220.243 332.800 C 220.016 332.800,220.717 333.700,221.800 334.800 M261.270 337.947 C 261.781 338.578,262.277 339.027,262.370 338.944 C 262.464 338.861,263.004 339.190,263.570 339.675 C 264.137 340.161,263.746 339.712,262.701 338.679 C 260.574 336.573,259.859 336.208,261.270 337.947 M230.200 343.200 C 231.283 344.300,232.321 345.200,232.506 345.200 C 232.690 345.200,232.382 344.774,231.821 344.254 C 231.259 343.734,230.800 343.116,230.800 342.881 C 230.800 342.646,230.440 342.340,230.000 342.200 C 229.560 342.060,229.200 341.778,229.200 341.573 C 229.200 341.368,228.982 341.200,228.715 341.200 C 228.448 341.200,229.117 342.100,230.200 343.200 M268.353 344.678 C 268.601 345.160,268.983 345.666,269.202 345.801 C 269.887 346.225,269.637 345.605,268.751 344.683 L 267.901 343.800 268.353 344.678 M269.862 346.299 C 269.758 346.467,270.422 347.114,271.337 347.736 C 272.252 348.359,272.640 348.536,272.200 348.130 C 271.760 347.725,271.096 347.078,270.726 346.693 C 270.355 346.309,269.966 346.131,269.862 346.299 M238.585 351.553 C 240.548 353.578,241.412 354.243,240.349 352.913 C 238.796 350.968,238.129 350.290,237.400 349.916 C 236.960 349.690,237.493 350.427,238.585 351.553 M279.400 355.931 C 280.280 356.767,281.079 357.391,281.175 357.317 C 281.399 357.146,278.496 354.398,278.099 354.406 C 277.935 354.409,278.520 355.095,279.400 355.931 M243.687 356.205 C 244.504 357.060,245.238 357.679,245.317 357.580 C 245.397 357.481,244.728 356.781,243.831 356.025 L 242.200 354.650 243.687 356.205 M246.461 358.678 C 245.901 358.901,249.387 362.800,250.146 362.800 C 250.353 362.800,250.138 362.467,249.668 362.059 C 249.199 361.652,248.931 361.202,249.074 361.059 C 249.217 360.917,249.151 360.800,248.928 360.800 C 248.224 360.800,246.715 359.261,246.987 358.821 C 247.270 358.364,247.258 358.361,246.461 358.678 M285.600 361.703 C 285.600 361.825,286.230 362.678,287.000 363.600 C 287.770 364.522,288.400 365.137,288.400 364.968 C 288.400 364.799,288.814 365.007,289.319 365.430 C 289.834 365.862,289.773 365.743,289.180 365.160 C 288.598 364.588,287.554 363.526,286.861 362.801 C 286.167 362.075,285.600 361.581,285.600 361.703 M256.185 369.171 C 258.356 371.391,258.662 371.609,257.907 370.400 C 257.632 369.960,257.271 369.600,257.104 369.600 C 256.937 369.600,256.799 369.375,256.797 369.100 C 256.796 368.825,256.211 368.272,255.497 367.871 C 254.348 367.224,254.426 367.372,256.185 369.171 M295.787 372.422 C 295.658 372.630,295.703 372.800,295.887 372.800 C 296.071 372.800,296.802 373.330,297.511 373.977 C 298.220 374.625,298.800 375.029,298.800 374.875 C 298.800 374.319,296.015 372.052,295.787 372.422 M261.570 374.103 C 262.705 375.387,262.667 375.370,262.667 374.600 C 262.667 374.270,262.576 374.090,262.466 374.201 C 262.355 374.311,261.890 374.088,261.432 373.704 C 260.826 373.195,260.863 373.304,261.570 374.103 M264.591 377.591 C 265.669 378.686,266.634 379.499,266.734 379.399 C 266.982 379.151,263.512 375.600,263.021 375.600 C 262.806 375.600,263.512 376.496,264.591 377.591 M304.602 381.202 C 305.002 381.644,305.411 381.922,305.512 381.821 C 305.728 381.605,304.588 380.400,304.167 380.400 C 304.007 380.400,304.203 380.761,304.602 381.202 M305.458 382.651 C 305.709 382.754,305.832 383.235,305.730 383.719 C 305.565 384.503,305.595 384.522,305.994 383.897 C 306.487 383.125,306.224 382.382,305.476 382.432 C 305.132 382.454,305.127 382.515,305.458 382.651 M273.800 386.800 C 274.883 387.900,275.939 388.800,276.146 388.800 C 276.353 388.800,276.123 388.454,275.635 388.030 C 275.147 387.607,274.759 387.157,274.774 387.030 C 274.788 386.904,274.743 386.845,274.674 386.900 C 274.604 386.955,274.088 386.505,273.528 385.900 C 272.967 385.295,272.356 384.800,272.169 384.800 C 271.983 384.800,272.717 385.700,273.800 386.800 M282.185 395.153 C 284.148 397.178,285.012 397.843,283.949 396.513 C 282.396 394.568,281.729 393.890,281.000 393.516 C 280.560 393.290,281.093 394.027,282.185 395.153 M304.300 396.615 C 303.695 397.136,303.200 397.750,303.200 397.981 C 303.200 398.211,303.020 398.400,302.800 398.400 C 302.580 398.400,302.400 398.622,302.400 398.894 C 302.400 399.166,303.156 398.632,304.080 397.708 C 305.913 395.875,306.071 395.091,304.300 396.615 M286.257 399.005 C 286.383 399.332,286.722 399.600,287.010 399.600 C 287.299 399.600,287.864 399.704,288.267 399.830 C 288.881 400.023,288.870 399.980,288.200 399.564 C 287.760 399.292,287.310 398.963,287.200 398.834 C 286.754 398.312,286.041 398.442,286.257 399.005 " stroke="none" fill="#70d4d4" fill-rule="evenodd"></path></g></svg>