<svg id="svg" version="1.1" xmlns="http://www.w3.org/2000/svg" xmlns:xlink="http://www.w3.org/1999/xlink" width="400" height="400" viewBox="0, 0, 400,400"><g id="svgg"><path id="path0" d="M98.596 0.700 C 98.414 1.141,98.241 1.224,98.128 0.925 C 98.008 0.603,97.643 0.715,97.005 1.270 C 96.435 1.766,96.155 2.339,96.300 2.715 C 96.473 3.166,96.362 3.271,95.899 3.093 C 95.539 2.955,95.026 3.129,94.729 3.489 C 94.313 3.994,94.306 4.166,94.700 4.298 C 94.975 4.391,95.200 4.626,95.200 4.821 C 95.200 5.016,94.948 5.078,94.640 4.960 C 93.977 4.705,93.408 5.434,93.989 5.793 C 94.230 5.942,94.071 6.387,93.595 6.897 C 93.157 7.367,92.934 7.853,93.099 7.976 C 93.618 8.362,93.703 9.711,93.189 9.393 C 92.523 8.982,92.813 14.829,93.493 15.532 C 93.776 15.825,93.905 16.230,93.780 16.432 C 93.655 16.635,93.743 16.800,93.976 16.800 C 94.209 16.800,94.400 16.991,94.400 17.224 C 94.400 17.457,94.192 17.519,93.938 17.362 C 93.645 17.181,93.585 17.253,93.774 17.558 C 94.005 17.931,94.200 17.932,94.648 17.560 C 95.140 17.152,95.166 17.236,94.828 18.126 C 94.575 18.793,94.570 19.258,94.815 19.409 C 95.027 19.540,95.203 19.412,95.206 19.124 C 95.211 18.732,95.305 18.747,95.580 19.181 C 95.782 19.500,95.858 19.905,95.750 20.081 C 95.642 20.256,95.844 20.400,96.200 20.400 C 96.556 20.400,96.736 20.580,96.600 20.800 C 96.464 21.020,96.663 21.200,97.043 21.200 C 97.423 21.200,97.625 21.308,97.493 21.440 C 97.361 21.572,97.883 22.310,98.653 23.080 C 99.423 23.850,100.131 24.403,100.226 24.308 C 100.320 24.213,101.105 24.778,101.970 25.563 C 102.835 26.349,103.455 27.078,103.349 27.184 C 103.243 27.290,103.030 27.202,102.875 26.988 C 102.720 26.775,102.055 26.152,101.397 25.605 C 100.541 24.894,100.645 25.088,101.761 26.285 C 102.620 27.206,103.430 27.947,103.561 27.932 C 104.293 27.850,104.800 28.051,104.800 28.424 C 104.800 28.657,104.575 28.712,104.300 28.547 C 103.960 28.343,103.976 28.463,104.349 28.923 C 104.651 29.295,105.176 29.600,105.516 29.600 C 105.855 29.600,106.025 29.708,105.893 29.840 C 105.551 30.182,108.340 32.884,108.764 32.622 C 108.958 32.502,109.223 32.683,109.354 33.023 C 109.512 33.437,109.427 33.550,109.095 33.365 C 108.823 33.213,109.674 34.193,110.987 35.544 C 112.301 36.895,113.636 38.000,113.954 38.000 C 114.273 38.000,114.425 38.108,114.293 38.240 C 114.020 38.514,116.589 41.200,117.125 41.200 C 117.318 41.200,117.803 41.561,118.202 42.002 C 118.602 42.444,119.011 42.722,119.112 42.622 C 119.417 42.316,122.017 45.649,121.777 46.038 C 121.653 46.237,121.844 46.400,122.200 46.400 C 122.556 46.400,122.736 46.580,122.600 46.800 C 122.464 47.020,122.663 47.200,123.043 47.200 C 123.423 47.200,123.625 47.308,123.493 47.440 C 123.361 47.572,123.883 48.310,124.653 49.080 C 125.423 49.850,126.140 50.393,126.246 50.287 C 126.353 50.181,127.151 50.733,128.020 51.513 C 128.890 52.294,129.512 53.021,129.403 53.130 C 129.294 53.239,128.889 52.984,128.503 52.563 C 128.116 52.143,127.440 51.537,127.000 51.218 C 126.560 50.899,126.903 51.385,127.761 52.299 C 128.620 53.212,129.430 53.947,129.561 53.932 C 130.293 53.850,130.800 54.051,130.800 54.424 C 130.800 54.657,130.575 54.712,130.300 54.547 C 129.960 54.343,129.976 54.463,130.349 54.923 C 130.651 55.295,131.176 55.600,131.516 55.600 C 131.855 55.600,132.025 55.708,131.893 55.840 C 131.635 56.099,134.168 58.793,134.687 58.811 C 135.271 58.832,137.986 61.081,137.733 61.334 C 137.594 61.472,137.193 61.273,136.841 60.892 C 136.488 60.511,135.840 59.938,135.400 59.620 C 134.960 59.302,135.489 59.973,136.576 61.112 C 137.663 62.250,138.653 63.071,138.776 62.936 C 138.899 62.801,138.775 62.610,138.500 62.512 C 138.225 62.414,138.006 62.123,138.013 61.867 C 138.021 61.610,138.380 61.824,138.811 62.342 C 139.243 62.860,139.496 63.445,139.374 63.642 C 139.252 63.839,139.463 64.000,139.843 64.000 C 140.223 64.000,140.425 64.108,140.293 64.240 C 140.020 64.514,142.589 67.200,143.125 67.200 C 143.318 67.200,143.798 67.556,144.191 67.991 C 144.585 68.425,145.018 68.719,145.153 68.643 C 145.289 68.566,145.819 69.021,146.330 69.652 C 147.338 70.895,147.110 71.244,146.038 70.100 C 145.678 69.715,144.847 68.953,144.191 68.408 C 143.536 67.862,143.884 68.347,144.964 69.486 C 146.044 70.625,147.124 71.522,147.364 71.479 C 147.604 71.435,147.755 71.625,147.700 71.900 C 147.645 72.175,147.881 72.400,148.224 72.400 C 148.567 72.400,148.736 72.580,148.600 72.800 C 148.464 73.020,148.663 73.200,149.043 73.200 C 149.423 73.200,149.625 73.308,149.493 73.440 C 149.130 73.804,151.954 76.476,152.406 76.196 C 152.623 76.062,152.800 76.120,152.800 76.325 C 152.800 76.529,153.416 77.119,154.170 77.635 C 154.923 78.152,155.447 78.724,155.334 78.907 C 155.221 79.090,154.829 78.915,154.464 78.519 C 154.099 78.123,153.440 77.537,153.000 77.218 C 152.560 76.899,152.903 77.385,153.761 78.299 C 154.620 79.212,155.430 79.947,155.561 79.932 C 156.293 79.850,156.800 80.051,156.800 80.424 C 156.800 80.657,156.575 80.712,156.300 80.547 C 155.960 80.343,155.976 80.463,156.349 80.923 C 156.651 81.295,157.176 81.600,157.516 81.600 C 157.855 81.600,158.025 81.708,157.893 81.840 C 157.620 82.114,160.189 84.800,160.725 84.800 C 160.918 84.800,161.398 85.156,161.791 85.591 C 162.185 86.025,162.618 86.314,162.753 86.233 C 162.889 86.151,163.223 86.326,163.496 86.621 C 163.770 86.917,163.830 87.258,163.630 87.381 C 163.431 87.504,163.207 87.469,163.133 87.302 C 163.058 87.136,162.458 86.553,161.799 86.008 C 161.139 85.462,161.489 85.953,162.576 87.099 C 163.663 88.244,164.653 89.071,164.776 88.936 C 164.899 88.801,164.775 88.610,164.500 88.512 C 164.225 88.414,164.006 88.123,164.013 87.867 C 164.021 87.610,164.380 87.824,164.811 88.342 C 165.243 88.860,165.496 89.445,165.374 89.642 C 165.252 89.839,165.463 90.000,165.843 90.000 C 166.223 90.000,166.426 90.107,166.295 90.239 C 165.954 90.579,169.544 94.082,169.966 93.821 C 170.159 93.702,170.423 93.883,170.554 94.223 C 170.713 94.638,170.627 94.749,170.295 94.562 C 170.023 94.408,170.503 95.020,171.361 95.921 C 172.220 96.822,173.120 97.523,173.361 97.480 C 173.603 97.436,173.748 97.647,173.684 97.949 C 173.607 98.312,173.791 98.412,174.228 98.245 C 174.706 98.061,174.825 98.158,174.657 98.595 C 174.508 98.983,174.660 99.200,175.079 99.200 C 175.439 99.200,175.625 99.308,175.493 99.440 C 175.130 99.804,177.954 102.476,178.406 102.196 C 178.623 102.062,178.800 102.120,178.800 102.325 C 178.800 102.529,179.416 103.119,180.170 103.635 C 180.923 104.152,181.447 104.724,181.334 104.907 C 181.221 105.090,180.829 104.915,180.464 104.519 C 180.099 104.123,179.440 103.539,179.000 103.222 C 178.560 102.904,179.274 103.760,180.587 105.122 C 181.901 106.485,183.236 107.600,183.554 107.600 C 183.873 107.600,184.025 107.708,183.893 107.840 C 183.620 108.114,186.189 110.800,186.725 110.800 C 186.918 110.800,187.403 111.161,187.802 111.602 C 188.202 112.044,188.611 112.322,188.712 112.222 C 189.017 111.916,191.617 115.249,191.377 115.638 C 191.253 115.837,191.444 116.000,191.800 116.000 C 192.156 116.000,192.336 116.180,192.200 116.400 C 192.064 116.620,192.263 116.800,192.643 116.800 C 193.023 116.800,193.225 116.908,193.093 117.040 C 192.961 117.172,193.483 117.910,194.253 118.680 C 195.023 119.450,195.740 119.993,195.846 119.887 C 195.953 119.781,196.751 120.333,197.620 121.113 C 198.490 121.894,199.112 122.621,199.003 122.730 C 198.894 122.839,198.489 122.584,198.103 122.163 C 197.716 121.743,197.040 121.137,196.600 120.818 C 196.160 120.499,196.503 120.985,197.361 121.899 C 198.220 122.812,199.030 123.547,199.161 123.532 C 199.893 123.450,200.400 123.651,200.400 124.024 C 200.400 124.257,200.175 124.312,199.900 124.147 C 199.577 123.953,199.599 124.092,199.964 124.541 C 200.274 124.924,200.779 125.140,201.085 125.023 C 201.391 124.905,201.533 124.984,201.401 125.198 C 201.163 125.584,203.683 128.390,204.287 128.411 C 204.871 128.432,207.586 130.681,207.333 130.934 C 207.194 131.072,206.793 130.873,206.441 130.492 C 206.088 130.111,205.440 129.538,205.000 129.220 C 204.560 128.902,205.089 129.573,206.176 130.712 C 207.263 131.850,208.253 132.671,208.376 132.536 C 208.499 132.401,208.375 132.210,208.100 132.112 C 207.825 132.014,207.600 131.767,207.600 131.563 C 207.600 131.360,207.943 131.408,208.363 131.670 C 208.783 131.932,209.063 132.473,208.986 132.873 C 208.897 133.332,209.083 133.600,209.490 133.600 C 209.844 133.600,210.025 133.708,209.893 133.840 C 209.620 134.114,212.189 136.800,212.725 136.800 C 212.918 136.800,213.403 137.161,213.802 137.602 C 214.202 138.044,214.617 138.316,214.726 138.207 C 214.978 137.955,217.434 141.279,217.300 141.691 C 217.245 141.861,217.481 142.000,217.824 142.000 C 218.167 142.000,218.336 142.180,218.200 142.400 C 218.064 142.620,218.263 142.800,218.643 142.800 C 219.023 142.800,219.225 142.908,219.093 143.040 C 218.730 143.404,221.554 146.076,222.006 145.796 C 222.223 145.662,222.400 145.720,222.400 145.925 C 222.400 146.129,223.016 146.719,223.770 147.235 C 224.523 147.752,225.047 148.324,224.934 148.507 C 224.821 148.690,224.429 148.515,224.064 148.119 C 223.699 147.723,223.040 147.137,222.600 146.818 C 222.160 146.499,222.503 146.985,223.361 147.899 C 224.220 148.812,225.030 149.547,225.161 149.532 C 225.893 149.450,226.400 149.651,226.400 150.024 C 226.400 150.257,226.175 150.312,225.900 150.147 C 225.560 149.943,225.576 150.063,225.949 150.523 C 226.251 150.895,226.776 151.200,227.116 151.200 C 227.455 151.200,227.625 151.308,227.493 151.440 C 227.220 151.714,229.789 154.400,230.325 154.400 C 230.518 154.400,230.998 154.756,231.391 155.191 C 231.785 155.625,232.218 155.914,232.353 155.833 C 232.489 155.751,232.823 155.926,233.096 156.221 C 233.370 156.517,233.430 156.858,233.230 156.981 C 233.031 157.104,232.807 157.069,232.733 156.902 C 232.658 156.736,232.058 156.153,231.399 155.608 C 230.739 155.062,231.089 155.553,232.176 156.699 C 233.263 157.844,234.253 158.671,234.376 158.536 C 234.499 158.401,234.375 158.210,234.100 158.112 C 233.825 158.014,233.606 157.723,233.613 157.467 C 233.621 157.210,233.980 157.424,234.411 157.942 C 234.843 158.460,235.096 159.045,234.974 159.242 C 234.852 159.439,235.063 159.600,235.443 159.600 C 235.823 159.600,236.026 159.707,235.895 159.839 C 235.554 160.179,239.144 163.682,239.566 163.421 C 239.759 163.302,240.023 163.483,240.154 163.823 C 240.313 164.238,240.227 164.349,239.895 164.162 C 239.623 164.008,240.103 164.620,240.961 165.521 C 241.820 166.422,242.720 167.123,242.961 167.080 C 243.203 167.036,243.355 167.225,243.300 167.500 C 243.245 167.775,243.481 168.000,243.824 168.000 C 244.167 168.000,244.336 168.180,244.200 168.400 C 244.064 168.620,244.263 168.800,244.643 168.800 C 245.023 168.800,245.225 168.908,245.093 169.040 C 244.730 169.404,247.554 172.076,248.006 171.796 C 248.223 171.662,248.400 171.720,248.400 171.925 C 248.400 172.129,249.016 172.719,249.770 173.235 C 250.523 173.752,251.047 174.324,250.934 174.507 C 250.821 174.690,250.429 174.515,250.064 174.119 C 249.699 173.723,249.040 173.137,248.600 172.818 C 248.160 172.499,248.504 172.987,249.365 173.902 C 250.226 174.818,251.060 175.486,251.220 175.388 C 251.379 175.289,251.755 175.511,252.055 175.881 C 252.524 176.460,252.516 176.504,252.000 176.200 C 251.482 175.895,251.475 175.939,251.949 176.523 C 252.251 176.895,252.776 177.200,253.116 177.200 C 253.455 177.200,253.625 177.308,253.493 177.440 C 253.220 177.714,255.789 180.400,256.325 180.400 C 256.518 180.400,256.998 180.756,257.391 181.191 C 257.785 181.625,258.244 181.896,258.412 181.793 C 258.579 181.689,258.825 181.888,258.958 182.235 C 259.287 183.093,259.252 183.487,258.890 183.000 C 258.727 182.780,258.055 182.153,257.397 181.608 C 256.738 181.062,257.089 181.553,258.176 182.699 C 259.263 183.844,260.239 184.694,260.347 184.587 C 260.454 184.479,260.195 184.129,259.771 183.809 C 259.347 183.488,259.215 183.220,259.477 183.213 C 260.073 183.197,261.240 184.812,260.960 185.265 C 260.846 185.449,261.044 185.600,261.400 185.600 C 261.756 185.600,261.936 185.780,261.800 186.000 C 261.664 186.220,261.863 186.400,262.243 186.400 C 262.623 186.400,262.825 186.508,262.693 186.640 C 262.561 186.772,263.083 187.510,263.853 188.280 C 264.623 189.050,265.331 189.603,265.426 189.508 C 265.520 189.413,266.305 189.978,267.170 190.763 C 268.035 191.549,268.655 192.278,268.549 192.384 C 268.443 192.490,268.230 192.402,268.075 192.188 C 267.920 191.975,267.255 191.352,266.597 190.805 C 265.741 190.094,265.845 190.288,266.961 191.485 C 267.820 192.406,268.630 193.147,268.761 193.132 C 269.493 193.050,270.000 193.251,270.000 193.624 C 270.000 193.857,269.775 193.912,269.500 193.747 C 269.160 193.543,269.176 193.663,269.549 194.123 C 269.851 194.495,270.376 194.800,270.716 194.800 C 271.055 194.800,271.225 194.908,271.093 195.040 C 270.751 195.382,273.540 198.084,273.964 197.822 C 274.158 197.702,274.423 197.883,274.554 198.223 C 274.714 198.640,274.630 198.747,274.295 198.552 C 274.023 198.393,274.119 198.627,274.510 199.073 C 275.218 199.883,275.094 201.200,274.308 201.200 C 274.085 201.200,274.149 201.504,274.451 201.875 C 274.930 202.464,274.913 202.517,274.320 202.295 C 273.858 202.122,273.562 202.290,273.394 202.820 C 273.179 203.496,272.650 203.821,272.287 203.500 C 271.929 203.183,270.163 205.510,270.314 206.100 C 270.413 206.485,270.292 206.800,270.047 206.800 C 269.801 206.800,269.600 206.594,269.600 206.343 C 269.600 206.091,268.684 206.802,267.564 207.922 C 266.444 209.042,265.647 210.152,265.793 210.389 C 265.940 210.626,265.821 210.770,265.530 210.710 C 265.238 210.649,265.043 210.819,265.095 211.086 C 265.151 211.371,264.939 211.475,264.579 211.337 C 264.191 211.188,264.010 211.303,264.084 211.651 C 264.148 211.953,263.953 212.148,263.651 212.084 C 263.295 212.008,263.188 212.191,263.346 212.604 C 263.487 212.970,263.424 213.138,263.199 212.999 C 262.687 212.683,260.683 214.687,260.999 215.199 C 261.133 215.414,260.999 215.498,260.702 215.384 C 260.016 215.121,256.280 219.082,256.650 219.681 C 256.806 219.933,256.742 220.012,256.504 219.864 C 256.273 219.721,255.971 219.899,255.832 220.260 C 255.694 220.620,255.474 220.807,255.343 220.676 C 254.953 220.286,253.925 221.555,254.230 222.049 C 254.401 222.325,254.296 222.432,253.964 222.321 C 253.197 222.066,252.485 222.840,252.707 223.688 C 252.810 224.080,252.692 224.400,252.447 224.400 C 252.201 224.400,252.000 224.221,252.000 224.003 C 252.000 223.784,251.556 223.991,251.014 224.463 C 250.471 224.935,250.139 225.501,250.275 225.722 C 250.412 225.943,250.343 226.012,250.122 225.875 C 249.582 225.541,247.902 227.518,248.249 228.079 C 248.409 228.338,248.342 228.412,248.091 228.256 C 247.852 228.109,247.543 228.351,247.402 228.794 C 247.182 229.486,246.639 229.834,246.298 229.500 C 245.997 229.205,239.560 236.011,239.789 236.382 C 239.940 236.627,239.826 236.771,239.530 236.710 C 239.238 236.649,239.043 236.819,239.095 237.086 C 239.151 237.371,238.939 237.475,238.579 237.337 C 238.191 237.188,238.010 237.303,238.084 237.651 C 238.148 237.953,237.953 238.148,237.651 238.084 C 237.308 238.011,237.188 238.192,237.331 238.563 C 237.494 238.988,237.373 239.088,236.910 238.910 C 236.415 238.720,236.325 238.828,236.531 239.364 C 236.710 239.831,236.634 240.011,236.304 239.901 C 235.666 239.689,234.672 240.669,234.995 241.192 C 235.131 241.412,234.999 241.498,234.702 241.384 C 234.016 241.121,230.280 245.082,230.650 245.681 C 230.809 245.938,230.742 246.011,230.491 245.856 C 230.252 245.709,229.943 245.951,229.802 246.394 C 229.564 247.142,229.109 247.388,228.251 247.231 C 228.059 247.196,228.014 247.460,228.151 247.817 C 228.310 248.231,228.222 248.407,227.909 248.303 C 227.189 248.063,226.492 248.866,226.707 249.688 C 226.810 250.080,226.692 250.400,226.447 250.400 C 226.201 250.400,226.000 250.221,226.000 250.003 C 226.000 249.784,225.556 249.991,225.014 250.463 C 224.471 250.935,224.139 251.501,224.275 251.722 C 224.412 251.943,224.343 252.012,224.122 251.875 C 223.582 251.541,221.902 253.518,222.249 254.079 C 222.400 254.324,222.359 254.422,222.157 254.297 C 221.783 254.066,220.325 254.937,220.373 255.364 C 220.388 255.494,220.349 255.555,220.286 255.500 C 219.980 255.233,212.767 262.823,212.987 263.179 C 213.140 263.426,212.987 263.493,212.604 263.346 C 212.191 263.188,212.008 263.295,212.084 263.651 C 212.148 263.953,211.953 264.148,211.651 264.084 C 211.308 264.011,211.188 264.192,211.331 264.563 C 211.494 264.988,211.373 265.088,210.910 264.910 C 210.415 264.720,210.325 264.828,210.531 265.364 C 210.710 265.831,210.634 266.011,210.304 265.901 C 209.625 265.675,208.682 266.685,209.036 267.259 C 209.221 267.558,209.148 267.615,208.832 267.420 C 208.234 267.050,206.315 268.739,206.674 269.320 C 206.811 269.542,206.743 269.612,206.522 269.475 C 205.982 269.141,204.302 271.118,204.649 271.679 C 204.809 271.938,204.742 272.012,204.491 271.856 C 204.252 271.709,203.943 271.951,203.802 272.394 C 203.581 273.091,203.054 273.425,202.687 273.100 C 202.329 272.783,200.563 275.110,200.714 275.700 C 200.813 276.085,200.692 276.400,200.447 276.400 C 200.201 276.400,200.000 276.194,200.000 275.943 C 200.000 275.691,199.084 276.402,197.964 277.522 C 196.844 278.642,196.047 279.752,196.193 279.989 C 196.340 280.226,196.221 280.370,195.930 280.310 C 195.638 280.249,195.443 280.419,195.495 280.686 C 195.551 280.971,195.339 281.075,194.979 280.937 C 194.591 280.788,194.410 280.903,194.484 281.251 C 194.548 281.553,194.353 281.748,194.051 281.684 C 193.695 281.608,193.588 281.791,193.746 282.204 C 193.887 282.570,193.824 282.738,193.599 282.599 C 193.087 282.283,191.083 284.287,191.399 284.799 C 191.533 285.014,191.399 285.098,191.102 284.984 C 190.416 284.721,186.680 288.682,187.050 289.281 C 187.206 289.533,187.142 289.612,186.904 289.464 C 186.673 289.321,186.376 289.485,186.245 289.828 C 186.109 290.181,185.802 290.325,185.535 290.160 C 185.220 289.965,185.146 290.082,185.312 290.514 C 185.494 290.990,185.389 291.094,184.910 290.910 C 184.413 290.719,184.325 290.828,184.535 291.375 C 184.722 291.863,184.648 292.027,184.302 291.895 C 183.643 291.641,182.887 292.461,183.124 293.172 C 183.246 293.539,183.102 293.648,182.697 293.493 C 181.988 293.220,180.235 294.886,180.696 295.394 C 180.863 295.578,180.802 295.616,180.560 295.478 C 179.986 295.151,178.292 297.102,178.649 297.679 C 178.809 297.938,178.742 298.012,178.491 297.856 C 178.252 297.709,177.943 297.951,177.802 298.394 C 177.661 298.837,177.378 299.200,177.173 299.200 C 176.445 299.200,176.166 299.421,173.059 302.466 C 171.294 304.196,170.037 305.736,170.189 305.982 C 170.340 306.227,170.226 306.371,169.930 306.310 C 169.638 306.249,169.443 306.419,169.495 306.686 C 169.551 306.971,169.339 307.075,168.979 306.937 C 168.591 306.788,168.410 306.903,168.484 307.251 C 168.548 307.553,168.353 307.748,168.051 307.684 C 167.708 307.611,167.588 307.792,167.731 308.163 C 167.894 308.588,167.773 308.688,167.310 308.510 C 166.815 308.320,166.725 308.428,166.931 308.964 C 167.110 309.431,167.034 309.611,166.704 309.501 C 166.066 309.289,165.072 310.269,165.395 310.792 C 165.531 311.012,165.399 311.098,165.102 310.984 C 164.393 310.712,160.685 314.680,161.052 315.319 C 161.204 315.584,161.186 315.671,161.011 315.514 C 160.837 315.356,160.343 315.673,159.915 316.217 C 159.486 316.762,158.940 317.086,158.700 316.938 C 158.417 316.764,158.358 316.915,158.532 317.368 C 158.709 317.828,158.633 318.011,158.309 317.903 C 157.589 317.663,156.892 318.466,157.107 319.288 C 157.210 319.680,157.092 320.000,156.847 320.000 C 156.601 320.000,156.400 319.821,156.400 319.603 C 156.400 319.384,155.956 319.591,155.414 320.063 C 154.871 320.535,154.539 321.101,154.675 321.322 C 154.812 321.543,154.743 321.612,154.522 321.475 C 153.982 321.141,152.302 323.118,152.649 323.679 C 152.800 323.924,152.759 324.022,152.557 323.897 C 152.176 323.662,150.965 324.377,150.860 324.900 C 150.827 325.065,150.665 325.238,150.500 325.284 C 149.728 325.500,143.163 332.417,143.387 332.779 C 143.540 333.026,143.387 333.093,143.004 332.946 C 142.591 332.788,142.408 332.895,142.484 333.251 C 142.548 333.553,142.353 333.748,142.051 333.684 C 141.708 333.611,141.588 333.792,141.731 334.163 C 141.894 334.588,141.773 334.688,141.310 334.510 C 140.815 334.320,140.725 334.428,140.931 334.964 C 141.110 335.431,141.034 335.611,140.704 335.501 C 140.025 335.275,139.082 336.285,139.436 336.859 C 139.621 337.158,139.548 337.215,139.232 337.020 C 138.634 336.650,136.715 338.339,137.074 338.920 C 137.211 339.142,137.143 339.212,136.922 339.075 C 136.382 338.741,134.702 340.718,135.049 341.279 C 135.209 341.538,135.142 341.612,134.891 341.456 C 134.652 341.309,134.343 341.551,134.202 341.994 C 133.964 342.742,133.509 342.988,132.651 342.831 C 132.459 342.796,132.414 343.060,132.551 343.417 C 132.710 343.831,132.622 344.007,132.309 343.903 C 131.589 343.663,130.892 344.466,131.107 345.288 C 131.210 345.680,131.092 346.000,130.847 346.000 C 130.601 346.000,130.400 345.794,130.400 345.543 C 130.400 345.291,129.484 346.002,128.364 347.122 C 127.244 348.242,126.447 349.352,126.593 349.589 C 126.740 349.826,126.621 349.970,126.330 349.910 C 126.038 349.849,125.843 350.019,125.895 350.286 C 125.954 350.585,125.737 350.674,125.330 350.518 C 124.884 350.347,124.764 350.418,124.960 350.735 C 125.125 351.002,124.981 351.309,124.628 351.445 C 124.285 351.576,124.121 351.873,124.264 352.104 C 124.415 352.348,124.332 352.405,124.065 352.240 C 123.507 351.895,121.458 353.847,121.799 354.399 C 121.933 354.614,121.799 354.698,121.502 354.584 C 120.958 354.375,117.642 357.627,116.805 359.191 C 116.558 359.652,116.160 359.899,115.912 359.746 C 115.623 359.567,115.552 359.698,115.712 360.114 C 115.894 360.590,115.789 360.694,115.310 360.510 C 114.813 360.319,114.725 360.428,114.935 360.975 C 115.122 361.463,115.048 361.627,114.702 361.495 C 113.901 361.187,113.157 362.190,113.730 362.805 C 114.101 363.202,114.015 363.264,113.328 363.099 C 112.370 362.869,110.562 364.405,111.096 364.994 C 111.263 365.178,111.202 365.216,110.960 365.078 C 110.248 364.672,108.779 366.611,109.339 367.217 C 109.697 367.606,109.648 367.664,109.120 367.479 C 108.666 367.320,108.359 367.499,108.194 368.020 C 108.057 368.449,107.778 368.800,107.573 368.800 C 107.368 368.800,107.107 368.797,106.993 368.793 C 106.398 368.772,104.958 370.694,105.114 371.300 C 105.213 371.685,105.092 372.000,104.847 372.000 C 104.601 372.000,104.400 371.794,104.400 371.543 C 104.400 371.291,103.484 372.002,102.364 373.122 C 101.244 374.242,100.447 375.352,100.593 375.589 C 100.740 375.826,100.621 375.970,100.330 375.910 C 100.038 375.849,99.843 376.019,99.895 376.286 C 99.951 376.571,99.739 376.675,99.379 376.537 C 98.991 376.388,98.810 376.503,98.884 376.851 C 98.948 377.153,98.753 377.348,98.451 377.284 C 98.095 377.208,97.988 377.391,98.146 377.804 C 98.287 378.170,98.224 378.338,97.999 378.199 C 97.487 377.883,95.483 379.887,95.799 380.399 C 95.933 380.616,95.783 380.691,95.461 380.568 C 95.142 380.446,94.745 380.566,94.579 380.835 C 94.385 381.147,94.443 381.221,94.738 381.038 C 95.008 380.871,95.200 381.000,95.200 381.349 C 95.200 381.678,94.837 382.061,94.394 382.202 C 93.744 382.408,93.617 382.729,93.741 383.853 C 93.833 384.688,93.675 385.468,93.347 385.795 C 92.735 386.407,92.562 390.994,93.165 390.622 C 93.567 390.373,93.510 391.423,93.099 391.834 C 92.957 391.976,93.118 392.513,93.455 393.028 C 93.793 393.543,93.961 394.140,93.828 394.355 C 93.695 394.569,93.790 394.870,94.038 395.024 C 94.286 395.177,94.641 395.057,94.827 394.756 C 95.069 394.364,95.146 394.455,95.099 395.077 C 95.063 395.554,94.891 395.856,94.717 395.749 C 93.887 395.236,94.574 396.157,96.200 397.738 C 97.190 398.700,98.000 399.401,98.000 399.295 C 98.000 399.189,98.225 399.288,98.500 399.515 C 99.382 400.242,111.910 400.151,113.043 399.408 C 113.570 399.064,114.000 398.882,114.000 399.005 C 114.000 399.128,114.427 398.817,114.948 398.314 C 115.685 397.603,115.796 397.272,115.448 396.825 C 115.087 396.362,115.137 396.301,115.700 396.513 C 116.163 396.686,116.400 396.581,116.400 396.202 C 116.400 395.520,117.758 394.705,118.211 395.114 C 118.385 395.271,118.409 395.070,118.263 394.667 C 118.092 394.189,118.166 393.989,118.476 394.092 C 119.146 394.315,121.999 391.450,122.006 390.547 C 122.011 389.997,122.100 389.938,122.344 390.323 C 122.690 390.869,125.104 388.271,124.905 387.566 C 124.852 387.381,125.122 387.346,125.505 387.489 C 126.135 387.725,126.144 387.679,125.600 386.998 C 125.270 386.585,125.210 386.373,125.468 386.527 C 125.725 386.681,126.199 386.544,126.520 386.223 C 126.842 385.901,127.245 385.765,127.416 385.919 C 127.587 386.074,127.607 385.865,127.459 385.455 C 127.276 384.946,127.350 384.772,127.695 384.904 C 127.973 385.010,129.432 383.860,130.938 382.348 C 132.444 380.837,133.568 379.600,133.435 379.600 C 133.302 379.600,133.671 379.065,134.253 378.411 C 134.836 377.757,135.498 377.337,135.724 377.477 C 135.979 377.634,136.034 377.465,135.868 377.032 C 135.690 376.569,135.767 376.389,136.096 376.499 C 136.775 376.725,137.718 375.715,137.364 375.141 C 137.189 374.859,137.251 374.784,137.520 374.950 C 138.144 375.336,139.599 373.984,139.606 373.011 C 139.610 372.453,139.712 372.357,139.932 372.703 C 140.168 373.076,140.467 372.957,141.087 372.244 C 141.726 371.509,141.814 371.165,141.461 370.783 C 141.102 370.393,141.155 370.337,141.700 370.529 C 142.164 370.692,142.400 370.574,142.400 370.179 C 142.400 369.851,142.844 369.380,143.387 369.133 C 143.931 368.885,144.263 368.502,144.126 368.280 C 143.989 368.058,144.072 367.997,144.312 368.146 C 144.857 368.482,149.249 364.404,148.919 363.868 C 148.785 363.653,148.851 363.585,149.065 363.717 C 149.279 363.849,149.712 363.590,150.027 363.141 C 150.342 362.693,150.911 361.959,151.292 361.511 C 151.672 361.063,151.863 360.495,151.715 360.248 C 151.567 360.002,151.785 360.070,152.198 360.400 C 152.878 360.942,152.925 360.935,152.695 360.320 C 152.504 359.810,152.602 359.703,153.090 359.890 C 153.585 360.080,153.675 359.972,153.469 359.436 C 153.290 358.969,153.366 358.789,153.696 358.899 C 154.375 359.125,155.318 358.115,154.964 357.541 C 154.781 357.246,154.851 357.185,155.157 357.373 C 155.917 357.843,159.673 353.841,159.071 353.201 C 158.705 352.812,158.733 352.740,159.196 352.882 C 159.524 352.982,160.123 352.643,160.528 352.128 C 160.933 351.613,161.460 351.314,161.700 351.462 C 161.983 351.636,162.042 351.485,161.868 351.032 C 161.694 350.580,161.768 350.389,162.076 350.492 C 162.746 350.715,165.599 347.850,165.606 346.947 C 165.610 346.421,165.707 346.349,165.932 346.703 C 166.167 347.074,166.483 346.938,167.138 346.185 C 167.626 345.624,167.902 344.965,167.751 344.721 C 167.585 344.452,167.659 344.389,167.938 344.562 C 168.213 344.732,168.400 344.591,168.400 344.215 C 168.400 343.867,168.850 343.378,169.400 343.127 C 169.950 342.877,170.400 342.510,170.400 342.312 C 170.400 342.115,170.599 342.076,170.843 342.226 C 171.146 342.414,171.195 342.201,170.998 341.550 C 170.767 340.788,170.811 340.696,171.220 341.085 C 171.625 341.470,172.230 341.052,174.165 339.049 C 176.310 336.829,177.183 335.794,179.067 333.236 C 179.324 332.887,179.661 332.727,179.815 332.882 C 180.239 333.306,181.294 332.075,180.964 331.541 C 180.789 331.259,180.851 331.184,181.120 331.350 C 181.667 331.689,183.200 330.432,183.200 329.644 C 183.200 329.327,183.308 329.175,183.441 329.307 C 183.965 329.832,185.515 327.824,185.048 327.225 C 184.687 326.762,184.737 326.701,185.300 326.913 C 185.752 327.082,186.000 326.982,186.000 326.630 C 186.000 326.082,187.100 325.404,187.749 325.553 C 187.941 325.597,187.986 325.340,187.849 324.983 C 187.693 324.577,187.779 324.393,188.076 324.492 C 188.746 324.715,191.599 321.850,191.606 320.947 C 191.611 320.397,191.700 320.338,191.944 320.723 C 192.290 321.269,194.704 318.671,194.505 317.966 C 194.452 317.781,194.722 317.746,195.105 317.889 C 195.735 318.125,195.744 318.079,195.200 317.398 C 194.870 316.985,194.810 316.773,195.068 316.927 C 195.325 317.081,195.799 316.944,196.120 316.623 C 196.442 316.301,196.845 316.165,197.016 316.319 C 197.187 316.474,197.209 316.270,197.063 315.867 C 196.886 315.373,196.963 315.190,197.300 315.308 C 197.796 315.481,202.732 310.654,204.125 308.635 C 204.525 308.054,205.048 307.706,205.293 307.857 C 205.584 308.037,205.644 307.891,205.468 307.432 C 205.290 306.969,205.367 306.789,205.696 306.899 C 206.375 307.125,207.318 306.115,206.964 305.541 C 206.789 305.259,206.851 305.184,207.120 305.350 C 207.697 305.707,209.200 304.414,209.200 303.560 C 209.200 303.196,209.470 302.674,209.800 302.400 C 210.215 302.056,210.400 302.041,210.400 302.351 C 210.400 302.598,210.220 302.800,210.000 302.800 C 209.780 302.800,209.600 303.021,209.600 303.292 C 209.600 303.562,210.027 303.337,210.549 302.792 C 211.287 302.021,211.398 301.672,211.049 301.225 C 210.687 300.762,210.736 300.701,211.300 300.913 C 211.771 301.089,212.000 300.980,212.000 300.579 C 212.000 300.251,212.450 299.778,213.000 299.527 C 213.550 299.277,214.000 298.890,214.000 298.669 C 214.000 298.448,214.112 298.379,214.249 298.516 C 214.652 298.919,221.200 292.043,221.200 291.217 C 221.200 290.988,221.470 290.800,221.800 290.800 C 222.130 290.800,222.400 290.609,222.400 290.376 C 222.400 290.143,222.611 290.083,222.868 290.242 C 223.187 290.439,223.251 290.309,223.068 289.832 C 222.890 289.369,222.967 289.189,223.296 289.299 C 223.975 289.525,224.918 288.515,224.564 287.941 C 224.381 287.646,224.451 287.585,224.757 287.773 C 225.054 287.957,226.004 287.292,227.241 286.035 C 228.343 284.916,229.143 284.000,229.019 284.000 C 228.895 284.000,229.271 283.465,229.853 282.811 C 230.436 282.157,231.098 281.737,231.324 281.877 C 231.579 282.034,231.634 281.865,231.468 281.432 C 231.294 280.980,231.368 280.789,231.676 280.892 C 232.346 281.115,235.199 278.250,235.206 277.347 C 235.210 276.821,235.307 276.749,235.532 277.103 C 235.768 277.476,236.067 277.357,236.687 276.644 C 237.326 275.909,237.414 275.565,237.061 275.183 C 236.702 274.793,236.755 274.737,237.300 274.929 C 237.764 275.092,238.000 274.974,238.000 274.579 C 238.000 274.251,238.450 273.778,239.000 273.527 C 239.550 273.277,240.000 272.910,240.000 272.712 C 240.000 272.515,240.199 272.476,240.443 272.626 C 240.746 272.814,240.795 272.601,240.598 271.950 C 240.367 271.188,240.411 271.096,240.820 271.485 C 241.225 271.870,241.830 271.452,243.765 269.449 C 245.910 267.229,246.783 266.194,248.667 263.636 C 248.924 263.287,249.261 263.127,249.415 263.282 C 249.839 263.706,250.894 262.475,250.564 261.941 C 250.381 261.646,250.451 261.585,250.757 261.773 C 251.522 262.246,255.271 258.242,254.671 257.593 C 254.300 257.190,254.348 257.134,254.900 257.329 C 255.345 257.485,255.600 257.376,255.600 257.030 C 255.600 256.482,256.700 255.804,257.349 255.953 C 257.541 255.997,257.586 255.740,257.449 255.383 C 257.293 254.977,257.379 254.793,257.676 254.892 C 258.346 255.115,261.199 252.250,261.206 251.347 C 261.211 250.809,261.303 250.743,261.538 251.113 C 261.777 251.490,262.142 251.289,262.918 250.352 C 263.498 249.652,263.877 248.925,263.760 248.736 C 263.644 248.547,264.099 248.079,264.772 247.696 C 265.444 247.313,265.996 246.854,265.997 246.676 C 265.999 246.498,266.211 246.483,266.468 246.642 C 266.787 246.839,266.851 246.709,266.668 246.232 C 266.489 245.766,266.566 245.591,266.900 245.705 C 267.399 245.877,271.178 242.210,273.341 239.456 C 273.968 238.657,274.673 238.122,274.908 238.267 C 275.181 238.436,275.239 238.278,275.068 237.832 C 274.890 237.369,274.967 237.189,275.296 237.299 C 275.975 237.525,276.918 236.515,276.564 235.941 C 276.389 235.659,276.451 235.584,276.720 235.750 C 277.267 236.089,278.800 234.832,278.800 234.044 C 278.800 233.727,278.908 233.575,279.041 233.707 C 279.565 234.232,281.115 232.224,280.648 231.625 C 280.287 231.162,280.337 231.101,280.900 231.313 C 281.371 231.489,281.600 231.380,281.600 230.979 C 281.600 230.651,282.050 230.178,282.600 229.927 C 283.150 229.677,283.600 229.290,283.600 229.069 C 283.600 228.848,283.705 228.772,283.834 228.900 C 284.221 229.288,287.200 226.150,287.206 225.347 C 287.211 224.798,287.300 224.738,287.543 225.122 C 287.790 225.511,288.120 225.324,288.837 224.388 C 289.367 223.696,290.025 222.889,290.300 222.594 C 290.575 222.299,290.800 221.864,290.800 221.629 C 290.800 221.393,291.070 221.200,291.400 221.200 C 291.730 221.200,292.000 221.009,292.000 220.776 C 292.000 220.543,292.211 220.483,292.468 220.642 C 292.787 220.839,292.851 220.709,292.668 220.232 C 292.490 219.769,292.567 219.589,292.896 219.699 C 293.534 219.911,294.528 218.931,294.205 218.408 C 294.069 218.188,294.201 218.102,294.498 218.216 C 294.804 218.334,295.845 217.556,296.912 216.411 C 297.944 215.305,298.699 214.400,298.591 214.400 C 298.482 214.400,298.871 213.865,299.453 213.211 C 300.036 212.557,300.698 212.137,300.924 212.277 C 301.179 212.434,301.234 212.265,301.068 211.832 C 300.891 211.372,300.967 211.189,301.291 211.297 C 301.928 211.509,302.751 210.738,302.523 210.143 C 302.425 209.889,302.538 209.562,302.773 209.417 C 303.008 209.272,303.200 209.342,303.200 209.572 C 303.200 209.803,303.560 209.684,304.000 209.307 C 304.440 208.930,304.800 208.304,304.800 207.914 C 304.800 207.525,305.151 206.988,305.580 206.720 C 306.159 206.358,306.249 206.100,305.931 205.716 C 305.624 205.347,305.630 205.200,305.951 205.200 C 306.198 205.200,306.400 204.840,306.400 204.400 C 306.400 203.960,306.580 203.600,306.800 203.600 C 307.037 203.600,307.200 202.133,307.200 200.000 C 307.200 197.867,307.037 196.400,306.800 196.400 C 306.580 196.400,306.400 195.849,306.400 195.176 C 306.400 194.503,306.233 194.056,306.029 194.182 C 305.626 194.431,304.987 192.880,305.344 192.522 C 305.575 192.292,304.634 191.200,304.205 191.200 C 304.066 191.200,304.088 191.425,304.253 191.700 C 304.460 192.044,304.344 192.030,303.881 191.655 C 303.511 191.355,303.281 190.993,303.369 190.850 C 303.765 190.209,302.380 188.988,301.954 189.602 C 301.588 190.130,301.558 190.130,301.702 189.604 C 301.920 188.802,300.928 187.865,300.169 188.157 C 299.833 188.285,299.664 188.219,299.794 188.010 C 300.006 187.666,298.685 186.000,298.200 186.000 C 298.090 186.000,298.012 185.896,298.026 185.770 C 298.041 185.643,297.673 185.211,297.210 184.809 C 296.601 184.280,296.510 184.020,296.884 183.870 C 297.223 183.734,297.169 183.652,296.727 183.632 C 296.357 183.614,295.950 183.273,295.823 182.872 C 295.696 182.472,295.009 181.718,294.296 181.196 C 293.255 180.433,293.118 180.400,293.600 181.024 C 294.155 181.742,294.148 181.759,293.500 181.251 C 293.115 180.949,292.800 180.466,292.800 180.178 C 292.800 179.890,292.403 179.528,291.919 179.374 C 291.023 179.090,290.000 178.257,290.000 177.812 C 290.000 177.677,289.646 177.187,289.214 176.723 C 288.781 176.259,288.522 175.726,288.637 175.539 C 288.753 175.353,288.672 175.200,288.457 175.200 C 288.242 175.200,287.991 175.335,287.899 175.500 C 287.807 175.665,287.790 175.563,287.863 175.274 C 288.002 174.720,284.498 171.231,283.783 171.211 C 283.262 171.197,279.643 167.397,279.503 166.718 C 279.385 166.144,278.577 165.200,278.205 165.200 C 278.066 165.200,278.088 165.425,278.253 165.700 C 278.457 166.040,278.337 166.024,277.877 165.651 C 277.087 165.010,276.975 164.625,277.700 165.038 C 277.975 165.195,277.671 164.756,277.025 164.062 C 275.681 162.618,275.093 162.348,276.238 163.700 L 277.000 164.600 276.100 163.838 C 275.605 163.419,275.200 162.813,275.200 162.491 C 275.200 162.103,274.931 161.977,274.399 162.116 C 273.959 162.231,273.692 162.175,273.805 161.992 C 273.918 161.808,273.211 160.846,272.232 159.854 C 271.168 158.775,270.643 157.971,270.926 157.856 C 271.188 157.749,271.099 157.649,270.727 157.632 C 270.357 157.614,269.943 157.285,269.807 156.900 C 269.671 156.515,268.983 155.758,268.280 155.218 C 267.127 154.333,267.076 154.323,267.762 155.118 C 268.181 155.603,268.331 156.000,268.096 156.000 C 267.860 156.000,267.427 155.458,267.134 154.795 C 266.841 154.133,266.290 153.492,265.911 153.372 C 265.144 153.128,262.300 149.967,262.588 149.678 C 262.689 149.577,262.262 149.023,261.638 148.447 C 257.936 145.029,257.206 144.400,256.944 144.400 C 256.784 144.400,255.785 143.500,254.725 142.400 C 253.665 141.300,252.991 140.400,253.227 140.400 C 253.464 140.400,253.376 140.119,253.032 139.774 C 252.688 139.430,252.237 139.253,252.031 139.381 C 251.824 139.509,251.525 139.402,251.366 139.145 C 251.185 138.852,251.250 138.784,251.538 138.962 C 252.379 139.482,252.018 138.966,250.706 137.775 C 249.626 136.794,249.543 136.765,250.206 137.600 L 251.000 138.600 250.100 137.838 C 249.605 137.419,249.200 136.834,249.200 136.538 C 249.200 136.242,248.930 136.000,248.600 136.000 C 248.270 136.000,248.000 135.832,248.000 135.627 C 248.000 135.422,247.640 135.140,247.200 135.000 C 246.760 134.860,246.400 134.554,246.400 134.319 C 246.400 134.084,245.955 133.479,245.411 132.975 C 244.754 132.367,244.587 131.993,244.911 131.861 C 245.190 131.748,245.099 131.650,244.700 131.632 C 244.315 131.614,244.000 131.427,244.000 131.216 C 244.000 130.778,242.757 129.551,241.016 128.271 C 238.960 126.758,236.392 123.936,236.667 123.492 C 236.832 123.224,236.686 123.158,236.278 123.315 C 235.919 123.452,235.502 123.365,235.351 123.121 C 235.185 122.852,235.259 122.789,235.538 122.962 C 236.344 123.460,236.036 122.725,235.100 121.916 C 234.605 121.488,233.516 120.506,232.680 119.734 C 231.772 118.896,230.917 118.423,230.559 118.560 C 230.229 118.687,230.064 118.619,230.194 118.410 C 230.465 117.971,228.985 116.349,228.633 116.700 C 228.505 116.828,228.400 116.673,228.400 116.355 C 228.400 116.037,228.044 115.520,227.609 115.206 C 227.027 114.787,226.948 114.554,227.309 114.324 C 227.659 114.102,227.611 114.010,227.143 114.006 C 226.781 114.003,226.378 113.719,226.246 113.375 C 226.111 113.025,225.801 112.876,225.541 113.036 C 225.276 113.200,225.184 113.150,225.326 112.920 C 225.463 112.698,225.087 112.085,224.491 111.558 L 223.406 110.600 224.203 111.600 L 225.000 112.600 224.100 111.838 C 223.605 111.419,223.200 110.846,223.200 110.565 C 223.200 110.284,222.803 109.928,222.319 109.774 C 221.423 109.490,220.400 108.657,220.400 108.212 C 220.400 108.077,220.046 107.587,219.614 107.123 C 219.181 106.659,218.922 106.126,219.037 105.939 C 219.153 105.753,219.072 105.600,218.857 105.600 C 218.642 105.600,218.391 105.735,218.299 105.900 C 218.207 106.065,218.190 105.963,218.263 105.674 C 218.402 105.120,214.898 101.631,214.183 101.611 C 213.953 101.605,212.910 100.694,211.866 99.587 C 210.821 98.480,209.823 97.662,209.649 97.769 C 209.476 97.877,209.333 97.697,209.333 97.369 C 209.333 96.959,209.462 96.902,209.747 97.187 C 209.974 97.414,210.312 97.600,210.498 97.600 C 210.684 97.600,210.386 97.150,209.836 96.600 C 208.770 95.534,208.157 95.275,208.653 96.100 C 208.857 96.440,208.737 96.424,208.277 96.051 C 207.485 95.409,207.380 95.035,208.100 95.421 C 208.375 95.568,207.831 94.931,206.890 94.005 C 205.813 92.944,204.955 92.408,204.570 92.556 C 204.196 92.700,204.061 92.625,204.223 92.363 C 204.368 92.128,204.107 91.670,203.643 91.345 C 203.180 91.020,202.800 90.495,202.800 90.177 C 202.800 89.860,202.607 89.600,202.371 89.600 C 201.617 89.600,200.733 88.494,201.304 88.264 C 201.606 88.141,201.537 88.051,201.127 88.032 C 200.757 88.014,200.343 87.685,200.207 87.300 C 200.071 86.915,199.383 86.158,198.680 85.618 L 197.400 84.635 198.200 85.618 L 199.000 86.600 198.100 85.838 C 197.605 85.419,197.200 84.834,197.200 84.538 C 197.200 84.242,196.993 84.000,196.740 84.000 C 196.018 84.000,192.772 80.369,193.067 79.892 C 193.232 79.624,193.086 79.558,192.678 79.715 C 192.319 79.852,191.902 79.765,191.751 79.521 C 191.585 79.252,191.659 79.189,191.938 79.362 C 192.744 79.860,192.436 79.125,191.500 78.316 C 191.005 77.888,189.933 76.922,189.117 76.169 C 188.302 75.416,187.492 74.800,187.317 74.799 C 186.876 74.798,184.028 71.728,183.903 71.117 C 183.785 70.544,182.977 69.600,182.605 69.600 C 182.466 69.600,182.464 69.780,182.600 70.000 C 183.002 70.651,182.543 70.456,181.949 69.723 C 181.476 69.140,181.483 69.093,182.000 69.385 C 182.330 69.571,182.071 69.156,181.425 68.462 C 180.081 67.018,179.493 66.748,180.638 68.100 L 181.400 69.000 180.500 68.238 C 180.005 67.819,179.600 67.234,179.600 66.938 C 179.600 66.642,179.330 66.400,179.000 66.400 C 178.670 66.400,178.400 66.232,178.400 66.027 C 178.400 65.822,178.040 65.540,177.600 65.400 C 177.160 65.260,176.800 64.954,176.800 64.719 C 176.800 64.484,176.355 63.879,175.811 63.375 C 175.154 62.767,174.987 62.393,175.311 62.261 C 175.590 62.148,175.499 62.050,175.100 62.032 C 174.715 62.014,174.400 61.827,174.400 61.616 C 174.400 61.178,173.157 59.951,171.416 58.671 C 169.360 57.158,166.792 54.336,167.067 53.892 C 167.232 53.624,167.086 53.558,166.678 53.715 C 166.319 53.852,165.902 53.765,165.751 53.521 C 165.585 53.252,165.659 53.189,165.938 53.362 C 166.744 53.860,166.436 53.125,165.500 52.316 C 165.005 51.888,163.916 50.906,163.080 50.134 C 162.172 49.296,161.317 48.823,160.959 48.960 C 160.623 49.089,160.465 49.019,160.600 48.800 C 160.732 48.586,160.021 47.613,159.019 46.639 C 157.862 45.515,157.380 44.794,157.698 44.666 C 158.017 44.537,157.961 44.452,157.543 44.432 C 157.181 44.414,156.778 44.119,156.646 43.775 C 156.511 43.425,156.201 43.276,155.941 43.436 C 155.676 43.600,155.584 43.550,155.726 43.320 C 155.863 43.098,155.487 42.485,154.891 41.958 L 153.806 41.000 154.603 42.000 L 155.400 43.000 154.500 42.238 C 154.005 41.819,153.600 41.262,153.600 41.001 C 153.600 40.740,152.970 40.187,152.200 39.772 C 151.430 39.357,150.800 38.871,150.800 38.692 C 150.800 38.513,150.446 37.987,150.014 37.523 C 149.581 37.059,149.322 36.526,149.437 36.339 C 149.553 36.153,149.367 36.000,149.024 36.000 C 148.681 36.000,148.400 35.850,148.400 35.666 C 148.400 35.482,147.590 34.510,146.600 33.506 C 145.610 32.502,144.800 31.787,144.800 31.918 C 144.800 32.049,145.284 32.661,145.875 33.278 C 146.466 33.895,146.736 34.400,146.475 34.400 C 146.214 34.400,146.000 34.253,146.000 34.073 C 146.000 33.894,144.813 32.554,143.362 31.096 C 141.682 29.407,140.835 28.267,141.028 27.955 C 141.237 27.616,141.129 27.542,140.678 27.715 C 140.319 27.852,139.902 27.765,139.751 27.521 C 139.585 27.252,139.659 27.189,139.938 27.362 C 140.585 27.761,140.515 27.258,139.829 26.571 C 139.124 25.867,138.646 25.823,139.053 26.500 C 139.260 26.844,139.144 26.830,138.681 26.455 C 138.311 26.155,138.081 25.793,138.169 25.650 C 138.565 25.009,137.180 23.788,136.754 24.402 C 136.388 24.930,136.358 24.930,136.502 24.404 C 136.720 23.602,135.728 22.665,134.969 22.957 C 134.633 23.085,134.464 23.019,134.594 22.810 C 134.806 22.466,133.485 20.800,133.000 20.800 C 132.890 20.800,132.812 20.696,132.826 20.570 C 132.841 20.443,132.473 20.011,132.010 19.609 C 131.401 19.080,131.310 18.820,131.684 18.670 C 132.023 18.534,131.969 18.452,131.527 18.432 C 131.157 18.414,130.743 18.085,130.607 17.700 C 130.471 17.315,129.783 16.558,129.080 16.018 L 127.800 15.035 128.600 16.018 L 129.400 17.000 128.500 16.238 C 128.005 15.819,127.600 15.246,127.600 14.965 C 127.600 14.684,127.249 14.343,126.820 14.206 C 126.027 13.955,123.439 11.102,123.569 10.621 C 123.608 10.476,123.114 9.872,122.471 9.279 C 118.731 5.824,118.005 5.200,117.725 5.200 C 117.169 5.200,113.991 1.539,114.222 1.165 C 114.346 0.964,114.257 0.777,114.024 0.750 C 113.206 0.653,112.995 0.585,112.438 0.232 C 112.022 -0.032,111.959 0.022,112.197 0.438 C 112.456 0.893,112.414 0.904,111.979 0.500 C 111.037 -0.374,98.966 -0.194,98.596 0.700 M120.000 7.400 C 120.517 7.950,120.773 8.394,120.570 8.387 C 120.228 8.376,118.579 6.400,118.912 6.400 C 118.994 6.400,119.483 6.850,120.000 7.400 M111.706 35.294 C 111.625 35.456,111.143 35.186,110.633 34.694 C 110.123 34.202,109.776 33.676,109.862 33.523 C 110.068 33.159,111.895 34.913,111.706 35.294 M118.976 43.499 C 120.063 44.644,121.027 45.507,121.118 45.415 C 121.293 45.240,120.154 44.075,118.177 42.408 C 117.529 41.862,117.889 42.353,118.976 43.499 M164.000 51.400 C 164.746 52.170,165.267 52.800,165.157 52.800 C 165.047 52.800,164.346 52.170,163.600 51.400 C 162.854 50.630,162.333 50.000,162.443 50.000 C 162.553 50.000,163.254 50.630,164.000 51.400 M172.990 96.742 C 172.912 96.821,172.398 96.435,171.848 95.885 C 171.298 95.335,170.946 94.787,171.065 94.668 C 171.185 94.549,171.698 94.935,172.207 95.526 C 172.716 96.116,173.068 96.664,172.990 96.742 M215.600 103.000 C 216.117 103.550,216.373 103.994,216.170 103.987 C 215.828 103.976,214.179 102.000,214.512 102.000 C 214.594 102.000,215.083 102.450,215.600 103.000 M188.576 113.099 C 189.663 114.244,190.627 115.107,190.718 115.015 C 190.893 114.840,189.754 113.675,187.777 112.008 C 187.129 111.462,187.489 111.953,188.576 113.099 M233.622 121.096 C 234.380 121.919,234.537 122.187,233.970 121.693 C 233.404 121.198,232.774 120.929,232.570 121.096 C 232.367 121.263,232.333 121.237,232.497 121.037 C 232.660 120.837,232.593 120.432,232.348 120.137 C 231.389 118.982,232.318 119.682,233.622 121.096 M214.585 139.108 C 216.542 141.170,217.420 141.865,216.349 140.502 C 215.681 139.652,215.304 139.286,213.782 138.008 C 213.132 137.462,213.493 137.957,214.585 139.108 M259.622 147.048 C 260.380 147.845,260.640 148.278,260.200 148.010 C 259.478 147.571,257.763 145.600,258.103 145.600 C 258.180 145.600,258.863 146.252,259.622 147.048 M242.590 166.342 C 242.512 166.421,241.998 166.035,241.448 165.485 C 240.898 164.935,240.546 164.387,240.665 164.268 C 240.785 164.149,241.298 164.535,241.807 165.126 C 242.316 165.716,242.668 166.264,242.590 166.342 M285.200 172.600 C 285.717 173.150,285.973 173.594,285.770 173.587 C 285.428 173.576,283.779 171.600,284.112 171.600 C 284.194 171.600,284.683 172.050,285.200 172.600 M276.400 199.922 C 276.400 200.131,276.130 200.526,275.800 200.800 C 275.097 201.384,274.982 200.778,275.667 200.093 C 276.023 199.737,275.976 199.566,275.469 199.371 C 275.104 199.231,274.905 198.954,275.028 198.755 C 275.273 198.358,276.400 199.316,276.400 199.922 M241.507 235.045 C 241.245 235.620,240.961 235.884,240.877 235.632 C 240.793 235.380,240.943 234.909,241.211 234.587 C 241.937 233.712,242.040 233.874,241.507 235.045 M215.507 261.045 C 215.245 261.620,214.961 261.884,214.877 261.632 C 214.793 261.380,214.943 260.909,215.211 260.587 C 215.937 259.712,216.040 259.874,215.507 261.045 M189.882 286.546 C 189.397 287.286,188.936 287.723,188.857 287.517 C 188.738 287.206,190.292 285.200,190.651 285.200 C 190.713 285.200,190.366 285.805,189.882 286.546 M171.907 304.645 C 171.645 305.220,171.361 305.484,171.277 305.232 C 171.193 304.980,171.343 304.509,171.611 304.187 C 172.337 303.312,172.440 303.474,171.907 304.645 M145.907 330.645 C 145.645 331.220,145.361 331.484,145.277 331.232 C 145.193 330.980,145.343 330.509,145.611 330.187 C 146.337 329.312,146.440 329.474,145.907 330.645 M120.282 356.146 C 119.797 356.886,119.336 357.323,119.257 357.117 C 119.138 356.806,120.692 354.800,121.051 354.800 C 121.113 354.800,120.766 355.405,120.282 356.146 M102.307 374.245 C 102.045 374.820,101.761 375.084,101.677 374.832 C 101.593 374.580,101.743 374.109,102.011 373.787 C 102.737 372.912,102.840 373.074,102.307 374.245 " stroke="none" fill="#6cd4d4" fill-rule="evenodd"></path><path id="path1" d="M114.000 1.281 C 114.000 1.719,117.559 5.374,117.775 5.158 C 117.889 5.045,117.086 4.069,115.991 2.991 C 114.896 1.912,114.000 1.143,114.000 1.281 M119.481 7.387 C 119.877 7.931,120.366 8.381,120.570 8.387 C 120.773 8.394,120.517 7.950,120.000 7.400 C 118.801 6.123,118.557 6.118,119.481 7.387 M92.800 8.576 C 92.800 8.893,92.969 9.257,93.176 9.385 C 93.382 9.513,93.524 9.253,93.491 8.809 C 93.422 7.895,92.800 7.686,92.800 8.576 M123.651 11.087 C 125.204 13.032,125.871 13.710,126.600 14.084 C 127.040 14.310,126.507 13.573,125.415 12.447 C 123.452 10.422,122.588 9.757,123.651 11.087 M93.897 17.300 C 94.115 17.575,94.375 18.065,94.476 18.390 C 94.604 18.801,94.730 18.710,94.893 18.089 C 95.021 17.600,94.962 17.300,94.763 17.423 C 94.563 17.546,94.400 17.457,94.400 17.224 C 94.400 16.991,94.198 16.800,93.951 16.800 C 93.648 16.800,93.630 16.962,93.897 17.300 M131.965 19.570 C 132.453 19.993,132.841 20.443,132.826 20.570 C 132.812 20.696,132.890 20.800,133.000 20.800 C 133.485 20.800,134.806 22.466,134.594 22.810 C 134.461 23.024,134.643 23.081,135.010 22.941 C 135.677 22.685,132.341 18.800,131.454 18.800 C 131.247 18.800,131.477 19.146,131.965 19.570 M100.400 24.405 C 100.400 24.755,103.217 27.316,103.401 27.133 C 103.478 27.055,102.835 26.349,101.971 25.564 C 101.107 24.780,100.400 24.258,100.400 24.405 M140.822 28.200 C 140.812 28.420,141.690 29.454,142.772 30.499 C 143.854 31.543,145.116 32.875,145.575 33.460 C 146.035 34.044,146.493 34.440,146.593 34.340 C 146.693 34.240,145.439 32.728,143.807 30.979 C 142.175 29.231,140.831 27.980,140.822 28.200 M108.800 32.626 C 108.800 33.136,111.543 35.631,111.716 35.278 C 111.790 35.125,111.435 34.601,110.926 34.114 C 110.417 33.627,109.994 33.357,109.987 33.514 C 109.980 33.671,109.710 33.451,109.387 33.024 C 109.064 32.596,108.800 32.418,108.800 32.626 M149.693 37.200 C 149.968 37.640,150.329 38.000,150.496 38.000 C 150.663 38.000,150.801 38.225,150.803 38.500 C 150.804 38.775,151.389 39.328,152.103 39.729 C 153.252 40.376,153.174 40.228,151.415 38.429 C 149.244 36.209,148.938 35.991,149.693 37.200 M118.420 42.440 C 119.002 43.012,120.046 44.074,120.739 44.799 C 122.426 46.564,122.343 46.086,120.600 44.000 C 119.830 43.078,119.200 42.463,119.200 42.632 C 119.200 42.801,118.786 42.593,118.281 42.170 C 117.766 41.738,117.827 41.857,118.420 42.440 M158.984 46.605 C 160.005 47.598,160.732 48.586,160.600 48.800 C 160.461 49.026,160.634 49.085,161.010 48.941 C 161.666 48.689,158.348 44.800,157.478 44.800 C 157.285 44.800,157.962 45.612,158.984 46.605 M126.400 50.332 C 126.400 50.709,129.244 53.289,129.442 53.092 C 129.529 53.004,128.881 52.286,128.001 51.495 C 127.120 50.705,126.400 50.182,126.400 50.332 M163.600 51.400 C 164.346 52.170,165.047 52.800,165.157 52.800 C 165.267 52.800,164.746 52.170,164.000 51.400 C 163.254 50.630,162.553 50.000,162.443 50.000 C 162.333 50.000,162.854 50.630,163.600 51.400 M167.251 54.687 C 168.804 56.632,169.471 57.310,170.200 57.684 C 170.640 57.910,170.107 57.173,169.015 56.047 C 167.052 54.022,166.188 53.357,167.251 54.687 M135.381 59.438 C 135.811 59.857,136.470 60.524,136.845 60.920 C 137.221 61.316,137.618 61.495,137.727 61.318 C 137.837 61.140,137.178 60.474,136.263 59.836 C 135.348 59.198,134.952 59.019,135.381 59.438 M138.000 61.793 C 138.000 61.925,138.382 62.431,138.849 62.917 L 139.699 63.800 139.247 62.922 C 138.800 62.054,138.000 61.329,138.000 61.793 M175.779 63.346 C 176.341 63.866,176.800 64.484,176.800 64.719 C 176.800 64.954,177.160 65.260,177.600 65.400 C 178.040 65.540,178.400 65.822,178.400 66.027 C 178.400 66.232,178.618 66.400,178.885 66.400 C 179.152 66.400,178.483 65.500,177.400 64.400 C 176.317 63.300,175.279 62.400,175.094 62.400 C 174.910 62.400,175.218 62.826,175.779 63.346 M144.934 68.954 C 147.007 71.005,147.753 71.322,146.166 69.478 C 145.635 68.860,145.200 68.487,145.200 68.647 C 145.200 68.808,144.705 68.513,144.100 67.991 C 143.495 67.469,143.870 67.903,144.934 68.954 M183.600 70.881 C 183.600 71.319,187.159 74.974,187.375 74.758 C 187.489 74.645,186.686 73.669,185.591 72.591 C 184.496 71.512,183.600 70.743,183.600 70.881 M152.400 76.325 C 152.400 76.881,155.185 79.148,155.413 78.778 C 155.542 78.570,155.497 78.400,155.313 78.400 C 155.129 78.400,154.398 77.870,153.689 77.223 C 152.980 76.575,152.400 76.171,152.400 76.325 M193.251 80.687 C 194.804 82.632,195.471 83.310,196.200 83.684 C 196.640 83.910,196.107 83.173,195.015 82.047 C 193.052 80.022,192.188 79.357,193.251 80.687 M162.000 86.073 C 163.274 87.375,164.658 87.880,163.496 86.619 C 163.223 86.323,162.923 86.154,162.830 86.244 C 162.736 86.334,162.196 86.010,161.630 85.524 C 161.063 85.039,161.230 85.285,162.000 86.073 M164.000 87.793 C 164.000 87.925,164.382 88.431,164.849 88.917 L 165.699 89.800 165.247 88.922 C 164.800 88.054,164.000 87.329,164.000 87.793 M202.800 90.377 C 202.800 90.585,203.180 91.020,203.643 91.345 C 204.107 91.670,204.368 92.128,204.223 92.363 C 204.058 92.629,204.202 92.697,204.604 92.543 C 205.150 92.333,205.081 92.119,204.150 91.148 C 202.952 89.897,202.800 89.811,202.800 90.377 M170.000 93.826 C 170.000 94.235,172.800 96.934,173.007 96.725 C 173.076 96.656,172.697 96.095,172.166 95.478 C 171.635 94.860,171.194 94.500,171.187 94.678 C 171.180 94.855,170.910 94.651,170.587 94.224 C 170.264 93.796,170.000 93.618,170.000 93.826 M209.333 97.403 C 209.333 97.712,209.476 97.877,209.649 97.769 C 209.823 97.662,210.821 98.480,211.866 99.587 C 212.910 100.694,213.945 101.600,214.164 101.600 C 214.635 101.600,211.854 98.661,210.367 97.587 C 209.566 97.009,209.333 96.967,209.333 97.403 M178.400 102.325 C 178.400 102.881,181.185 105.148,181.413 104.778 C 181.542 104.570,181.497 104.400,181.313 104.400 C 181.129 104.400,180.398 103.870,179.689 103.223 C 178.980 102.575,178.400 102.171,178.400 102.325 M215.081 102.987 C 215.477 103.531,215.966 103.981,216.170 103.987 C 216.373 103.994,216.117 103.550,215.600 103.000 C 214.401 101.723,214.157 101.718,215.081 102.987 M219.293 106.800 C 219.568 107.240,219.929 107.600,220.096 107.600 C 220.263 107.600,220.400 107.793,220.400 108.029 C 220.400 108.599,221.214 109.375,222.200 109.744 C 222.660 109.917,222.157 109.185,221.015 108.022 C 218.842 105.808,218.539 105.594,219.293 106.800 M188.020 112.040 C 188.602 112.612,189.646 113.674,190.339 114.399 C 192.026 116.164,191.943 115.686,190.200 113.600 C 189.430 112.678,188.800 112.063,188.800 112.232 C 188.800 112.401,188.386 112.193,187.881 111.770 C 187.366 111.338,187.427 111.457,188.020 112.040 M227.539 115.147 C 228.012 115.558,228.400 116.128,228.400 116.414 C 228.400 116.699,228.505 116.828,228.633 116.700 C 228.985 116.349,230.465 117.971,230.194 118.410 C 230.061 118.624,230.243 118.681,230.610 118.541 C 231.277 118.285,227.941 114.400,227.054 114.400 C 226.847 114.400,227.065 114.736,227.539 115.147 M196.000 119.932 C 196.000 120.309,198.844 122.889,199.042 122.692 C 199.129 122.604,198.481 121.886,197.601 121.095 C 196.720 120.305,196.000 119.782,196.000 119.932 M232.348 120.137 C 232.593 120.432,232.660 120.837,232.497 121.037 C 232.333 121.237,232.367 121.263,232.570 121.096 C 232.774 120.929,233.404 121.198,233.970 121.693 C 234.537 122.187,234.380 121.919,233.622 121.096 C 232.318 119.682,231.389 118.982,232.348 120.137 M236.851 124.287 C 238.404 126.232,239.071 126.910,239.800 127.284 C 240.240 127.510,239.707 126.773,238.615 125.647 C 236.652 123.622,235.788 122.957,236.851 124.287 M204.981 129.038 C 205.411 129.457,206.070 130.124,206.445 130.520 C 206.821 130.916,207.218 131.095,207.327 130.918 C 207.437 130.740,206.778 130.074,205.863 129.436 C 204.948 128.798,204.552 128.619,204.981 129.038 M207.600 131.413 C 207.600 131.534,207.930 131.988,208.333 132.421 C 208.840 132.964,209.067 133.038,209.067 132.658 C 209.067 132.356,208.737 131.903,208.333 131.651 C 207.930 131.399,207.600 131.292,207.600 131.413 M245.379 132.946 C 245.941 133.466,246.400 134.084,246.400 134.319 C 246.400 134.554,246.760 134.860,247.200 135.000 C 247.640 135.140,248.000 135.422,248.000 135.627 C 248.000 135.832,248.218 136.000,248.485 136.000 C 248.752 136.000,248.083 135.100,247.000 134.000 C 245.917 132.900,244.879 132.000,244.694 132.000 C 244.510 132.000,244.818 132.426,245.379 132.946 M212.805 136.830 C 212.809 136.924,213.921 138.080,215.277 139.400 C 217.727 141.784,217.734 141.788,216.372 139.944 C 215.617 138.923,214.923 138.160,214.830 138.248 C 214.736 138.335,214.241 138.014,213.730 137.534 C 213.218 137.054,212.802 136.737,212.805 136.830 M254.725 142.400 C 255.785 143.500,256.814 144.400,257.011 144.400 C 257.209 144.400,256.483 143.500,255.400 142.400 C 254.317 141.300,253.288 140.400,253.114 140.400 C 252.940 140.400,253.665 141.300,254.725 142.400 M222.000 145.925 C 222.000 146.481,224.785 148.748,225.013 148.378 C 225.142 148.170,225.097 148.000,224.913 148.000 C 224.729 148.000,223.998 147.470,223.289 146.823 C 222.580 146.175,222.000 145.771,222.000 145.925 M258.681 146.562 C 259.077 147.091,259.760 147.742,260.200 148.010 C 260.640 148.278,260.380 147.845,259.622 147.048 C 258.031 145.377,257.648 145.179,258.681 146.562 M262.832 150.300 C 264.015 151.862,265.042 152.895,265.800 153.284 C 266.240 153.510,265.707 152.773,264.615 151.647 C 262.613 149.582,261.855 149.010,262.832 150.300 M266.813 154.256 C 266.831 154.744,267.957 156.176,268.161 155.971 C 268.255 155.877,267.987 155.375,267.566 154.856 C 267.145 154.336,266.806 154.066,266.813 154.256 M231.600 155.673 C 232.874 156.975,234.258 157.480,233.096 156.219 C 232.823 155.923,232.523 155.754,232.430 155.844 C 232.336 155.934,231.796 155.610,231.230 155.124 C 230.663 154.639,230.830 154.885,231.600 155.673 M233.600 157.393 C 233.600 157.525,233.982 158.031,234.449 158.517 L 235.299 159.400 234.847 158.522 C 234.400 157.654,233.600 156.929,233.600 157.393 M272.208 159.829 C 273.200 160.835,273.909 161.823,273.785 162.025 C 273.660 162.226,273.852 162.278,274.210 162.141 C 274.847 161.896,271.561 158.000,270.717 158.000 C 270.545 158.000,271.216 158.823,272.208 159.829 M239.600 163.426 C 239.600 163.835,242.400 166.534,242.607 166.325 C 242.676 166.256,242.297 165.695,241.766 165.078 C 241.235 164.460,240.794 164.100,240.787 164.278 C 240.780 164.455,240.510 164.251,240.187 163.824 C 239.864 163.396,239.600 163.218,239.600 163.426 M279.200 166.485 C 279.200 166.938,283.541 171.392,283.765 171.168 C 283.883 171.051,282.904 169.890,281.590 168.590 C 280.275 167.289,279.200 166.342,279.200 166.485 M248.000 171.925 C 248.000 172.481,250.785 174.748,251.013 174.378 C 251.142 174.170,251.097 174.000,250.913 174.000 C 250.729 174.000,249.998 173.470,249.289 172.823 C 248.580 172.175,248.000 171.771,248.000 171.925 M284.681 172.587 C 285.077 173.131,285.566 173.581,285.770 173.587 C 285.973 173.594,285.717 173.150,285.200 172.600 C 284.001 171.323,283.757 171.318,284.681 172.587 M288.893 176.400 C 289.168 176.840,289.529 177.200,289.696 177.200 C 289.863 177.200,290.000 177.393,290.000 177.629 C 290.000 178.199,290.814 178.975,291.800 179.344 C 292.260 179.517,291.757 178.785,290.615 177.622 C 288.442 175.408,288.139 175.194,288.893 176.400 M256.400 180.431 C 256.400 180.524,257.510 181.680,258.867 183.000 C 260.224 184.319,261.112 184.984,260.841 184.477 C 260.570 183.970,260.096 183.458,259.789 183.340 C 259.482 183.223,259.117 182.769,258.979 182.333 C 258.840 181.897,258.622 181.645,258.493 181.774 C 258.365 181.902,257.841 181.614,257.330 181.134 C 256.818 180.654,256.400 180.337,256.400 180.431 M297.165 184.770 C 297.653 185.193,298.041 185.643,298.026 185.770 C 298.012 185.896,298.090 186.000,298.200 186.000 C 298.685 186.000,300.006 187.666,299.794 188.010 C 299.661 188.224,299.843 188.281,300.210 188.141 C 300.877 187.885,297.541 184.000,296.654 184.000 C 296.447 184.000,296.677 184.346,297.165 184.770 M265.600 189.605 C 265.600 189.955,268.417 192.516,268.601 192.333 C 268.678 192.255,268.035 191.549,267.171 190.764 C 266.307 189.980,265.600 189.458,265.600 189.605 M274.000 197.914 C 274.000 198.171,274.459 198.682,275.021 199.050 C 275.734 199.518,275.915 199.845,275.621 200.139 C 274.969 200.791,275.124 201.361,275.800 200.800 C 276.130 200.526,276.400 200.131,276.400 199.922 C 276.400 199.451,275.205 198.218,275.187 198.671 C 275.180 198.852,274.910 198.651,274.587 198.224 C 274.264 197.796,274.000 197.657,274.000 197.914 M282.177 230.167 C 281.750 230.479,281.507 230.840,281.636 230.970 C 281.766 231.099,282.198 230.844,282.598 230.402 C 283.448 229.463,283.273 229.366,282.177 230.167 M241.211 234.587 C 240.943 234.909,240.793 235.380,240.877 235.632 C 240.961 235.884,241.245 235.620,241.507 235.045 C 242.040 233.874,241.937 233.712,241.211 234.587 M264.344 247.987 C 263.825 248.419,263.597 248.779,263.838 248.787 C 264.079 248.794,264.602 248.440,265.000 248.000 C 265.926 246.976,265.566 246.969,264.344 247.987 M215.211 260.587 C 214.943 260.909,214.793 261.380,214.877 261.632 C 214.961 261.884,215.245 261.620,215.507 261.045 C 216.040 259.874,215.937 259.712,215.211 260.587 M248.063 264.400 C 247.575 265.060,247.242 265.600,247.322 265.600 C 247.402 265.600,247.949 265.060,248.537 264.400 C 249.125 263.740,249.459 263.200,249.278 263.200 C 249.098 263.200,248.551 263.740,248.063 264.400 M238.577 273.767 C 238.150 274.079,237.907 274.440,238.036 274.570 C 238.166 274.699,238.598 274.444,238.998 274.002 C 239.848 273.063,239.673 272.966,238.577 273.767 M189.627 286.171 C 189.125 286.706,188.779 287.311,188.857 287.517 C 188.936 287.723,189.397 287.286,189.882 286.546 C 190.927 284.949,190.863 284.855,189.627 286.171 M181.970 293.868 L 181.000 294.936 182.087 294.168 C 182.686 293.746,183.181 293.265,183.187 293.100 C 183.208 292.607,182.989 292.746,181.970 293.868 M212.577 299.767 C 212.150 300.079,211.907 300.440,212.036 300.570 C 212.166 300.699,212.598 300.444,212.998 300.002 C 213.848 299.063,213.673 298.966,212.577 299.767 M171.611 304.187 C 171.343 304.509,171.193 304.980,171.277 305.232 C 171.361 305.484,171.645 305.220,171.907 304.645 C 172.440 303.474,172.337 303.312,171.611 304.187 M145.611 330.187 C 145.343 330.509,145.193 330.980,145.277 331.232 C 145.361 331.484,145.645 331.220,145.907 330.645 C 146.440 329.474,146.337 329.312,145.611 330.187 M178.463 334.000 C 177.975 334.660,177.642 335.200,177.722 335.200 C 177.802 335.200,178.349 334.660,178.937 334.000 C 179.525 333.340,179.859 332.800,179.678 332.800 C 179.498 332.800,178.951 333.340,178.463 334.000 M168.977 343.367 C 168.550 343.679,168.307 344.040,168.436 344.170 C 168.566 344.299,168.998 344.044,169.398 343.602 C 170.248 342.663,170.073 342.566,168.977 343.367 M120.027 355.771 C 119.525 356.306,119.179 356.911,119.257 357.117 C 119.336 357.323,119.797 356.886,120.282 356.146 C 121.327 354.549,121.263 354.455,120.027 355.771 M112.358 363.509 C 111.692 364.264,111.644 364.398,112.200 363.949 C 112.640 363.595,113.261 363.224,113.580 363.125 C 113.946 363.013,114.005 362.850,113.738 362.686 C 113.506 362.542,112.885 362.913,112.358 363.509 M142.977 369.367 C 142.550 369.679,142.307 370.040,142.436 370.170 C 142.566 370.299,142.998 370.044,143.398 369.602 C 144.248 368.663,144.073 368.566,142.977 369.367 M102.011 373.787 C 101.743 374.109,101.593 374.580,101.677 374.832 C 101.761 375.084,102.045 374.820,102.307 374.245 C 102.840 373.074,102.737 372.912,102.011 373.787 M93.067 385.067 C 92.684 385.449,92.738 386.000,93.157 386.000 C 93.354 386.000,93.618 385.730,93.745 385.400 C 93.979 384.790,93.553 384.581,93.067 385.067 M116.977 395.367 C 116.550 395.679,116.307 396.040,116.436 396.170 C 116.566 396.299,116.998 396.044,117.398 395.602 C 118.248 394.663,118.073 394.566,116.977 395.367 " stroke="none" fill="#70d4d4" fill-rule="evenodd"></path><path id="path2" d="M114.000 1.281 C 114.000 1.719,117.559 5.374,117.775 5.158 C 117.889 5.045,117.086 4.069,115.991 2.991 C 114.896 1.912,114.000 1.143,114.000 1.281 M119.481 7.387 C 119.877 7.931,120.366 8.381,120.570 8.387 C 120.773 8.394,120.517 7.950,120.000 7.400 C 118.801 6.123,118.557 6.118,119.481 7.387 M92.800 8.576 C 92.800 8.893,92.969 9.257,93.176 9.385 C 93.382 9.513,93.524 9.253,93.491 8.809 C 93.422 7.895,92.800 7.686,92.800 8.576 M123.651 11.087 C 125.204 13.032,125.871 13.710,126.600 14.084 C 127.040 14.310,126.507 13.573,125.415 12.447 C 123.452 10.422,122.588 9.757,123.651 11.087 M93.897 17.300 C 94.115 17.575,94.375 18.065,94.476 18.390 C 94.604 18.801,94.730 18.710,94.893 18.089 C 95.021 17.600,94.962 17.300,94.763 17.423 C 94.563 17.546,94.400 17.457,94.400 17.224 C 94.400 16.991,94.198 16.800,93.951 16.800 C 93.648 16.800,93.630 16.962,93.897 17.300 M131.965 19.570 C 132.453 19.993,132.841 20.443,132.826 20.570 C 132.812 20.696,132.890 20.800,133.000 20.800 C 133.485 20.800,134.806 22.466,134.594 22.810 C 134.461 23.024,134.643 23.081,135.010 22.941 C 135.677 22.685,132.341 18.800,131.454 18.800 C 131.247 18.800,131.477 19.146,131.965 19.570 M100.400 24.405 C 100.400 24.755,103.217 27.316,103.401 27.133 C 103.478 27.055,102.835 26.349,101.971 25.564 C 101.107 24.780,100.400 24.258,100.400 24.405 M140.822 28.200 C 140.812 28.420,141.690 29.454,142.772 30.499 C 143.854 31.543,145.116 32.875,145.575 33.460 C 146.035 34.044,146.493 34.440,146.593 34.340 C 146.693 34.240,145.439 32.728,143.807 30.979 C 142.175 29.231,140.831 27.980,140.822 28.200 M108.800 32.626 C 108.800 33.136,111.543 35.631,111.716 35.278 C 111.790 35.125,111.435 34.601,110.926 34.114 C 110.417 33.627,109.994 33.357,109.987 33.514 C 109.980 33.671,109.710 33.451,109.387 33.024 C 109.064 32.596,108.800 32.418,108.800 32.626 M149.693 37.200 C 149.968 37.640,150.329 38.000,150.496 38.000 C 150.663 38.000,150.801 38.225,150.803 38.500 C 150.804 38.775,151.389 39.328,152.103 39.729 C 153.252 40.376,153.174 40.228,151.415 38.429 C 149.244 36.209,148.938 35.991,149.693 37.200 M118.420 42.440 C 119.002 43.012,120.046 44.074,120.739 44.799 C 122.426 46.564,122.343 46.086,120.600 44.000 C 119.830 43.078,119.200 42.463,119.200 42.632 C 119.200 42.801,118.786 42.593,118.281 42.170 C 117.766 41.738,117.827 41.857,118.420 42.440 M158.984 46.605 C 160.005 47.598,160.732 48.586,160.600 48.800 C 160.461 49.026,160.634 49.085,161.010 48.941 C 161.666 48.689,158.348 44.800,157.478 44.800 C 157.285 44.800,157.962 45.612,158.984 46.605 M126.400 50.332 C 126.400 50.709,129.244 53.289,129.442 53.092 C 129.529 53.004,128.881 52.286,128.001 51.495 C 127.120 50.705,126.400 50.182,126.400 50.332 M163.600 51.400 C 164.346 52.170,165.047 52.800,165.157 52.800 C 165.267 52.800,164.746 52.170,164.000 51.400 C 163.254 50.630,162.553 50.000,162.443 50.000 C 162.333 50.000,162.854 50.630,163.600 51.400 M167.251 54.687 C 168.804 56.632,169.471 57.310,170.200 57.684 C 170.640 57.910,170.107 57.173,169.015 56.047 C 167.052 54.022,166.188 53.357,167.251 54.687 M135.381 59.438 C 135.811 59.857,136.470 60.524,136.845 60.920 C 137.221 61.316,137.618 61.495,137.727 61.318 C 137.837 61.140,137.178 60.474,136.263 59.836 C 135.348 59.198,134.952 59.019,135.381 59.438 M138.000 61.793 C 138.000 61.925,138.382 62.431,138.849 62.917 L 139.699 63.800 139.247 62.922 C 138.800 62.054,138.000 61.329,138.000 61.793 M175.779 63.346 C 176.341 63.866,176.800 64.484,176.800 64.719 C 176.800 64.954,177.160 65.260,177.600 65.400 C 178.040 65.540,178.400 65.822,178.400 66.027 C 178.400 66.232,178.618 66.400,178.885 66.400 C 179.152 66.400,178.483 65.500,177.400 64.400 C 176.317 63.300,175.279 62.400,175.094 62.400 C 174.910 62.400,175.218 62.826,175.779 63.346 M144.934 68.954 C 147.007 71.005,147.753 71.322,146.166 69.478 C 145.635 68.860,145.200 68.487,145.200 68.647 C 145.200 68.808,144.705 68.513,144.100 67.991 C 143.495 67.469,143.870 67.903,144.934 68.954 M183.600 70.881 C 183.600 71.319,187.159 74.974,187.375 74.758 C 187.489 74.645,186.686 73.669,185.591 72.591 C 184.496 71.512,183.600 70.743,183.600 70.881 M152.400 76.325 C 152.400 76.881,155.185 79.148,155.413 78.778 C 155.542 78.570,155.497 78.400,155.313 78.400 C 155.129 78.400,154.398 77.870,153.689 77.223 C 152.980 76.575,152.400 76.171,152.400 76.325 M193.251 80.687 C 194.804 82.632,195.471 83.310,196.200 83.684 C 196.640 83.910,196.107 83.173,195.015 82.047 C 193.052 80.022,192.188 79.357,193.251 80.687 M162.000 86.073 C 163.274 87.375,164.658 87.880,163.496 86.619 C 163.223 86.323,162.923 86.154,162.830 86.244 C 162.736 86.334,162.196 86.010,161.630 85.524 C 161.063 85.039,161.230 85.285,162.000 86.073 M164.000 87.793 C 164.000 87.925,164.382 88.431,164.849 88.917 L 165.699 89.800 165.247 88.922 C 164.800 88.054,164.000 87.329,164.000 87.793 M202.800 90.377 C 202.800 90.585,203.180 91.020,203.643 91.345 C 204.107 91.670,204.368 92.128,204.223 92.363 C 204.058 92.629,204.202 92.697,204.604 92.543 C 205.150 92.333,205.081 92.119,204.150 91.148 C 202.952 89.897,202.800 89.811,202.800 90.377 M170.000 93.826 C 170.000 94.235,172.800 96.934,173.007 96.725 C 173.076 96.656,172.697 96.095,172.166 95.478 C 171.635 94.860,171.194 94.500,171.187 94.678 C 171.180 94.855,170.910 94.651,170.587 94.224 C 170.264 93.796,170.000 93.618,170.000 93.826 M209.333 97.403 C 209.333 97.712,209.476 97.877,209.649 97.769 C 209.823 97.662,210.821 98.480,211.866 99.587 C 212.910 100.694,213.945 101.600,214.164 101.600 C 214.635 101.600,211.854 98.661,210.367 97.587 C 209.566 97.009,209.333 96.967,209.333 97.403 M178.400 102.325 C 178.400 102.881,181.185 105.148,181.413 104.778 C 181.542 104.570,181.497 104.400,181.313 104.400 C 181.129 104.400,180.398 103.870,179.689 103.223 C 178.980 102.575,178.400 102.171,178.400 102.325 M215.081 102.987 C 215.477 103.531,215.966 103.981,216.170 103.987 C 216.373 103.994,216.117 103.550,215.600 103.000 C 214.401 101.723,214.157 101.718,215.081 102.987 M219.293 106.800 C 219.568 107.240,219.929 107.600,220.096 107.600 C 220.263 107.600,220.400 107.793,220.400 108.029 C 220.400 108.599,221.214 109.375,222.200 109.744 C 222.660 109.917,222.157 109.185,221.015 108.022 C 218.842 105.808,218.539 105.594,219.293 106.800 M188.020 112.040 C 188.602 112.612,189.646 113.674,190.339 114.399 C 192.026 116.164,191.943 115.686,190.200 113.600 C 189.430 112.678,188.800 112.063,188.800 112.232 C 188.800 112.401,188.386 112.193,187.881 111.770 C 187.366 111.338,187.427 111.457,188.020 112.040 M227.539 115.147 C 228.012 115.558,228.400 116.128,228.400 116.414 C 228.400 116.699,228.505 116.828,228.633 116.700 C 228.985 116.349,230.465 117.971,230.194 118.410 C 230.061 118.624,230.243 118.681,230.610 118.541 C 231.277 118.285,227.941 114.400,227.054 114.400 C 226.847 114.400,227.065 114.736,227.539 115.147 M196.000 119.932 C 196.000 120.309,198.844 122.889,199.042 122.692 C 199.129 122.604,198.481 121.886,197.601 121.095 C 196.720 120.305,196.000 119.782,196.000 119.932 M232.348 120.137 C 232.593 120.432,232.660 120.837,232.497 121.037 C 232.333 121.237,232.367 121.263,232.570 121.096 C 232.774 120.929,233.404 121.198,233.970 121.693 C 234.537 122.187,234.380 121.919,233.622 121.096 C 232.318 119.682,231.389 118.982,232.348 120.137 M236.851 124.287 C 238.404 126.232,239.071 126.910,239.800 127.284 C 240.240 127.510,239.707 126.773,238.615 125.647 C 236.652 123.622,235.788 122.957,236.851 124.287 M204.981 129.038 C 205.411 129.457,206.070 130.124,206.445 130.520 C 206.821 130.916,207.218 131.095,207.327 130.918 C 207.437 130.740,206.778 130.074,205.863 129.436 C 204.948 128.798,204.552 128.619,204.981 129.038 M207.600 131.413 C 207.600 131.534,207.930 131.988,208.333 132.421 C 208.840 132.964,209.067 133.038,209.067 132.658 C 209.067 132.356,208.737 131.903,208.333 131.651 C 207.930 131.399,207.600 131.292,207.600 131.413 M245.379 132.946 C 245.941 133.466,246.400 134.084,246.400 134.319 C 246.400 134.554,246.760 134.860,247.200 135.000 C 247.640 135.140,248.000 135.422,248.000 135.627 C 248.000 135.832,248.218 136.000,248.485 136.000 C 248.752 136.000,248.083 135.100,247.000 134.000 C 245.917 132.900,244.879 132.000,244.694 132.000 C 244.510 132.000,244.818 132.426,245.379 132.946 M212.805 136.830 C 212.809 136.924,213.921 138.080,215.277 139.400 C 217.727 141.784,217.734 141.788,216.372 139.944 C 215.617 138.923,214.923 138.160,214.830 138.248 C 214.736 138.335,214.241 138.014,213.730 137.534 C 213.218 137.054,212.802 136.737,212.805 136.830 M254.725 142.400 C 255.785 143.500,256.814 144.400,257.011 144.400 C 257.209 144.400,256.483 143.500,255.400 142.400 C 254.317 141.300,253.288 140.400,253.114 140.400 C 252.940 140.400,253.665 141.300,254.725 142.400 M222.000 145.925 C 222.000 146.481,224.785 148.748,225.013 148.378 C 225.142 148.170,225.097 148.000,224.913 148.000 C 224.729 148.000,223.998 147.470,223.289 146.823 C 222.580 146.175,222.000 145.771,222.000 145.925 M258.681 146.562 C 259.077 147.091,259.760 147.742,260.200 148.010 C 260.640 148.278,260.380 147.845,259.622 147.048 C 258.031 145.377,257.648 145.179,258.681 146.562 M262.832 150.300 C 264.015 151.862,265.042 152.895,265.800 153.284 C 266.240 153.510,265.707 152.773,264.615 151.647 C 262.613 149.582,261.855 149.010,262.832 150.300 M266.813 154.256 C 266.831 154.744,267.957 156.176,268.161 155.971 C 268.255 155.877,267.987 155.375,267.566 154.856 C 267.145 154.336,266.806 154.066,266.813 154.256 M231.600 155.673 C 232.874 156.975,234.258 157.480,233.096 156.219 C 232.823 155.923,232.523 155.754,232.430 155.844 C 232.336 155.934,231.796 155.610,231.230 155.124 C 230.663 154.639,230.830 154.885,231.600 155.673 M233.600 157.393 C 233.600 157.525,233.982 158.031,234.449 158.517 L 235.299 159.400 234.847 158.522 C 234.400 157.654,233.600 156.929,233.600 157.393 M272.208 159.829 C 273.200 160.835,273.909 161.823,273.785 162.025 C 273.660 162.226,273.852 162.278,274.210 162.141 C 274.847 161.896,271.561 158.000,270.717 158.000 C 270.545 158.000,271.216 158.823,272.208 159.829 M239.600 163.426 C 239.600 163.835,242.400 166.534,242.607 166.325 C 242.676 166.256,242.297 165.695,241.766 165.078 C 241.235 164.460,240.794 164.100,240.787 164.278 C 240.780 164.455,240.510 164.251,240.187 163.824 C 239.864 163.396,239.600 163.218,239.600 163.426 M279.200 166.485 C 279.200 166.938,283.541 171.392,283.765 171.168 C 283.883 171.051,282.904 169.890,281.590 168.590 C 280.275 167.289,279.200 166.342,279.200 166.485 M248.000 171.925 C 248.000 172.481,250.785 174.748,251.013 174.378 C 251.142 174.170,251.097 174.000,250.913 174.000 C 250.729 174.000,249.998 173.470,249.289 172.823 C 248.580 172.175,248.000 171.771,248.000 171.925 M284.681 172.587 C 285.077 173.131,285.566 173.581,285.770 173.587 C 285.973 173.594,285.717 173.150,285.200 172.600 C 284.001 171.323,283.757 171.318,284.681 172.587 M288.893 176.400 C 289.168 176.840,289.529 177.200,289.696 177.200 C 289.863 177.200,290.000 177.393,290.000 177.629 C 290.000 178.199,290.814 178.975,291.800 179.344 C 292.260 179.517,291.757 178.785,290.615 177.622 C 288.442 175.408,288.139 175.194,288.893 176.400 M256.400 180.431 C 256.400 180.524,257.510 181.680,258.867 183.000 C 260.224 184.319,261.112 184.984,260.841 184.477 C 260.570 183.970,260.096 183.458,259.789 183.340 C 259.482 183.223,259.117 182.769,258.979 182.333 C 258.840 181.897,258.622 181.645,258.493 181.774 C 258.365 181.902,257.841 181.614,257.330 181.134 C 256.818 180.654,256.400 180.337,256.400 180.431 M297.165 184.770 C 297.653 185.193,298.041 185.643,298.026 185.770 C 298.012 185.896,298.090 186.000,298.200 186.000 C 298.685 186.000,300.006 187.666,299.794 188.010 C 299.661 188.224,299.843 188.281,300.210 188.141 C 300.877 187.885,297.541 184.000,296.654 184.000 C 296.447 184.000,296.677 184.346,297.165 184.770 M265.600 189.605 C 265.600 189.955,268.417 192.516,268.601 192.333 C 268.678 192.255,268.035 191.549,267.171 190.764 C 266.307 189.980,265.600 189.458,265.600 189.605 M274.000 197.914 C 274.000 198.171,274.459 198.682,275.021 199.050 C 275.734 199.518,275.915 199.845,275.621 200.139 C 274.969 200.791,275.124 201.361,275.800 200.800 C 276.130 200.526,276.400 200.131,276.400 199.922 C 276.400 199.451,275.205 198.218,275.187 198.671 C 275.180 198.852,274.910 198.651,274.587 198.224 C 274.264 197.796,274.000 197.657,274.000 197.914 M282.177 230.167 C 281.750 230.479,281.507 230.840,281.636 230.970 C 281.766 231.099,282.198 230.844,282.598 230.402 C 283.448 229.463,283.273 229.366,282.177 230.167 M241.211 234.587 C 240.943 234.909,240.793 235.380,240.877 235.632 C 240.961 235.884,241.245 235.620,241.507 235.045 C 242.040 233.874,241.937 233.712,241.211 234.587 M264.344 247.987 C 263.825 248.419,263.597 248.779,263.838 248.787 C 264.079 248.794,264.602 248.440,265.000 248.000 C 265.926 246.976,265.566 246.969,264.344 247.987 M215.211 260.587 C 214.943 260.909,214.793 261.380,214.877 261.632 C 214.961 261.884,215.245 261.620,215.507 261.045 C 216.040 259.874,215.937 259.712,215.211 260.587 M248.063 264.400 C 247.575 265.060,247.242 265.600,247.322 265.600 C 247.402 265.600,247.949 265.060,248.537 264.400 C 249.125 263.740,249.459 263.200,249.278 263.200 C 249.098 263.200,248.551 263.740,248.063 264.400 M238.577 273.767 C 238.150 274.079,237.907 274.440,238.036 274.570 C 238.166 274.699,238.598 274.444,238.998 274.002 C 239.848 273.063,239.673 272.966,238.577 273.767 M189.627 286.171 C 189.125 286.706,188.779 287.311,188.857 287.517 C 188.936 287.723,189.397 287.286,189.882 286.546 C 190.927 284.949,190.863 284.855,189.627 286.171 M181.970 293.868 L 181.000 294.936 182.087 294.168 C 182.686 293.746,183.181 293.265,183.187 293.100 C 183.208 292.607,182.989 292.746,181.970 293.868 M212.577 299.767 C 212.150 300.079,211.907 300.440,212.036 300.570 C 212.166 300.699,212.598 300.444,212.998 300.002 C 213.848 299.063,213.673 298.966,212.577 299.767 M171.611 304.187 C 171.343 304.509,171.193 304.980,171.277 305.232 C 171.361 305.484,171.645 305.220,171.907 304.645 C 172.440 303.474,172.337 303.312,171.611 304.187 M145.611 330.187 C 145.343 330.509,145.193 330.980,145.277 331.232 C 145.361 331.484,145.645 331.220,145.907 330.645 C 146.440 329.474,146.337 329.312,145.611 330.187 M178.463 334.000 C 177.975 334.660,177.642 335.200,177.722 335.200 C 177.802 335.200,178.349 334.660,178.937 334.000 C 179.525 333.340,179.859 332.800,179.678 332.800 C 179.498 332.800,178.951 333.340,178.463 334.000 M168.977 343.367 C 168.550 343.679,168.307 344.040,168.436 344.170 C 168.566 344.299,168.998 344.044,169.398 343.602 C 170.248 342.663,170.073 342.566,168.977 343.367 M120.027 355.771 C 119.525 356.306,119.179 356.911,119.257 357.117 C 119.336 357.323,119.797 356.886,120.282 356.146 C 121.327 354.549,121.263 354.455,120.027 355.771 M112.358 363.509 C 111.692 364.264,111.644 364.398,112.200 363.949 C 112.640 363.595,113.261 363.224,113.580 363.125 C 113.946 363.013,114.005 362.850,113.738 362.686 C 113.506 362.542,112.885 362.913,112.358 363.509 M142.977 369.367 C 142.550 369.679,142.307 370.040,142.436 370.170 C 142.566 370.299,142.998 370.044,143.398 369.602 C 144.248 368.663,144.073 368.566,142.977 369.367 M102.011 373.787 C 101.743 374.109,101.593 374.580,101.677 374.832 C 101.761 375.084,102.045 374.820,102.307 374.245 C 102.840 373.074,102.737 372.912,102.011 373.787 M93.067 385.067 C 92.684 385.449,92.738 386.000,93.157 386.000 C 93.354 386.000,93.618 385.730,93.745 385.400 C 93.979 384.790,93.553 384.581,93.067 385.067 M116.977 395.367 C 116.550 395.679,116.307 396.040,116.436 396.170 C 116.566 396.299,116.998 396.044,117.398 395.602 C 118.248 394.663,118.073 394.566,116.977 395.367 " stroke="none" fill="#70d4d4" fill-rule="evenodd"></path></g></svg>